<?xml version="1.0" encoding="utf-8"?>
<!-- Generator: Adobe Illustrator 27.5.0, SVG Export Plug-In . SVG Version: 6.00 Build 0)  -->
<svg version="1.1" xmlns="http://www.w3.org/2000/svg" xmlns:xlink="http://www.w3.org/1999/xlink" x="0px" y="0px"
	 viewBox="0 0 750 500" style="enable-background:new 0 0 750 500;" xml:space="preserve">
<g id="BACKGROUND">
	<path style="fill:#F6F4F3;" d="M0,0v500h750V0H0z"/>
	<path style="fill:#EFEBE9;" d="M713.36,161.055c-4-6-11-6-14-13c0-1-3,0-4,1c0,3,0,7-1,7c-16,0-32,4-45-10c-2-3-10,1-12-2
		c-12-13-28-16-42-17c-4,0-3,11-7,14c-2,1-5-4-8-2c-7,5-14,6-21,9c-4,1-5,9-10,7c-6-2-10,1-15,1c1,5-2,8-5,11c-3,2-7,0-10-1
		c-15-4-26,12-38,15c-14,2-31,6-40,17c-7,7-22,6-34,12c-5,3-15,3-20,0c-11-7-18,1-26,4c-10,4-12-11-20-15c-8-3-12,7-19,10
		c-3-7-11-3-16-9c-1-2-1-4-2-6c-3-4-8-2-12-2c1-2-1-4-1-4c-8-3-16-5-23-9c-2-1-3-6-6-7c-10-3-19-6-28-11c-6-3-9-2-14,2
		c-2-15-17-21-31-20c0,0-3-1-2-3c-3-1-5,2-6,2c-9-11-20-19-30-29c-5-4-10-10-17-5c0-11-9-10-18-12c-1,0-3-5-5-7c-2-1-6,0-7,1
		c-2,2-5,2-4,5c-2,0-5-1-7,1c-2,3-2,9-6,10c-13,1-25-1-35,10c-1,1-4,2-6,1c0,2-2,4-2,6c-10-2-17,6-17,15
		c-12.2,0-19.116,4.404-27.36,12.385V500h750V188.027c-11.604-7.226-21.734-17.496-35.64-20.972
		C712.36,167.055,714.36,163.055,713.36,161.055z"/>
	<g style="opacity:0.46;">
		<defs>
			<path id="SVGID_1_" style="opacity:0.46;" d="M0,0v500h750V0H0z"/>
		</defs>
		<clipPath id="SVGID_00000048500647744337220410000015204057432562207673_">
			<use xlink:href="#SVGID_1_"  style="overflow:visible;"/>
		</clipPath>
		<g style="clip-path:url(#SVGID_00000048500647744337220410000015204057432562207673_);">
			<path style="fill:#E0D6D0;" d="M538.36,437.055c9-9,21-16,32-23c-96,27-194,51-294,45c-51-3-107-7-147-43c7,11,14,22,24,31
				c-19-7-35-19-51-32C69.86,386.069,38.901,356.316,0,338.663V500h750v-89.968c-50.156,1.691-100.189,5.142-150.64,9.023
				C577.36,420.055,557.36,428.055,538.36,437.055z"/>
			<path style="fill:#E6DEDA;" d="M623.36,384.055c-60,5-111,37-172,49c-135,28-275,17-388-70
				C44.155,348.282,22.764,336.797,0,329.78v8.882c38.901,17.653,69.86,47.406,102.36,76.392c16,13,32,25,51,32c-10-9-17-20-24-31
				c40,36,96,40,147,43c100,6,198-18,294-45c-11,7-23,14-32,23c19-9,39-17,61-18c50.451-3.881,100.484-7.332,150.64-9.023v-38.907
				C707.87,375.001,665.731,380.685,623.36,384.055z"/>
		</g>
		<g style="clip-path:url(#SVGID_00000048500647744337220410000015204057432562207673_);">
			<g>
				<path style="fill:#E0D6D0;" d="M86.098,226.841c-10.786,7.709-20.874,16.387-30.13,25.879
					c-9.195,9.428-17.566,19.65-25.041,30.491c-7.555,10.957-14.183,22.552-19.792,34.621c-5.549,11.94-10.108,24.347-13.575,37.05
					c-3.479,12.744-5.85,25.787-7.04,38.943c-0.148,1.635-0.276,3.272-0.388,4.91c-0.044,0.643,0.956,0.611,1-0.026
					c0.897-13.141,2.987-26.192,6.19-38.968c3.203-12.776,7.508-25.272,12.83-37.32c5.306-12.012,11.613-23.581,18.834-34.549
					c7.243-11.001,15.414-21.391,24.41-31.011c8.993-9.616,18.814-18.46,29.36-26.343c1.279-0.956,2.57-1.898,3.869-2.827
					C87.146,227.319,86.623,226.466,86.098,226.841z"/>
				<path style="fill:#E0D6D0;" d="M112.71,202.675c-22.549,3.917-43.766,15.154-59.676,31.606
					c-15.91,16.452-26.432,38.033-29.593,60.7C59.388,273.572,93.686,239.938,112.71,202.675z"/>
			</g>
			<g>
				<path style="fill:#E0D6D0;" d="M140.906,278.586c-12.862,3.216-25.429,7.589-37.522,13.023
					c-12.012,5.398-23.549,11.837-34.48,19.181c-11.047,7.422-21.466,15.778-31.112,24.949
					c-9.542,9.073-18.333,18.943-26.218,29.488C3.664,375.806-3.326,387.07-9.26,398.874c-0.737,1.467-1.457,2.942-2.162,4.425
					c-0.277,0.582,0.666,0.919,0.94,0.342C-4.827,391.745,1.905,380.37,9.57,369.66c7.666-10.711,16.255-20.756,25.625-30.013
					c9.342-9.229,19.453-17.678,30.194-25.232c10.773-7.578,22.186-14.247,34.084-19.896c11.893-5.647,24.274-10.272,36.976-13.738
					c1.541-0.421,3.087-0.823,4.637-1.211C141.706,279.415,141.531,278.43,140.906,278.586z"/>
				<path style="fill:#E0D6D0;" d="M174.527,265.865c-22.414-4.627-46.274-1.955-67.11,7.514
					c-20.836,9.469-38.54,25.687-49.795,45.615C98.916,312.263,143.161,293.553,174.527,265.865z"/>
			</g>
			<g>
				<path style="fill:#E0D6D0;" d="M170.257,346.234c-13.247-0.541-26.537,0.113-39.672,1.918
					c-13.047,1.793-25.931,4.719-38.488,8.684c-12.691,4.007-25.044,9.087-36.883,15.167c-11.713,6.015-22.93,13.007-33.467,20.902
					c-10.572,7.921-20.454,16.757-29.473,26.41c-1.121,1.199-2.227,2.412-3.322,3.636c-0.43,0.48,0.38,1.069,0.805,0.593
					c8.779-9.82,18.444-18.836,28.817-26.951c10.374-8.116,21.446-15.333,33.046-21.572c11.564-6.221,23.647-11.477,36.082-15.698
					c12.472-4.234,25.302-7.415,38.31-9.482c13.002-2.066,26.185-3.013,39.349-2.758c1.597,0.031,3.194,0.081,4.79,0.146
					C170.79,347.254,170.901,346.26,170.257,346.234z"/>
				<path style="fill:#E0D6D0;" d="M206.1,343.506c-20.201-10.757-43.847-14.92-66.507-11.708
					c-22.66,3.212-44.218,13.781-60.634,29.728C120.477,366.708,168.201,361.23,206.1,343.506z"/>
			</g>
		</g>
		<g style="clip-path:url(#SVGID_00000048500647744337220410000015204057432562207673_);">
			<g>
				<path style="fill:#E0D6D0;" d="M684.645,268.52c9.251,9.497,17.642,19.824,25.071,30.805
					c7.38,10.907,13.809,22.45,19.246,34.443c5.495,12.121,9.965,24.707,13.349,37.579c3.348,12.734,5.637,25.752,6.8,38.868
					c1.167,13.158,1.192,26.415,0.033,39.575c-0.144,1.635-0.307,3.269-0.487,4.901c-0.071,0.641-1.049,0.432-0.979-0.203
					c1.444-13.092,1.698-26.307,0.808-39.448c-0.89-13.142-2.915-26.202-6.019-39.002c-3.095-12.762-7.254-25.265-12.419-37.338
					c-5.18-12.109-11.382-23.783-18.533-34.844c-7.148-11.056-15.248-21.499-24.231-31.126c-1.09-1.168-2.193-2.323-3.307-3.467
					C683.529,268.804,684.195,268.058,684.645,268.52z"/>
				<path style="fill:#E0D6D0;" d="M662.733,240.023c21.499,7.848,40.391,22.665,53.137,41.674
					c12.746,19.009,19.279,42.112,18.377,64.981C702.659,319.242,674.858,280.066,662.733,240.023z"/>
			</g>
			<g>
				<path style="fill:#E0D6D0;" d="M621.541,309.742c12.09,5.442,23.684,11.972,34.623,19.462
					c10.866,7.44,21.081,15.82,30.538,24.983c9.558,9.261,18.333,19.33,26.202,30.063c7.785,10.619,14.689,21.89,20.583,33.665
					c5.912,11.813,10.797,24.137,14.547,36.804c0.466,1.574,0.913,3.154,1.344,4.738c0.169,0.622-0.818,0.787-0.985,0.171
					c-3.459-12.709-8.07-25.096-13.718-36.995c-5.648-11.899-12.322-23.307-19.905-34.076c-7.56-10.737-16.016-20.843-25.249-30.18
					c-9.261-9.365-19.313-17.95-30.022-25.617c-10.705-7.664-22.071-14.408-33.959-20.068c-1.442-0.687-2.892-1.357-4.349-2.012
					C620.607,310.416,620.953,309.477,621.541,309.742z"/>
				<path style="fill:#E0D6D0;" d="M590.703,291.269c22.879-0.585,45.889,6.27,64.719,19.279
					c18.83,13.009,33.382,32.105,40.931,53.711C656.904,350.322,616.671,324.074,590.703,291.269z"/>
			</g>
			<g>
				<path style="fill:#E0D6D0;" d="M580.675,371.124c13.134,1.814,26.098,4.81,38.705,8.913
					c12.523,4.075,24.685,9.236,36.342,15.362c11.781,6.191,23.039,13.378,33.614,21.458c10.463,7.994,20.264,16.861,29.237,26.498
					c9.002,9.667,17.163,20.114,24.331,31.211c0.891,1.379,1.765,2.769,2.625,4.167c0.338,0.549-0.563,0.985-0.898,0.441
					c-6.901-11.219-14.817-21.804-23.59-31.628c-8.773-9.825-18.392-18.888-28.704-27.083c-10.28-8.171-21.241-15.483-32.732-21.839
					c-11.525-6.375-23.589-11.778-36.026-16.115c-12.431-4.335-25.238-7.602-38.239-9.682c-1.577-0.252-3.157-0.486-4.74-0.705
					C579.969,372.034,580.036,371.036,580.675,371.124z"/>
				<path style="fill:#E0D6D0;" d="M545.881,362.093c21.786-7.01,45.796-6.92,67.529,0.253
					c21.733,7.173,41.079,21.393,54.411,39.995C626.043,400.09,580.043,386.247,545.881,362.093z"/>
			</g>
		</g>
	</g>
</g>
<g id="OBJECTS">
	<g>
		<g>
			<path style="fill:#263238;" d="M184.572,500h394.918c-39.903-16.918-79.813-34.851-119.716-51.77
				c-23.069-9.781-46.251-19.621-67.466-32.954c-21.214-13.334-40.557-30.436-53.21-52.064c-7.701-13.164-12.563-30.43-4.186-43.175
				c6.137-9.338,18.194-14.155,22.565-24.439c3.789-8.917,0.618-19.163,1.591-28.803c1.589-15.751,15.844-29.231,31.659-29.938
				c-3.404,14.38-6.113,29.643-9.516,44.023c-4.629,19.558-3.411,39.361-5.462,59.355c-3.651,1.604-5.502,5.483-4.799,9.408
				c0.554,3.09-0.622,6.761-0.961,9.882c4.576-2.173,9.228-4.267,12.563-8.08c3.335-3.813,4.95-9.612,2.487-14.039
				c6.52-18.17,10.388-38.228,13.176-57.329c2.662-18.245,12.924-34.174,19.97-51.212c1.941-4.692,0.915-10.108,1.693-15.126
				c7.416-1.256,13.161-9.479,12.606-16.98c-0.246-3.333-1.541-6.894,0-9.86c1.166-2.245,3.629-3.435,5.548-5.084
				c1.919-1.649,3.352-4.626,1.798-6.623c2.201-0.574,4.341-2.437,6.313-3.57c1.973-1.133,3.689-2.9,4.252-5.104
				c0.832-3.256-0.955-6.548-2.675-9.436c1.789-5.888,0.728-12.702-2.143-18.145c-2.871-5.443-7.949-9.68-13.819-11.529
				c-2.428-0.765-5.263-2.256-7.667-3.094c-1.704-0.595-3.636-1.178-5.248-0.366c-0.494,0.249-0.771,0.641-1.212,0.974
				c-3.009,2.274-7.573,2.716-10.77,4.716c-1.095,0.685-1.558,2.288-2.167,3.427c-2.343,0.249-4.964,0.414-7.307,0.663
				c-0.754,0.08-1.671,0.292-1.87,1.023c-0.112,0.414,0.063,0.845,0.236,1.238c0.496,1.13,0.991,2.26,1.487,3.389
				c-0.832,0.649-1.817,1.334-2.649,1.983c0.126,0.367,0.253,0.733,0.379,1.1c-0.243-0.483-1.526-0.446-1.86-0.02
				c-0.333,0.426-0.325,1.023-0.241,1.558c0.084,0.534,0.226,1.08,0.109,1.608c-0.24,1.076-1.425,1.628-2.492,1.905
				c-1.067,0.278-2.264,0.503-2.929,1.382c-0.58,0.767-0.573,1.855-0.228,2.753c0.346,0.898,0.981,1.648,1.605,2.38
				c3.108,3.645,6.215,7.289,9.323,10.934c0.307,6.735-2.256,13.604-6.813,18.573c-4.573-3.414-6.497-10.196-11.976-12.069
				c-5.122-1.751-13.764,1.308-19.088,0.974c-0.371-5.612-1.073-11.079-1.443-16.691c1.453-1.621,2.526-3.209,3.398-5.204
				c-0.941-0.125-1.882-0.25-2.823-0.374c2.901-2.955,5.398-6.114,8.299-9.069c2.098,2.509,4.595,4.505,7.713,5.491
				c1.35,0.427,2.869,0.675,4.143,0.058c0.991-0.48,1.691-1.428,2.1-2.45c0.408-1.022,0.558-2.126,0.705-3.217
				c0.667,0.217,0.993-0.125,1.488-0.622c0.495-0.498,0.68-1.281,0.459-1.948c1.115,0.207,2.135-1.075,1.961-2.195
				c1.535,0.12,3.279,0.185,4.814,0.305c0.895,0.07,1.948,0.074,2.497-0.636c0.376-0.486,0.381-1.154,0.37-1.769
				c-0.067-3.487-0.133-6.974-0.2-10.461c0.857,0.452,2.01-0.405,2.527-1.224c0.517-0.819,0.595-1.831,0.658-2.798
				c0.192-2.933,0.385-5.865,0.577-8.797c3.495-0.894,6.336-3.84,7.496-7.256c1.159-3.416,0.478-7.397-1.75-10.233
				c-0.086,0.476-0.172,0.952-0.258,1.428c-1.936-3.385-4.698-6.293-7.978-8.401c0.099,0.351,0.197,0.702,0.296,1.052
				c-4.5-3.778-10.13-6.191-15.969-6.844c-2.288-0.256-4.727-0.218-6.728,0.919c-3.779-1.273-8.226-0.378-11.212,2.265
				c-3.548,2.406-6.287,5.985-7.681,10.039c-1.305,3.795-1.439,7.886-2.347,11.795c-1.31,5.638-4.273,10.88-8.427,14.91
				c-0.787-0.753-1.735-1.585-2.723-2.044c-0.988-0.459-2.209-0.562-3.137,0.008c-0.928,0.571-1.373,1.933-0.737,2.818
				c-0.9-0.661-2.354-0.927-3.406-0.554c-1.052,0.374-1.894,1.292-2.175,2.372c-0.715-0.364-1.717-0.259-2.311,0.28
				c-0.594,0.539-0.808,1.456-0.514,2.203c-0.819-0.231-2.072,0.047-2.737,0.58c-0.664,0.533-1.049,1.396-1.001,2.246
				c-4.997-0.093-10.088,1.069-14.42,3.563c-4.332,2.494-8.173,5.742-11.987,8.972c-3.084,2.612-6.199,5.256-8.586,8.518
				c-2.386,3.262-4.009,7.252-3.693,11.281c1.821,23.182-17.818,42.484-30.115,62.22c-6.447,10.347-10.857,21.668-17.949,31.584
				c-1.126,1.575-2.332,3.287-2.288,5.222c0.057,2.532,2.191,4.463,4.154,6.063c0.089,21.827-1.05,43-2.99,64.741
				c-1.559,17.47-11.893,33.125-12.445,50.656c-0.06,1.906-2.573,2.325-3.163,4.138c-0.238,0.732-0.167,1.524-0.094,2.29
				c0.347,3.619,0.694,7.237,1.041,10.856c-1.623,0.943-2.698,2.956-3.084,4.793c-0.386,1.837-0.253,3.738-0.117,5.61
				c0.233,3.236,0.467,6.471,0.701,9.707c-8.58,15.527-16.4,31.684-24.979,47.211C190.871,472.079,182.863,498.115,184.572,500z"/>
			<path style="fill:#263238;" d="M373.449,343.397c-1.456,0.195-3.875-0.966-5.154-0.102c-1.348,0.91-1.272,3.898-2.302,5.22
				c-1.394-0.528-2.871-0.939-4.361-0.77c0.276,4.858-1.449,3.437-4.175,4.993c-1.791,1.022-4.701,3.06-2.833,4.995
				c-0.686,0.05-2.883,0.083-3.391,0.469c-1.454,1.102-1.113,2.941-1.902,3.739c-0.696,0.704-8.521,4.542-1.805,5.288
				c-1.687,0.492-3.343,3.577-1.821,4.65c-0.361,0.556-0.405,1.474-0.721,2.105c1.797,1.17,2.858,3.9,1.397,5.793
				c3.739,1.296,5.16-0.051,5.401,4.55c0.067,1.273-0.849,2.897-0.152,4.172c0.54,0.989,2.289,0.857,2.903,1.82
				c0.655,1.027,0.107,2.629,0.731,3.473c0.668,0.903,1.677,0.821,2.188,1.406c1.245,1.427,2.181,3.778,5.076,3.278
				c0.31,2.018-0.636,4.545,1.687,5.372c1.581,0.563,3.138-2.16,5.173-0.134c0.629,0.627,0.764,2.828,0.904,3.715
				c1.765-1.951,2.013-5.65,5.277-2.15c-0.741-3.051,0.909-3.94,3.596-2.829c-0.324,0.635-0.302,2.128-0.633,2.769
				c1.682,0.349,3.421-0.696,2.957-2.417c1.572,0.086,2.929,1.49,3.893,2.477c0.601-0.831,1.58-1.827,2.018-2.792
				c0.742,0.92,1.14,0.482,1.842,0.94c0.097-0.433,0.047-0.899,0.082-1.34c1.153,0.054,4.394-6.831,4.684-2.573
				c1.213-1.123,1.879-3.118,1.413-4.686c1.14-0.453,1.988-0.114,2.876,0.999c1.135-1.523,1.162-3.632,0.793-5.327
				c4.474-0.238,3.233-4.124,4.632-6.758c0.754-1.419,2.415-0.911,2.486-3.291c0.053-1.79-0.607-3.103-2.478-2.932
				c-1.96-3.979,0.069-3.2,0.995-7.085c-0.874,0.105-2.013-0.279-2.88-0.103c1.68-1.736,5.672-5.956,1.131-7.129
				c-0.046-3.548,3.441-6.411-1.771-8.29c-0.07,0.705-0.696,1.528-0.759,2.161c-1.399-0.93-2.189-2.8-3.552-3.971
				c-0.596-0.512-0.332-1.452-1.215-1.742c-0.994-0.327-1.901,1.073-2.592,0.849c-3.13-1.011-2.337-5.574-6.57-4.147
				c0.333-4.116-3.255-1.868-5.172-2.149C380.227,345.75,376.504,344.187,373.449,343.397z"/>
			<path style="fill:#263238;" d="M432.592,203.149c-0.318-2.157-0.992-4.23-1.742-6.271c-1.618-4.408-3.692-8.967-2.772-13.775
				c0.163-0.852-1.046-1.122-1.301-0.305c-1.313,4.218,0.26,8.53,1.747,12.482c1.576,4.191,3.231,8.469,2.406,13.021
				c-0.42,2.315-1.335,4.507-2.5,6.543c-1.199,2.093-2.755,3.909-4.118,5.889c-1.194,1.736-2.351,3.826-2.189,6.008
				c0.09,1.207,0.638,2.092,1.177,3.139c0.211,0.411,0.403,0.872,0.298,1.336c-0.099,0.441-0.351,0.853-0.626,1.207
				c-0.677,0.871-1.549,1.567-2.245,2.421c-0.661,0.812-1.122,1.766-1.346,2.789c-0.458,2.094,0.007,4.349,1.348,6.032
				c0.122,0.154,0.385,0.001,0.266-0.165c-1.218-1.687-1.498-3.9-0.841-5.867c0.325-0.972,0.873-1.818,1.599-2.536
				c0.682-0.675,1.438-1.276,2.069-2.002c0.559-0.644,0.955-1.344,1.077-2.196c0.175-1.227-0.586-2.035-0.983-3.118
				c-0.759-2.068,0.353-4.182,1.471-5.888c1.275-1.944,2.819-3.687,4.034-5.675c1.201-1.965,2.18-4.091,2.764-6.324
				C432.76,207.693,432.924,205.404,432.592,203.149z"/>
			<path style="fill:#263238;" d="M433.116,192.089c-1.494-5.38-0.907-11.177,1.411-16.242c0.357-0.78-0.782-1.402-1.188-0.628
				c-2.302,4.386-3.082,9.447-2.333,14.34c0.376,2.459,1.185,4.795,2.022,7.13c0.827,2.308,1.693,4.665,1.828,7.136
				c0.136,2.506-0.569,4.898-1.678,7.124c-1.114,2.236-2.685,4.185-3.85,6.383c-0.55,1.037-0.978,2.195-0.949,3.386
				c0.03,1.248,0.652,2.272,1.042,3.421c0.547,1.612,0.202,3.17-0.551,4.651c-1.637,3.215-4.928,6.215-4.527,10.119
				c0.026,0.247,0.398,0.244,0.391-0.01c-0.096-3.508,2.88-6.187,4.649-8.921c0.853-1.319,1.546-2.784,1.596-4.381
				c0.031-1.007-0.294-1.914-0.677-2.83c-0.506-1.21-0.741-2.286-0.313-3.566c0.387-1.154,1.11-2.185,1.782-3.186
				c0.671-1,1.326-2.014,1.923-3.06c1.203-2.109,2.2-4.402,2.496-6.831C436.79,201.186,434.399,196.707,433.116,192.089z"/>
			<path style="fill:#263238;" d="M427.871,199.574c-0.227-1.344-0.625-2.65-1.181-3.895c-0.549-1.23-1.306-2.59-2.352-3.464
				c-0.384-0.321-0.87,0.112-0.657,0.542c0.552,1.116,1.243,2.143,1.737,3.297c0.477,1.115,0.828,2.279,1.064,3.468
				c0.48,2.413,0.401,4.947-0.197,7.332c-0.592,2.361-1.716,4.592-3.327,6.422c-1.655,1.881-3.776,3.534-4.616,5.984
				c-1.125,3.283,0.799,6.451,2.545,9.105c0.235,0.357,0.783,0.019,0.564-0.35c-1.504-2.539-3.264-5.727-1.927-8.702
				c1.063-2.367,3.351-3.889,4.948-5.861C427.59,209.602,428.688,204.413,427.871,199.574z"/>
			<path style="fill:#263238;" d="M435.923,176.769c0.097-1.996,0.389-3.989,0.65-5.968c0.049-0.374-0.435-0.48-0.563-0.132
				c-1.164,3.156-1.186,6.69-1.092,10.021c0.097,3.425,0.456,6.834,0.621,10.255c0.28,5.787,0.094,12.05-2.956,17.163
				c-1.858,3.114-4.709,5.39-7.523,7.597c-0.238,0.187,0.007,0.593,0.251,0.405c2.514-1.935,5.078-3.909,6.959-6.499
				c1.683-2.317,2.76-5.024,3.416-7.8c1.488-6.295,0.594-12.762,0.283-19.131C435.874,180.714,435.827,178.739,435.923,176.769z"/>
			<path style="fill:#263238;" d="M441.762,175.035c-0.385-2.471-1.321-5.074-2.686-7.173c-0.22-0.339-0.779-0.106-0.657,0.294
				c0.625,2.056,1.655,3.949,2.202,6.039c0.545,2.082,0.605,4.255-0.121,6.302c-0.654,1.844-1.837,3.474-3.083,4.961
				c-1.371,1.635-2.856,3.176-4.301,4.745c-1.775,1.927-3.528,3.873-5.286,5.815c-0.226,0.249,0.152,0.601,0.384,0.356
				c3.242-3.417,6.602-6.768,9.661-10.352c1.287-1.508,2.472-3.136,3.221-4.984C441.878,179.111,442.082,177.089,441.762,175.035z"
				/>
			<path style="fill:#263238;" d="M449.997,160.363c-0.795-2.283-1.888-4.711-3.452-6.576c-0.195-0.233-0.582,0.04-0.493,0.306
				c0.638,1.908,1.788,3.631,2.557,5.488c0.778,1.878,1.324,3.861,1.355,5.904c0.057,3.705-1.831,6.819-4.972,8.713
				c-1.631,0.983-3.473,1.632-5.338,1.999c-0.396,0.078-0.293,0.754,0.111,0.704c3.501-0.428,6.992-2.047,9.145-4.922
				C451.44,168.6,451.334,164.2,449.997,160.363z"/>
			<path style="fill:#263238;" d="M445.975,142.682c2.332,16.386,7.224,32.562,10.152,48.91
				c4.965,27.717,9.824,56.038,16.478,83.443c7.911,32.583,18.85,64.8,32.939,94.943c2.769,5.923,6.656,15.581,11.81,19.788
				c-7.037-0.956-17.074-7.607-23.087-11.308c-8.296-5.106-17.041-9.491-25.097-15.035c-9.68-6.662-19.155-13.964-28.138-20.878
				c-5.087-28.043-4.393-57.975-4.393-86.353c0-19.044,2.761-37.806,2.745-56.748c-0.011-12.929,0.549-25.861,0.549-38.849
				C439.936,154.792,446.738,147.321,445.975,142.682z"/>
		</g>
		<g>
			<path style="fill:#EFEBE9;" d="M450.74,167.699c1.056,10.157,2.168,20.305,3.469,30.426c1.303,10.121,2.725,20.227,4.419,30.289
				c1.615,10.075,3.495,20.105,5.487,30.114c0.994,5.005,2.035,10.001,3.106,14.991l1.608,7.486l1.647,7.479
				c-1.305-4.937-2.523-9.895-3.734-14.857c-1.169-4.971-2.295-9.953-3.381-14.943c-2.15-9.987-4.024-20.033-5.719-30.108
				c-1.613-10.089-3.052-20.207-4.193-30.359C452.305,188.066,451.385,177.891,450.74,167.699z"/>
		</g>
		<g>
			<path style="fill:#EFEBE9;" d="M450.74,168.266c0.59,6.331,1.132,12.667,1.626,19.007l1.332,19.029
				c0.859,12.687,1.63,25.378,2.626,38.05c0.924,12.677,2.057,25.339,3.515,37.962c0.725,6.312,1.563,12.611,2.549,18.888
				c0.44,3.147,1.059,6.264,1.58,9.4c0.57,3.126,1.276,6.225,1.908,9.342c-0.711-3.097-1.497-6.181-2.148-9.294
				c-0.601-3.122-1.301-6.229-1.822-9.367c-1.087-6.269-2.011-12.566-2.83-18.875c-1.619-12.623-2.745-25.3-3.747-37.98
				c-0.913-12.688-1.699-25.382-2.394-38.079l-1.053-19.044C451.549,180.957,451.168,174.611,450.74,168.266z"/>
		</g>
		<g>
			<path style="fill:#EFEBE9;" d="M287.501,166.657c-1.592,6.392-3.289,12.755-5.002,19.113c-1.711,6.359-3.509,12.693-5.259,19.04
				c-0.883,3.162-1.874,6.334-2.671,9.484c-0.371,1.578-0.624,3.18-0.557,4.769c0.063,1.587,0.495,3.138,1.198,4.572
				c1.441,2.871,3.907,5.169,6.707,6.813c2.791,1.706,5.91,2.826,8.981,4.001c-3.145-0.962-6.299-1.986-9.225-3.576
				c-2.905-1.592-5.532-3.888-7.146-6.885c-0.796-1.492-1.307-3.174-1.378-4.882c-0.087-1.706,0.168-3.39,0.534-5.015
				c0.79-3.24,1.734-6.366,2.596-9.552c1.831-6.325,3.613-12.663,5.483-18.977C283.629,179.247,285.512,172.937,287.501,166.657z"/>
		</g>
		<g>
			<path style="fill:#EFEBE9;" d="M357.133,148.954c-1.295-0.719-2.452-1.595-3.566-2.518l0.745-0.135
				c-0.482,0.965-0.992,1.915-1.559,2.835c-0.574,0.916-1.169,1.821-1.894,2.658c0.284-1.07,0.698-2.071,1.133-3.061
				c0.442-0.986,0.941-1.942,1.469-2.883l0.308-0.549l0.437,0.414C355.255,146.711,356.263,147.754,357.133,148.954z"/>
		</g>
		<g>
			<path style="fill:#EFEBE9;" d="M418.523,126.294c-1.698,2.91-3.014,6.009-3.83,9.236c-0.8,3.225-1.195,6.551-1.041,9.861
				c0.046,1.656,0.246,3.306,0.571,4.929c0.27,1.623,0.841,3.249,0.92,5.008c0.046,0.87-0.04,1.778-0.301,2.612
				c-0.249,0.833-0.59,1.601-0.811,2.388c-0.249,0.781-0.322,1.593-0.063,2.375c0.241,0.756,0.813,1.497,1.677,1.611
				c-0.421-0.007-0.847-0.172-1.178-0.456c-0.328-0.288-0.575-0.661-0.747-1.062c-0.356-0.803-0.355-1.749-0.164-2.587
				c0.183-0.848,0.491-1.641,0.677-2.434c0.198-0.787,0.228-1.584,0.144-2.389c-0.177-1.609-0.734-3.195-1.081-4.876
				c-0.363-1.669-0.578-3.372-0.642-5.08c-0.134-3.414,0.303-6.851,1.302-10.107c0.514-1.623,1.124-3.214,1.88-4.734
				C416.626,129.089,417.497,127.633,418.523,126.294z"/>
		</g>
		<g>
			<path style="fill:#EFEBE9;" d="M211.453,434.927c3.445-9.909,7.441-19.63,11.877-29.147c4.434-9.519,9.372-18.801,14.667-27.87
				c5.366-9.028,11.096-17.843,17.273-26.335l4.71-6.31l4.85-6.202l5.018-6.064l5.167-5.935l-4.962,6.103l-4.838,6.198l-4.73,6.278
				l-4.589,6.379c-6.033,8.565-11.753,17.35-17.037,26.394c-5.354,9.003-10.264,18.265-14.836,27.691
				C219.451,415.538,215.285,425.163,211.453,434.927z"/>
		</g>
		<g>
			<path style="fill:#EFEBE9;" d="M235.853,259.869c2.681,2.316,5.458,4.497,8.372,6.471c2.92,1.965,5.94,3.773,9.08,5.35
				c3.129,1.599,6.373,2.966,9.684,4.158l2.501,0.849l2.533,0.756l2.554,0.701c0.861,0.196,1.72,0.405,2.58,0.622
				c-0.878-0.111-1.757-0.231-2.634-0.363l-2.619-0.484l-2.591-0.625l-2.567-0.725c-3.406-1.033-6.712-2.396-9.894-3.996
				c-3.172-1.621-6.225-3.481-9.072-5.618C240.929,264.837,238.248,262.483,235.853,259.869z"/>
		</g>
		<g>
			<path style="fill:#EFEBE9;" d="M335.723,356.747c3.21,5.577,6.679,10.992,10.462,16.176c3.784,5.181,7.824,10.176,12.225,14.839
				c4.342,4.717,9.034,9.105,13.996,13.166l3.778,2.977l3.9,2.819l4.001,2.683l4.115,2.516c-1.42-0.754-2.842-1.509-4.252-2.289
				l-4.136-2.502l-4.001-2.717l-3.885-2.885c-5.096-3.963-9.82-8.392-14.248-13.087c-4.369-4.751-8.448-9.772-12.118-15.076
				C341.89,368.064,338.57,362.52,335.723,356.747z"/>
		</g>
		<g>
			<path style="fill:#EFEBE9;" d="M333.042,349.762l4.887,12.019l5.492,11.748l6.029,11.476l6.587,11.161
				c9.139,14.664,19.642,28.477,31.402,41.13c11.701,12.707,24.653,24.256,38.563,34.506l10.614,7.436l10.972,6.903l11.285,6.39
				l11.602,5.808l-11.715-5.591l-11.42-6.185l-11.071-6.797l-10.721-7.343c-14.047-10.153-27.043-21.75-38.843-34.449
				c-11.74-12.753-22.294-26.61-31.321-41.406l-6.487-11.26l-5.915-11.566l-5.278-11.866L333.042,349.762z"/>
		</g>
	</g>
</g>
</svg>
