<?xml version="1.0" encoding="utf-8"?>
<!-- Generator: Adobe Illustrator 27.5.0, SVG Export Plug-In . SVG Version: 6.00 Build 0)  -->
<svg version="1.1" xmlns="http://www.w3.org/2000/svg" xmlns:xlink="http://www.w3.org/1999/xlink" x="0px" y="0px"
	 viewBox="0 0 500 500" style="enable-background:new 0 0 500 500;" xml:space="preserve">
<g id="BACKGROUND">
	<rect style="fill:#FFC9BD;" width="500" height="500"/>
</g>
<g id="OBJECTS">
	<circle style="fill:#FFE4DE;" cx="253.104" cy="205.686" r="149.459"/>
	<g>
		<path style="fill:#798993;" d="M240.57,175.55c-0.68,15.37-5.8,30.74-15.71,42.5c-5.51,6.54-12.36,11.86-17.65,18.58
			c-4.61,5.86-7.99,13.35-7.18,20.61c-6.44,3.58-11.3,9.77-13.62,16.77c-11.03-1.85-20.49-9.97-25.59-19.96
			c-5.26-10.31-6.34-22.34-5.08-33.84c0.55-5.01,1.52-9.96,2.72-14.85c0,0,17.51-68.28,72.41-69.13c1-0.11,1.99-0.21,2.98-0.3
			C238.5,148.61,241.17,162.08,240.57,175.55z"/>
		<rect x="203.067" y="270.423" style="fill:#DBDBDB;" width="103.505" height="187.475"/>
		<path style="fill:#798993;" d="M362.788,359.551c-4.441,38.104-21.127,63.954-37.982,80.818
			c8.056,1.089,33.174,7.277,21.362,41.804h-53.099c-12.704,0-22.395-11.456-20.179-23.963c1.502-8.507,4.808-17.371,11.681-23.024
			c8.77-7.211,19.287-46.527,17.747-82.537c-1.408-33.09-12.977-63.381-45.419-63.381v-0.084
			c-20.705,0.291-32.78,13.089-39.071,31.015c-14.047,39.944,0.554,105.373,12.132,114.894c6.873,5.643,10.179,14.507,11.69,23.024
			c2.207,12.507-7.484,23.963-20.188,23.963h-53.109c-11.803-34.526,13.305-40.714,21.371-41.804
			c-19.606-19.615-38.987-51.391-39.118-100.462c-0.075-27.212,7.634-47.456,18.864-62.499c29.822-39.954,84.49-43.306,84.49-43.306
			l6.61,0.094c0,0,103.617,6.357,103.354,105.805C363.905,346.79,363.511,353.335,362.788,359.551z"/>
		<path style="fill:#BDC4C9;" d="M289.652,307.282c-3.14,7.81-10.89,12-18.47,14.6c-8.45,2.9-17.55,3.8-26.44,3.25
			c-8.33-0.53-16.91-2.05-22.77-8.5c-5.35-5.89-7.84-14.22-6.73-22.08c0.85-5.98,4.1-11.16,8.48-15.15
			c0.01-0.01,0.01-0.01,0.02-0.02c1.37-1.49,2.81-2.92,4.34-4.26c6.01-5.26,13.23-9.3,21.1-10.92c7.61-1.57,15.63-0.77,22.7,2.51
			c7.35,3.41,12.67,9.58,15.86,16.94C290.892,290.922,292.712,299.672,289.652,307.282z"/>
		<path style="fill:#FFAF97;" d="M275.212,317.569c-1.72,4.11-6.03,6.69-10.42,7.45c-7.71,1.32-15.78-2.4-20.71-8.48
			c-0.14-0.18-0.28-0.37-0.42-0.55c-4.66-6.13-6.39-14.14-5.77-21.84c4.25-3.18,8.13-6.87,11.85-10.66h0.19
			c5.81,4.73,11.9,9.23,18.74,12.28c1.02,0.45,2.05,0.87,3.1,1.25c0.8,3.23,2.2,6.3,3.19,9.47c0.55,1.77,0.97,3.63,1.09,5.47
			C276.172,313.879,275.962,315.789,275.212,317.569z"/>
		<path style="fill:#272F33;" d="M257.152,307.414c-3.298-6.722-5.408-13.996-6.202-21.442c-0.135-1.267-2.136-1.28-2,0
			c0.833,7.819,3.01,15.391,6.475,22.452C255.992,309.579,257.718,308.566,257.152,307.414z"/>
		<path style="fill:#DBDBDB;" d="M314.956,280.496c-0.77,12.8-11.01,24.42-23.62,26.79c-0.02,0-0.03,0.01-0.05,0.01
			c-6.27,1.17-12.77,0.22-18.8-1.98c-1.05-0.38-2.08-0.8-3.1-1.25c-6.84-3.05-12.93-7.55-18.74-12.28h-0.19
			c-3.72,3.79-7.6,7.48-11.85,10.66c-1.75,1.3-3.55,2.52-5.43,3.62c-6.46,3.79-13.93,6.17-21.41,5.62h-0.04
			c-12.78-0.96-24.25-11.38-26.44-24.02c-0.79-4.57-0.33-9.27,1.12-13.66c2.32-7,7.18-13.19,13.62-16.77
			c-0.81-7.26,2.57-14.75,7.18-20.61c5.29-6.72,12.14-12.04,17.65-18.58c9.91-11.76,15.03-27.13,15.71-42.5
			c0.6-13.47-2.07-26.94-6.72-39.62c2.75-0.25,5.5-0.41,8.25-0.49c0.01,0,0.01,0,0.01,0c2.62-0.21,5.23-0.34,7.86-0.4
			c-3.24,13.13-4.4,26.8-2.32,40.13c2.37,15.19,9.16,29.91,20.3,40.5c6.2,5.89,13.6,10.43,19.59,16.52
			c5.23,5.31,9.42,12.39,9.42,19.7c6.79,2.84,12.31,8.46,15.38,15.16C314.266,271.246,315.236,275.866,314.956,280.496z"/>
		<path style="fill:#798993;" d="M326.206,180.276c4.26,9.73,8.38,19.57,10.68,29.92c2.52,11.29,2.78,23.36-1.32,34.18
			c-3.97,10.5-12.47,19.62-23.23,22.67c-3.07-6.7-8.59-12.32-15.38-15.16c0-7.31-4.19-14.39-9.42-19.7
			c-5.99-6.09-13.39-10.63-19.59-16.52c-11.14-10.59-17.93-25.31-20.3-40.5c-2.08-13.33-0.92-27,2.32-40.13
			c4.05-0.08,8.1,0.01,12.13,0.27c3.78-15.19,8.32-30.2,13.61-44.93c4.96-13.81,10.73-27.65,20.36-38.71
			c3.4-3.9,8.24-7.69,13.24-6.38c3.51,0.91,5.92,4.12,7.58,7.35c8.36,16.29,4.35,36.56,11.51,53.41
			c3.47,8.16,9.49,15.31,11.28,23.99c1.35,6.53,0.08,13.57-3.48,19.21c-0.88,1.4-1.93,2.88-1.74,4.52c0.18,1.5,1.35,2.65,2.28,3.83
			c1.87,2.37,2.86,5.38,2.92,8.4c0.06,2.61-0.57,5.24-1.92,7.49C335.356,177.476,330.826,180.046,326.206,180.276z"/>
		<path style="fill:#FFAF97;" d="M326.496,154.726c-1.87,4.21-4.6,8.02-6.64,12.15c-6.54-10.15-16.23-18.25-27.38-22.9
			c0.16-10.55,1.94-21.08,5.25-31.1c1.38-4.16,3.31-8.58,7.21-10.6c4.51-2.33,10.41-0.42,13.67,3.48c3.26,3.9,4.22,9.3,3.86,14.37
			c-0.36,4.84-1.73,10.08,0.67,14.3c0.96,1.69,2.44,3.03,3.5,4.66C329.586,143.646,328.706,149.756,326.496,154.726z"/>
		<path style="fill:#272F33;" d="M269.836,264.906c-1.74,0.9-4.06,1.02-5.48-0.32c-1.76-1.67-1.8-5.15-4.16-5.69
			c-2.09-0.48-3.68,2.1-3.54,4.23c0.14,2.13,1.23,4.14,1.25,6.28c0.01,2.16-1.18,4.29-3.02,5.42c-1.56,0.94-8.87,1.34-10.51,0.57
			c-1.96-0.91-3.38-2.9-3.6-5.05c-0.23-2.13,0.64-4.24,0.54-6.38c-0.1-2.13-1.96-4.52-3.98-3.82c-2.29,0.8-1.94,4.27-3.51,6.12
			c-1.26,1.49-3.59,1.63-5.41,0.93c-3.86-1.47-5.99-6.02-5.38-10.1c0.61-4.08,3.54-7.55,7.11-9.61c3.57-2.06,7.74-2.87,11.84-3.21
			c2.05-0.17,4.11-0.23,6.17-0.3h0.01c2.05-0.07,4.1-0.15,6.15-0.36h0.03c3.95-0.07,7.98,0.31,11.59,1.89
			c3.78,1.66,7.07,4.79,8.13,8.77C275.126,258.266,273.506,263.026,269.836,264.906z"/>
		<g>
			<path style="fill:#FFAF97;" d="M224.874,133.859c-0.106,0.78-0.23,1.551-0.372,2.331c-1.365,7.88-4.042,15.53-7.827,22.586
				c-3.785,7.056-8.696,13.509-14.52,18.996c-9.618,9.059-21.717,15.45-34.597,18.411c-2.384,0.55-4.804,0.975-7.242,1.285
				c-0.878,0.115-1.764,0.213-2.65,0.293c-0.904-3.794-1.817-7.588-2.739-11.373c-1.56-6.462-3.138-12.915-4.742-19.368
				c-1.294-5.194-2.597-10.398-3.918-15.592c-1.729-6.825-3.475-13.642-5.256-20.459c-1.303-5.026-2.624-10.043-3.953-15.06
				c-2.065-7.8-4.157-15.592-6.294-23.375c-1.666-6.152-3.368-12.295-5.079-18.429c3.147,1.888,6.302,3.785,9.449,5.673
				c5.23,3.138,10.451,6.276,15.672,9.414c3.555,2.136,7.109,4.272,10.664,6.409c5.061,3.04,10.123,6.081,15.184,9.121
				c3.75,2.252,7.49,4.503,11.231,6.755c5.159,3.094,10.309,6.187,15.468,9.29c2.987,1.799,5.983,3.59,8.971,5.389
				c4.042,2.429,8.084,4.858,12.126,7.286L224.874,133.859z"/>
			<path style="fill:#EA8B75;" d="M150.805,89.192c-2.881,9.493-7.783,18.446-13.748,26.717c-2.065-7.8-4.157-15.592-6.294-23.375
				c1.977-4.104,3.501-8.368,4.37-12.756C140.363,82.916,145.584,86.054,150.805,89.192z"/>
			<path style="fill:#EA8B75;" d="M176.653,104.722c-6.232,17.418-17.01,33.25-30.386,46.705
				c-1.729-6.825-3.475-13.642-5.256-20.459c8.971-10.548,16.31-22.48,20.459-35.368C166.53,98.641,171.591,101.682,176.653,104.722
				z"/>
			<path style="fill:#EA8B75;" d="M203.352,120.766c-3.563,9.44-8.066,18.526-13.695,27.071
				c-9.626,14.608-21.602,27.195-34.73,38.55c-1.56-6.462-3.138-12.915-4.742-19.368c9.059-8.492,17.338-17.782,24.164-28.135
				c5.682-8.616,10.123-17.826,13.536-27.408C193.043,114.57,198.193,117.664,203.352,120.766z"/>
			<path style="fill:#EA8B75;" d="M224.874,133.859c-0.106,0.78-0.23,1.551-0.372,2.331c-1.365,7.88-4.042,15.53-7.827,22.586
				c-3.785,7.056-8.696,13.509-14.52,18.996c-9.618,9.059-21.717,15.45-34.597,18.411c19.803-19.9,35.049-43.842,44.764-70.027
				c4.042,2.429,8.084,4.858,12.126,7.286L224.874,133.859z"/>
			<path style="fill:#EA8B75;" d="M140.177,72.102c-5.451,2.145-11.133-0.009-15.938-2.792c0.39,3.971,0.727,7.96,0.691,11.958
				c-0.027,2.118-0.16,4.237-0.443,6.347c-0.222,1.596-0.301,3.909-2.056,4.609c-3.617,1.454-3.847-6.072-3.953-8.066
				c-0.106-2.136-0.053-4.29,0.142-6.418c-0.824,1.702-1.737,3.36-2.783,4.937c-1.002,1.507-2.127,2.943-3.395,4.237
				c-1.197,1.214-2.633,2.562-4.397,2.783c-3.883,0.496-4.565-4.237-4.157-7.038c0.904-6.205,5.389-11.178,10.194-15.113
				c-3.422,0.727-6.879,1.33-10.371,1.507c-2.189,0.115-4.379,0.053-6.542-0.257c-1.4-0.204-2.819-0.576-3.989-1.401
				c-2.801-1.977-2.056-5.505,0.213-7.588c4.964-4.583,11.905-3.342,17.666-0.94c-1.853-3.156-3.67-6.356-5.07-9.724
				c-0.709-1.702-1.259-3.475-1.383-5.327c-0.106-1.516,0-3.439,1.179-4.547c2.305-2.181,5.797,0.39,7.597,1.968
				c4.92,4.317,7.136,10.637,7.978,16.957c1.977-2.535,4.007-5.026,6.267-7.322c2.633-2.677,5.593-5.106,8.944-6.825
				c1.241-0.638,2.907-1.276,4.113-0.222c1.33,1.17,0.736,3.147,0.186,4.556c-1.409,3.581-4.051,6.692-6.746,9.387
				c-1.941,1.932-4.069,3.67-6.32,5.212c2.659-0.186,5.336-0.248,7.995,0.097c2.535,0.328,6.338,0.869,7.756,3.333
				C145.149,69.177,142.517,71.18,140.177,72.102z"/>
		</g>
		
			<ellipse transform="matrix(0.0942 -0.9956 0.9956 0.0942 -33.5236 392.499)" style="fill:#272F33;" cx="198.928" cy="214.672" rx="13.344" ry="10.842"/>
		
			<ellipse transform="matrix(0.9648 -0.2629 0.2629 0.9648 -43.5717 82.2236)" style="fill:#272F33;" cx="285.422" cy="203.906" rx="10.842" ry="13.344"/>
		<path style="fill:#272F33;" d="M296.175,304.329c-7.968,3.47-17.154,3.128-25.211,0.135c-7.413-2.754-13.814-7.68-19.144-13.453
			c-0.137-4.457-0.531-8.898-1.171-13.312c-0.078-0.539-0.755-0.824-1.23-0.698c-0.575,0.152-0.776,0.698-0.698,1.23
			c0.586,4.037,0.931,8.104,1.076,12.18c-0.053,0.052-0.101,0.109-0.143,0.17c-8.825,13.127-24.694,20.831-40.456,19.781
			c-1.285-0.086-1.28,1.915,0,2c12.796,0.853,25.699-3.893,35.129-12.538c2.349-2.153,4.439-4.567,6.287-7.159
			c5.622,6.03,12.403,11.06,20.203,13.869c8.503,3.062,18.031,3.153,26.367-0.477C298.361,305.543,297.344,303.82,296.175,304.329z"
			/>
		<path style="fill:#272F33;" d="M200.318,276.739c-1.93,0-1.934,3,0,3C202.248,279.739,202.251,276.739,200.318,276.739z"/>
		<path style="fill:#272F33;" d="M213.754,270.994c-1.93,0-1.934,3,0,3C215.685,273.994,215.688,270.994,213.754,270.994z"/>
		<path style="fill:#272F33;" d="M211.808,288.23c-1.93,0-1.934,3,0,3C213.739,291.23,213.742,288.23,211.808,288.23z"/>
		<path style="fill:#272F33;" d="M228.673,279.797c-1.93,0-1.934,3,0,3C230.603,282.797,230.607,279.797,228.673,279.797z"/>
		<path style="fill:#272F33;" d="M224.874,296.569c-1.93,0-1.934,3,0,3C226.804,299.569,226.807,296.569,224.874,296.569z"/>
		<path style="fill:#272F33;" d="M198.65,293.975c-1.93,0-1.934,3,0,3C200.58,296.975,200.583,293.975,198.65,293.975z"/>
		<path style="fill:#272F33;" d="M270.928,273.033c-1.93,0-1.934,3,0,3C272.858,276.033,272.862,273.033,270.928,273.033z"/>
		<path style="fill:#272F33;" d="M286.959,264.878c-1.93,0-1.934,3,0,3C288.889,267.878,288.892,264.878,286.959,264.878z"/>
		<path style="fill:#272F33;" d="M288.256,280.446c-1.93,0-1.934,3,0,3C290.186,283.446,290.19,280.446,288.256,280.446z"/>
		<path style="fill:#272F33;" d="M274.634,289.99c-1.93,0-1.934,3,0,3C276.565,292.99,276.568,289.99,274.634,289.99z"/>
		<path style="fill:#272F33;" d="M303.731,273.311c-1.93,0-1.934,3,0,3C305.661,276.311,305.665,273.311,303.731,273.311z"/>
		<path style="fill:#272F33;" d="M296.318,290.361c-1.93,0-1.934,3,0,3C298.248,293.361,298.251,290.361,296.318,290.361z"/>
		<path style="fill:#272F33;" d="M336.072,206.216c-4.935-16.375-11.015-32.493-21.857-45.949c-2.965-3.68-6.218-7.117-9.71-10.301
			c-0.949-0.866-2.368,0.545-1.414,1.414c6.011,5.482,11.292,11.725,15.638,18.605c4.566,7.229,8.052,15.075,10.953,23.102
			c1.629,4.506,3.08,9.073,4.462,13.66C334.514,207.977,336.445,207.453,336.072,206.216z"/>
		<ellipse style="fill:#DBDBDB;" cx="193.785" cy="211.081" rx="3.475" ry="4.656"/>
		<ellipse style="fill:#DBDBDB;" cx="280.704" cy="202.417" rx="3.475" ry="4.656"/>
	</g>
	<g>
		<g>
			<path style="fill:#FFAF97;" d="M341.283,403.122l-2.139,64.03c-0.292,8.84-5.029,15.78-10.765,15.78H195.335
				c-5.729,0-10.454-6.91-10.765-15.74l-2.255-64.02c-0.337-9.53,4.582-17.54,10.765-17.54h137.432
				C336.681,385.632,341.594,393.612,341.283,403.122z"/>
			<path style="fill:#FFE4DE;" d="M341.957,402.552c-1.374,1.5-3.072,2.3-4.757,2.37c-1.756,0.08-3.227-0.76-4.744-2.05
				c-0.68-0.58-1.199-0.66-1.756,0.29c-0.331,0.55-0.544,1.27-0.719,1.96c-0.408,1.53-0.642,3.16-0.881,4.77
				c-0.467,3.05-0.972,6.06-2.353,8.46c-1.147,2.01-2.832,3.38-4.595,2.82c-1.549-0.48-2.67-2.35-3.312-4.5
				c-0.713-2.39-0.901-4.93-1.037-7.53c-0.143-2.71-0.285-5.87-1.465-8.05c-2.625-4.85-7.557-0.26-10.648,0.82
				c-1.925,0.68-4.18,0-5.936,1.55c-1.329,1.17-2.223,3.22-3.085,5.11c-0.862,1.87-1.724,3.81-2.916,5.22
				c-1.568,1.85-3.37,1.93-5.262,2.11c-1.938,0.18-3.331,1.36-4.77,3.29c-1.16,1.56-2.229,3.32-3.526,4.62
				c-2.236,2.24-5.042,1.75-6.559-1.78c-1.4-3.25-1.523-7.48-2.229-11.13c-0.331-1.71-0.778-3.52-1.678-4.71
				c-1.4-1.86-3.331-1.2-5.023-1.06c-1.879,0.15-3.435-0.64-4.776-2.71c-1.283-1.98-2.301-4.69-4.232-5.2
				c-2.197-0.57-4.323,1.36-6.098,3.09c-1.717,1.67-3.467,3.48-5.509,3.98c-1.063,0.26-2.132,0.07-3.195,0.22
				c-1.056,0.16-1.75,0.94-2.566,1.9c-0.687,0.81-1.432,1.52-2.327,1.49c-0.765-0.02-1.458-0.58-2.113-1.13
				c-0.81-0.69-1.737-1.71-2.612-0.63c-0.596,0.73-0.972,1.95-1.218,3.03c-0.525,2.27-0.629,4.7-0.823,7.07
				c-0.356,4.26-1.257,9.3-4.543,9.84c-3.876,0.64-6.299-5.12-6.377-10.45c-0.026-1.6,0.11-3.2,0.343-4.75
				c0.246-1.68,0.642-3.32,0.732-5.04c0.149-2.91-0.914-5.89-3.033-4.87c-1.594,0.77-2.975,2.56-4.731,2.27
				c-1.653-0.27-2.819-2.19-4.206-3.36c-2.897-2.44-4.465,3.47-6.526,5.46c-1.154,1.12-2.482,1.01-3.571-0.26
				c-1.361-1.58-2.391-4.75-4.323-2.6c-1.782,1.98-2.152,5.97-2.372,9.08c-0.207,2.99-0.305,6.06-1.03,8.89
				c-0.441,1.73-1.115,3.33-2.054,4.45c-0.019,0.18-0.084,0.37-0.214,0.52c-1.348,1.61-3.117,1.83-4.653,0.67
				c-1.782-1.34-2.359-4.14-2.314-7.04c0.032-1.74,0.201-3.46,0.091-5.19c-0.11-1.66-0.421-3.28-0.804-4.83
				c-0.791-3.23-1.97-6.2-2.858-9.37c-1.4-4.98-2.061-11.28,0.428-15.77c1.238-2.23,3.065-3.12,4.899-3.41
				c2.145-0.36,4.355-0.14,6.507-0.13c1.121,0,2.242,0.01,3.364,0.01c2.975-0.64,5.975-1.06,8.982-1.07
				c4.776-0.02,9.52,0.89,14.245,1.89c4.822,1.02,9.643,2.16,14.504,2.54c4.867,0.39,9.695-0.24,14.517-1.28
				c4.718-1.03,9.417-2.32,14.161-3.02c4.822-0.71,9.618-0.54,14.433,0.24c4.815,0.77,9.592,1.99,14.407,2.8
				c4.848,0.82,9.695,1.04,14.569,0.64c9.792-0.81,19.455-3.61,29.235-4.72c3.772-0.42,8.432-1.13,11.516,3.03
				c1.069,1.44,1.828,3.54,2.1,5.73c0.136,0.49,0.253,1,0.35,1.53C345.91,393.782,344.795,399.452,341.957,402.552z"/>
			<path style="fill:#FFE4DE;" d="M342.832,449.752c-1.931,3.16-4.984,2.38-7.375,1.31c-1.465-0.65-2.897-1.27-4.426-1.27
				c-1.432-0.01-2.839,0.39-4.213,0.97c-2.806,1.19-5.45,3.08-8.218,4.44c-2.774,1.37-5.561,2-8.457,1.33
				c-6.073-1.4-11.588-7.07-17.894-4.81c-2.903,1.04-5.599,3.1-8.38,4.69c-2.884,1.66-5.813,2.57-8.898,2.1
				c-3.117-0.47-6.111-1.91-9.144-3.03c-3.182-1.17-6.332-1.71-9.585-0.9c-6.092,1.52-11.827,6.08-18.094,6.01
				c-3.24-0.03-6.312-1.62-9.41-2.91c-3.202-1.33-6.286-1.82-9.553-0.8c-5.852,1.84-11.419,6.43-17.537,4.67
				c-3.007-0.86-5.852-2.9-8.905-3.43c-1.504-0.26-3.033-0.08-4.42,0.92c-1.244,0.91-2.43,2.29-3.85,2.42
				c-2.34,0.21-3.733-3.25-3.526-6.55c0.246-3.95,2.625-6.25,4.945-7.02c3.104-1.04,6.364-0.14,9.456,0.6
				c3.383,0.81,6.643,1.26,10.026,0.23c3.182-0.98,6.248-2.68,9.423-3.69c3.208-1.02,6.319-0.98,9.533-0.01
				c3.292,0.99,6.526,2.62,9.896,2.82c3.377,0.21,6.701-0.85,9.967-2.03c3.221-1.15,6.442-2.43,9.741-2.88
				c3.461-0.47,6.922,0.12,10.343,0.8c3.435,0.69,6.883,1.48,10.356,1.38c3.364-0.1,6.591-1.35,9.812-2.75
				c3.137-1.37,6.286-2.81,9.553-3.22c3.227-0.41,6.455,0.4,9.611,1.41c3.182,1.02,6.351,2.3,9.605,2.66
				c3.383,0.38,6.526-0.6,9.669-2.48c5.612-3.36,11.827-8.58,17.835-4.13c0.415,0.3,0.395,0.95,0.175,1.39
				c0.259,0.28,0.512,0.57,0.752,0.9C343.571,441.492,344.834,446.472,342.832,449.752z"/>
			<path style="fill:#272F33;" d="M190.069,432.638c-1.93,0-1.934,3,0,3C191.999,435.638,192.003,432.638,190.069,432.638z"/>
			<path style="fill:#272F33;" d="M197.297,419.572c-1.93,0-1.934,3,0,3C199.227,422.572,199.23,419.572,197.297,419.572z"/>
			<path style="fill:#272F33;" d="M203.691,431.526c-1.93,0-1.934,3,0,3C205.621,434.526,205.624,431.526,203.691,431.526z"/>
			<path style="fill:#272F33;" d="M294.878,429.88c-1.93,0-1.934,3,0,3C296.808,432.88,296.812,429.88,294.878,429.88z"/>
			<path style="fill:#272F33;" d="M298.77,414.591c-1.93,0-1.934,3,0,3C300.7,417.591,300.703,414.591,298.77,414.591z"/>
			<path style="fill:#272F33;" d="M286.538,422.375c-1.93,0-1.934,3,0,3C288.469,425.375,288.472,422.375,286.538,422.375z"/>
			<path style="fill:#272F33;" d="M320.731,460.181c-1.93,0-1.934,3,0,3C322.662,463.181,322.665,460.181,320.731,460.181z"/>
			<path style="fill:#272F33;" d="M310.445,470.467c-1.93,0-1.934,3,0,3C312.376,473.467,312.379,470.467,310.445,470.467z"/>
			<path style="fill:#272F33;" d="M326.569,473.525c-1.93,0-1.934,3,0,3C328.499,476.525,328.503,473.525,326.569,473.525z"/>
			<path style="fill:#272F33;" d="M331.851,461.571c-1.93,0-1.934,3,0,3C333.781,464.571,333.784,461.571,331.851,461.571z"/>
		</g>
		<g>
			<path style="fill:#EA8B75;" d="M219.719,386.035c-8.02,1.94-16.53-0.67-16.53-0.67l-1.1-4.21l-0.76-2.9h-0.01v-0.01l-2.26-8.65
				l-0.77-2.92l-2.34-8.93l-0.76-2.9l-1.29-4.92c-1.26-4.81,2.04-9.61,6.98-10.17l8.07-0.92c2.8-0.32,5.41,0.82,7.1,2.79
				c0.69,0.79,1.23,1.72,1.56,2.75c0.24,0.7,0.38,1.44,0.41,2.22l0.3,7.06l0.17,3.87l0.41,9.46l0.18,4.14L219.719,386.035z"/>
			<path style="fill:#FFC9BD;" d="M217.609,344.375c-5.81,6.16-13.7,10.21-21.66,13.37l-0.76-2.9c7.73-3.09,15.39-7.06,20.86-13.22
				C216.739,342.415,217.279,343.345,217.609,344.375z"/>
			<path style="fill:#FFC9BD;" d="M218.489,357.525c-2.02,1.78-4.15,3.44-6.35,4.99c-3.88,2.73-8.33,5.76-13.08,7.08l-0.77-2.92
				c1.82-0.54,3.56-1.39,5.24-2.31c2.57-1.42,5.06-2.98,7.45-4.69c2.58-1.84,5.03-3.85,7.34-6.02L218.489,357.525z"/>
			<path style="fill:#FFC9BD;" d="M219.079,371.125c-4.75,4.66-10.62,8.13-16.99,10.03l-0.76-2.9c6.77-2.07,12.84-5.97,17.57-11.27
				L219.079,371.125z"/>
			<path style="fill:#272F33;" d="M204.996,342.333c-1.675-2.352-2.69-5.118-2.854-8.007c-0.031-0.539-0.438-1-1-1
				c-0.518,0-1.031,0.458-1,1c0.184,3.229,1.248,6.378,3.127,9.016c0.313,0.439,0.872,0.649,1.368,0.359
				C205.071,343.448,205.311,342.776,204.996,342.333z"/>
			<path style="fill:#EFBF6A;" d="M205.729,329.175c0.24,3.52-1.1,8.21-5.24,8.63c-0.8,0.08-1.59-0.03-2.35-0.28
				c-2.03-0.38-3.88-1.53-5.28-3.1c-4.3-4.82-3.41-11.8-3.71-17.75c-0.17-3.27-0.79-6.43-2.52-9.25c-1.63-2.66-3.88-4.86-6.09-7.02
				c-0.42-0.42,0.12-1.03,0.61-0.78c4.17,2.07,8.04,4.73,11.49,7.87c3.05,2.77,5.77,5.92,8.06,9.36
				C203.149,320.525,205.429,324.685,205.729,329.175z"/>
			<path style="fill:#EFAB3C;" d="M202.919,331.745c-0.26,1.71-1.51,3.91-3.25,4c-0.27,0.15-0.59,0.2-0.94,0.03
				c-2.86-1.38-4.76-4.14-5.64-7.13c-1.13-3.8-0.56-7.84,0.12-11.66c0.14-0.78,1.17-0.92,1.67-0.44c2.29,2.15,4.26,4.65,5.82,7.37
				C202.049,326.285,203.349,328.955,202.919,331.745z"/>
		</g>
		<g>
			<path style="fill:#EA8B75;" d="M262.679,366.495v16.99c-4.17,2.43-15.71,1.81-15.71,1.81l-1.38-9.38l-0.57-3.85l-0.63-4.28
				c-0.27-1.83,0.09-3.59,0.9-5.09c0.48-0.88,1.12-1.67,1.89-2.32c1.32-1.12,3.01-1.84,4.89-1.93l2.05-0.1
				C258.779,358.115,262.679,361.825,262.679,366.495z"/>
			<path style="fill:#FFC9BD;" d="M262.679,366.555v2.96c-6.39-0.16-12.61-2.61-17.39-6.82c0.48-0.88,1.12-1.67,1.89-2.32
				C251.409,364.155,256.999,366.415,262.679,366.555z"/>
			<path style="fill:#FFC9BD;" d="M262.679,378.165v3c-6.02-0.39-11.87-2.21-17.09-5.25l-0.57-3.85
				C250.249,375.635,256.389,377.715,262.679,378.165z"/>
			<path style="fill:#272F33;" d="M254.541,361.866c-0.889-2.737-1.304-5.574-1.23-8.451c0.033-1.287-1.967-1.287-2,0
				c-0.078,3.039,0.362,6.091,1.301,8.983c0.167,0.513,0.693,0.846,1.23,0.698C254.346,362.958,254.708,362.382,254.541,361.866z"/>
			<path style="fill:#EFBF6A;" d="M259.569,346.955c0.32,2.77-0.34,5.85-2.4,7.84c-2.14,2.04-5.57,2.47-8.16,1.04
				c-0.02-0.02-0.04-0.04-0.06-0.05c-1.22-0.45-2.32-1.23-3.16-2.22c-3.15-3.69-2.38-8.95-0.92-13.18c0.84-2.44,1.87-4.82,2.67-7.28
				c0.8-2.48,1.46-5.01,1.99-7.57c0.1-0.52,0.8-0.41,0.96,0c1.53,4.05,3.3,8.01,5.3,11.85
				C257.379,340.415,259.159,343.495,259.569,346.955z"/>
			<path style="fill:#EFAB3C;" d="M254.989,352.825c-1.4,1.16-3.25,1.29-4.86,0.48c-1.69-0.86-2.75-2.68-3.2-4.47
				c-0.62-2.47-0.29-5.12,0.49-7.6c0.32-1.78,0.85-3.59,1.76-5.1c2.47-4.12,5.78,4.17,6.41,5.92
				C256.759,345.325,258.149,350.175,254.989,352.825z"/>
		</g>
		<g>
			<path style="fill:#EA8B75;" d="M331.509,332.335c-0.01,0.59-0.08,1.19-0.22,1.79l-2.45,10.29l-0.9,3.83l-2.98,12.54l-0.89,3.75
				l-2.45,10.29l-0.88,3.73l-2.09,8.78c-13.99,0.64-18.91-2.41-18.91-2.41l0.13-0.83l0.5-3.07l1.79-10.99l0.5-3.04l1.85-11.4
				l0.51-3.09l1.94-11.93l0.5-3.09l1.26-7.72c0.74-4.5,5-7.52,9.49-6.73l6.57,1.17c2.89,0.52,5.13,2.48,6.14,5
				C331.319,330.175,331.519,331.245,331.509,332.335z"/>
			<path style="fill:#FFC9BD;" d="M331.509,332.335c-7.46,4.51-15.87,7.35-24.55,8.24l0.5-3.09c8.31-0.96,16.38-3.79,23.46-8.28
				C331.319,330.175,331.519,331.245,331.509,332.335z"/>
			<path style="fill:#FFC9BD;" d="M328.839,344.415l-0.9,3.83c-7.32,3.76-15.25,6.26-23.43,7.35l0.51-3.09
				C313.369,351.285,321.479,348.545,328.839,344.415z"/>
			<path style="fill:#FFC9BD;" d="M324.959,360.785l-0.89,3.75c-6.89,3.13-14.34,5-21.91,5.5l0.5-3.04
				C310.429,366.385,318.009,364.265,324.959,360.785z"/>
			<path style="fill:#FFC9BD;" d="M321.619,374.825l-0.88,3.73c-6.59,2.95-13.66,4.83-20.87,5.54l0.5-3.07
				C307.759,380.195,314.959,378.095,321.619,374.825z"/>
			<path style="fill:#272F33;" d="M324.715,316.823c-0.868,3.898-2.186,7.678-3.958,11.258c-0.569,1.15,1.155,2.164,1.727,1.009
				c1.847-3.733,3.254-7.669,4.16-11.736C326.923,316.1,324.995,315.565,324.715,316.823z"/>
			<path style="fill:#EFBF6A;" d="M339.399,314.995c-0.23,0.3-0.49,0.59-0.75,0.87c-1.65,2.1-3.98,3.65-6.59,4.45
				c-3.2,0.98-8.11,1.4-10.21-1.83c-2.25-3.47-0.57-8.05,1.69-11.02c2.56-3.36,6.17-5.8,8.53-9.32c2.23-3.36,3.09-7.54,2.36-11.51
				c-0.09-0.53,0.63-0.9,0.92-0.38c1.91,3.42,3.73,6.94,5.15,10.6C342.759,302.715,343.539,309.755,339.399,314.995z"/>
			<path style="fill:#EFAB3C;" d="M334.639,316.725c-1.78,1.78-4.4,2.98-6.95,2.57c-2.33-0.37-3.94-2.16-4.09-4.51
				c-0.08-1.14,0.13-2.17,0.5-3.11c0.83-2.48,2.76-4.39,4.71-6.05c2.04-1.74,3.88-3.56,5.69-5.54c0.73-0.79,1.83-1.21,2.7-0.34
				c0.8,0.8,1.14,2.18,1.34,3.26C339.409,307.745,338.119,313.255,334.639,316.725z"/>
		</g>
	</g>
</g>
</svg>
