<?xml version="1.0" encoding="utf-8"?>
<!-- Generator: Adobe Illustrator 27.5.0, SVG Export Plug-In . SVG Version: 6.00 Build 0)  -->
<svg version="1.1" xmlns="http://www.w3.org/2000/svg" xmlns:xlink="http://www.w3.org/1999/xlink" x="0px" y="0px"
	 viewBox="0 0 800 800" style="enable-background:new 0 0 800 800;" xml:space="preserve">
<g id="background">
	<rect style="fill:#FFF8F8;" width="800" height="800"/>
</g>
<g id="objects">
	<g>
		<g>
			<path style="fill:#F2BDBD;" d="M286.024,774.287v-0.258c-0.349,0.398-0.692,0.725-1.031,0.973
				c-0.338,0.252-0.706,0.441-1.102,0.57c-0.395,0.133-0.827,0.195-1.296,0.195c-0.621,0-1.196-0.131-1.725-0.393
				c-0.528-0.264-0.986-0.639-1.372-1.127c-0.387-0.486-0.68-1.058-0.879-1.719c-0.199-0.658-0.299-1.371-0.299-2.137
				c0-1.621,0.396-2.885,1.188-3.791c0.792-0.904,1.833-1.358,3.125-1.358c0.747,0,1.377,0.129,1.89,0.385
				c0.513,0.256,1.013,0.652,1.501,1.182v-3.826c0-0.533,0.105-0.934,0.318-1.207c0.211-0.271,0.514-0.408,0.907-0.408
				c0.393,0,0.694,0.125,0.907,0.375c0.212,0.252,0.318,0.619,0.318,1.108v11.435c0,0.494-0.113,0.863-0.342,1.111
				c-0.228,0.246-0.522,0.369-0.883,0.369c-0.354,0-0.647-0.127-0.879-0.383C286.139,775.127,286.024,774.762,286.024,774.287z
				 M280.923,770.479c0,0.703,0.109,1.301,0.328,1.795c0.219,0.494,0.518,0.865,0.897,1.115c0.38,0.25,0.795,0.377,1.244,0.377
				c0.456,0,0.872-0.119,1.25-0.357c0.376-0.236,0.677-0.602,0.902-1.092c0.225-0.49,0.337-1.106,0.337-1.838
				c0-0.691-0.112-1.285-0.337-1.783c-0.225-0.496-0.528-0.875-0.912-1.139c-0.383-0.262-0.803-0.392-1.258-0.392
				c-0.475,0-0.899,0.135-1.273,0.402c-0.374,0.269-0.663,0.654-0.869,1.158C281.026,769.229,280.923,769.813,280.923,770.479z"/>
			<path style="fill:#F2BDBD;" d="M297.457,771.135h-5.071c0.006,0.588,0.124,1.107,0.357,1.557c0.23,0.449,0.538,0.789,0.921,1.016
				c0.383,0.229,0.806,0.342,1.268,0.342c0.31,0,0.593-0.035,0.85-0.107c0.257-0.074,0.505-0.188,0.746-0.344
				c0.241-0.154,0.462-0.32,0.665-0.498c0.202-0.178,0.464-0.42,0.788-0.723c0.133-0.113,0.323-0.172,0.571-0.172
				c0.266,0,0.48,0.074,0.645,0.221c0.165,0.147,0.248,0.35,0.248,0.617c0,0.234-0.093,0.506-0.275,0.82
				c-0.185,0.314-0.462,0.615-0.832,0.902c-0.372,0.289-0.835,0.527-1.397,0.717c-0.559,0.191-1.204,0.285-1.933,0.285
				c-1.664,0-2.96-0.475-3.884-1.424c-0.924-0.949-1.386-2.238-1.386-3.865c0-0.768,0.113-1.479,0.341-2.133
				c0.228-0.656,0.561-1.217,0.997-1.685c0.437-0.469,0.975-0.828,1.615-1.078c0.639-0.25,1.349-0.375,2.128-0.375
				c1.013,0,1.882,0.213,2.606,0.641c0.726,0.428,1.27,0.98,1.63,1.656c0.36,0.678,0.542,1.369,0.542,2.07
				c0,0.654-0.187,1.076-0.56,1.27C298.662,771.037,298.136,771.135,297.457,771.135z M292.386,769.662h4.702
				c-0.063-0.887-0.303-1.551-0.717-1.99c-0.415-0.441-0.96-0.66-1.638-0.66c-0.646,0-1.177,0.223-1.591,0.668
				C292.727,768.127,292.476,768.787,292.386,769.662z"/>
			<path style="fill:#F2BDBD;" d="M309.272,772.377c0,0.715-0.173,1.328-0.522,1.838c-0.348,0.51-0.862,0.897-1.544,1.16
				c-0.68,0.262-1.508,0.393-2.483,0.393c-0.931,0-1.728-0.143-2.393-0.428c-0.665-0.283-1.156-0.641-1.472-1.066
				c-0.317-0.43-0.475-0.857-0.475-1.289c0-0.285,0.101-0.527,0.304-0.73c0.202-0.201,0.459-0.303,0.769-0.303
				c0.272,0,0.48,0.066,0.626,0.199s0.286,0.32,0.418,0.559c0.266,0.465,0.585,0.807,0.956,1.037
				c0.37,0.227,0.874,0.342,1.515,0.342c0.519,0,0.945-0.117,1.277-0.348c0.332-0.232,0.498-0.496,0.498-0.793
				c0-0.457-0.172-0.787-0.518-0.996c-0.345-0.209-0.914-0.41-1.705-0.6c-0.893-0.221-1.619-0.455-2.18-0.699
				c-0.561-0.242-1.008-0.564-1.344-0.963c-0.335-0.398-0.503-0.891-0.503-1.473c0-0.518,0.155-1.01,0.465-1.473
				c0.311-0.461,0.768-0.83,1.374-1.105c0.604-0.275,1.333-0.414,2.188-0.414c0.671,0,1.275,0.07,1.809,0.211
				c0.536,0.137,0.983,0.326,1.34,0.561c0.358,0.232,0.63,0.492,0.816,0.777c0.186,0.285,0.28,0.563,0.28,0.836
				c0,0.297-0.1,0.541-0.298,0.732c-0.199,0.188-0.482,0.285-0.851,0.285c-0.266,0-0.492-0.076-0.679-0.231
				c-0.186-0.15-0.4-0.379-0.641-0.682c-0.196-0.254-0.426-0.457-0.693-0.609c-0.266-0.152-0.627-0.227-1.083-0.227
				c-0.469,0-0.857,0.098-1.168,0.299c-0.31,0.199-0.465,0.447-0.465,0.744c0,0.273,0.114,0.496,0.341,0.67
				c0.229,0.176,0.535,0.32,0.922,0.434c0.386,0.113,0.917,0.252,1.596,0.416c0.803,0.197,1.46,0.432,1.97,0.703
				c0.509,0.272,0.896,0.594,1.16,0.965C309.142,771.481,309.272,771.902,309.272,772.377z"/>
			<path style="fill:#F2BDBD;" d="M311.921,764.019c-0.361,0-0.669-0.111-0.926-0.332c-0.256-0.221-0.385-0.535-0.385-0.941
				c0-0.367,0.131-0.668,0.394-0.906c0.263-0.238,0.569-0.357,0.917-0.357c0.336,0,0.633,0.107,0.893,0.324
				c0.26,0.215,0.39,0.527,0.39,0.94c0,0.4-0.127,0.711-0.381,0.935C312.57,763.906,312.27,764.019,311.921,764.019z
				 M313.204,766.697v7.494c0,0.519-0.124,0.912-0.371,1.178c-0.248,0.266-0.56,0.398-0.94,0.398c-0.38,0-0.689-0.135-0.926-0.408
				c-0.238-0.271-0.356-0.662-0.356-1.168v-7.418c0-0.512,0.118-0.898,0.356-1.158c0.237-0.26,0.546-0.391,0.926-0.391
				c0.38,0,0.693,0.131,0.94,0.391C313.081,765.875,313.204,766.236,313.204,766.697z"/>
			<path style="fill:#F2BDBD;" d="M324.563,767.125v7.531c0,0.861-0.093,1.604-0.277,2.225c-0.182,0.619-0.477,1.133-0.883,1.537
				c-0.405,0.404-0.935,0.707-1.59,0.902c-0.655,0.197-1.471,0.295-2.446,0.295c-0.893,0-1.69-0.125-2.394-0.375
				c-0.702-0.252-1.243-0.574-1.624-0.969c-0.379-0.396-0.57-0.803-0.57-1.221c0-0.316,0.108-0.576,0.324-0.773
				c0.215-0.201,0.475-0.301,0.778-0.301c0.38,0,0.712,0.168,0.997,0.504c0.139,0.17,0.283,0.344,0.432,0.517
				c0.149,0.176,0.314,0.324,0.494,0.447c0.181,0.123,0.397,0.215,0.65,0.275c0.253,0.059,0.545,0.09,0.874,0.09
				c0.671,0,1.192-0.094,1.563-0.281c0.371-0.185,0.63-0.447,0.779-0.783c0.149-0.334,0.236-0.693,0.261-1.078
				c0.025-0.383,0.044-0.998,0.057-1.848c-0.399,0.559-0.859,0.982-1.382,1.273c-0.522,0.291-1.145,0.438-1.866,0.438
				c-0.868,0-1.626-0.223-2.275-0.666c-0.648-0.443-1.147-1.063-1.495-1.861c-0.349-0.799-0.522-1.719-0.522-2.764
				c0-0.777,0.105-1.482,0.317-2.107c0.213-0.629,0.515-1.156,0.907-1.588c0.392-0.43,0.845-0.754,1.358-0.973
				c0.513-0.219,1.076-0.328,1.691-0.328c0.734,0,1.371,0.143,1.909,0.422c0.538,0.283,1.038,0.725,1.5,1.326v-0.352
				c0-0.449,0.11-0.797,0.332-1.045c0.222-0.246,0.507-0.371,0.855-0.371c0.5,0,0.832,0.164,0.996,0.49
				C324.48,766.041,324.563,766.512,324.563,767.125z M317.05,770.412c0,1.051,0.229,1.846,0.688,2.383
				c0.459,0.539,1.053,0.809,1.781,0.809c0.43,0,0.837-0.117,1.22-0.348c0.384-0.231,0.695-0.58,0.936-1.045
				c0.24-0.465,0.361-1.029,0.361-1.695c0-1.057-0.232-1.881-0.698-2.469c-0.466-0.588-1.078-0.883-1.838-0.883
				c-0.741,0-1.334,0.281-1.78,0.846C317.272,768.572,317.05,769.373,317.05,770.412z"/>
			<path style="fill:#F2BDBD;" d="M328.684,766.66v0.313c0.455-0.602,0.954-1.043,1.496-1.324c0.542-0.281,1.163-0.424,1.866-0.424
				c0.684,0,1.295,0.15,1.834,0.447c0.538,0.299,0.941,0.719,1.206,1.262c0.172,0.318,0.282,0.66,0.332,1.027
				c0.051,0.367,0.077,0.836,0.077,1.406v4.824c0,0.519-0.119,0.912-0.357,1.178c-0.237,0.266-0.546,0.398-0.926,0.398
				c-0.387,0-0.7-0.135-0.94-0.408c-0.241-0.271-0.361-0.662-0.361-1.168v-4.322c0-0.853-0.119-1.508-0.357-1.961
				c-0.238-0.451-0.71-0.68-1.42-0.68c-0.461,0-0.883,0.139-1.263,0.414c-0.38,0.275-0.659,0.654-0.836,1.135
				c-0.126,0.387-0.19,1.108-0.19,2.166v3.248c0,0.525-0.122,0.92-0.365,1.184c-0.244,0.262-0.559,0.393-0.945,0.393
				c-0.375,0-0.681-0.135-0.922-0.408c-0.24-0.271-0.361-0.662-0.361-1.168v-7.494c0-0.494,0.107-0.863,0.323-1.108
				c0.215-0.242,0.51-0.365,0.883-0.365c0.229,0,0.435,0.055,0.619,0.162c0.183,0.109,0.33,0.27,0.441,0.484
				C328.628,766.086,328.684,766.35,328.684,766.66z"/>
			<path style="fill:#F2BDBD;" d="M344.458,771.135h-5.071c0.007,0.588,0.125,1.107,0.357,1.557
				c0.231,0.449,0.538,0.789,0.921,1.016c0.382,0.229,0.805,0.342,1.267,0.342c0.311,0,0.594-0.035,0.851-0.107
				c0.255-0.074,0.504-0.188,0.746-0.344c0.24-0.154,0.461-0.32,0.665-0.498c0.202-0.178,0.464-0.42,0.788-0.723
				c0.133-0.113,0.323-0.172,0.57-0.172c0.266,0,0.481,0.074,0.646,0.221c0.165,0.147,0.247,0.35,0.247,0.617
				c0,0.234-0.091,0.506-0.275,0.82c-0.184,0.314-0.461,0.615-0.832,0.902c-0.371,0.289-0.835,0.527-1.396,0.717
				c-0.56,0.191-1.205,0.285-1.933,0.285c-1.665,0-2.96-0.475-3.885-1.424c-0.923-0.949-1.386-2.238-1.386-3.865
				c0-0.768,0.114-1.479,0.342-2.133c0.228-0.656,0.561-1.217,0.998-1.685c0.436-0.469,0.975-0.828,1.614-1.078
				c0.639-0.25,1.349-0.375,2.128-0.375c1.013,0,1.881,0.213,2.606,0.641c0.726,0.428,1.269,0.98,1.63,1.656
				c0.36,0.678,0.542,1.369,0.542,2.07c0,0.654-0.187,1.076-0.561,1.27C345.662,771.037,345.136,771.135,344.458,771.135z
				 M339.387,769.662h4.701c-0.063-0.887-0.302-1.551-0.717-1.99c-0.415-0.441-0.961-0.66-1.638-0.66
				c-0.646,0-1.177,0.223-1.592,0.668C339.726,768.127,339.476,768.787,339.387,769.662z"/>
			<path style="fill:#F2BDBD;" d="M355.028,774.287v-0.258c-0.348,0.398-0.691,0.725-1.03,0.973
				c-0.339,0.252-0.706,0.441-1.102,0.57c-0.395,0.133-0.828,0.195-1.296,0.195c-0.622,0-1.196-0.131-1.724-0.393
				c-0.529-0.264-0.986-0.639-1.373-1.127c-0.387-0.486-0.679-1.058-0.878-1.719c-0.2-0.658-0.299-1.371-0.299-2.137
				c0-1.621,0.396-2.885,1.187-3.791c0.792-0.904,1.833-1.358,3.125-1.358c0.747,0,1.377,0.129,1.89,0.385s1.013,0.652,1.5,1.182
				v-3.826c0-0.533,0.106-0.934,0.319-1.207c0.211-0.271,0.515-0.408,0.907-0.408c0.392,0,0.694,0.125,0.907,0.375
				c0.212,0.252,0.318,0.619,0.318,1.108v11.435c0,0.494-0.114,0.863-0.342,1.111c-0.228,0.246-0.522,0.369-0.883,0.369
				c-0.355,0-0.648-0.127-0.879-0.383C355.144,775.127,355.028,774.762,355.028,774.287z M349.928,770.479
				c0,0.703,0.108,1.301,0.327,1.795c0.218,0.494,0.517,0.865,0.898,1.115c0.379,0.25,0.794,0.377,1.243,0.377
				c0.456,0,0.873-0.119,1.249-0.357c0.377-0.236,0.678-0.602,0.902-1.092c0.225-0.49,0.337-1.106,0.337-1.838
				c0-0.691-0.112-1.285-0.337-1.783c-0.224-0.496-0.528-0.875-0.912-1.139c-0.384-0.262-0.803-0.392-1.259-0.392
				c-0.474,0-0.899,0.135-1.272,0.402c-0.373,0.269-0.663,0.654-0.869,1.158C350.03,769.229,349.928,769.813,349.928,770.479z"/>
			<path style="fill:#F2BDBD;" d="M365.626,762.852v3.959c0.487-0.506,0.984-0.894,1.491-1.162c0.506-0.269,1.134-0.404,1.881-0.404
				c0.861,0,1.616,0.205,2.266,0.611c0.648,0.41,1.151,1.002,1.51,1.777c0.358,0.775,0.537,1.695,0.537,2.76
				c0,0.785-0.1,1.504-0.299,2.16c-0.2,0.656-0.49,1.225-0.869,1.705c-0.38,0.48-0.841,0.854-1.382,1.117
				c-0.542,0.262-1.139,0.393-1.791,0.393c-0.399,0-0.775-0.047-1.126-0.143c-0.352-0.094-0.651-0.219-0.898-0.375
				c-0.246-0.154-0.457-0.315-0.631-0.479c-0.174-0.164-0.404-0.412-0.689-0.742v0.258c0,0.486-0.117,0.855-0.352,1.107
				c-0.233,0.25-0.531,0.373-0.893,0.373c-0.367,0-0.66-0.123-0.878-0.373c-0.219-0.252-0.328-0.621-0.328-1.107v-11.322
				c0-0.525,0.106-0.924,0.317-1.191c0.212-0.269,0.509-0.404,0.889-0.404c0.399,0,0.706,0.129,0.921,0.385
				C365.518,762.012,365.626,762.375,365.626,762.852z M365.749,770.555c0,1.031,0.236,1.824,0.708,2.377
				c0.472,0.555,1.091,0.834,1.857,0.834c0.652,0,1.214-0.283,1.685-0.852c0.472-0.566,0.708-1.379,0.708-2.436
				c0-0.684-0.097-1.273-0.294-1.768c-0.197-0.494-0.475-0.875-0.836-1.144c-0.361-0.268-0.783-0.402-1.264-0.402
				c-0.494,0-0.935,0.135-1.32,0.402c-0.386,0.269-0.69,0.658-0.912,1.168C365.86,769.244,365.749,769.852,365.749,770.555z"/>
			<path style="fill:#F2BDBD;" d="M376.672,776.092l0.237-0.58l-3.191-8.035c-0.196-0.461-0.295-0.799-0.295-1.008
				c0-0.221,0.058-0.426,0.171-0.615c0.114-0.191,0.271-0.344,0.47-0.457c0.2-0.115,0.407-0.172,0.622-0.172
				c0.373,0,0.655,0.119,0.846,0.357c0.19,0.236,0.357,0.576,0.503,1.02l2.194,6.383l2.08-5.936c0.164-0.48,0.313-0.857,0.446-1.131
				c0.133-0.272,0.273-0.455,0.422-0.549c0.148-0.096,0.359-0.144,0.632-0.144c0.197,0,0.385,0.053,0.565,0.158
				c0.18,0.104,0.319,0.244,0.418,0.422c0.098,0.178,0.148,0.363,0.148,0.56c-0.026,0.119-0.066,0.291-0.124,0.514
				c-0.058,0.221-0.126,0.447-0.208,0.674l-3.381,8.852c-0.292,0.779-0.577,1.389-0.855,1.832c-0.279,0.443-0.647,0.785-1.107,1.021
				c-0.459,0.238-1.078,0.357-1.857,0.357c-0.759,0-1.33-0.082-1.709-0.246c-0.381-0.166-0.57-0.467-0.57-0.904
				c0-0.297,0.089-0.527,0.271-0.688c0.18-0.162,0.448-0.244,0.801-0.244c0.14,0,0.276,0.019,0.409,0.059
				c0.165,0.037,0.307,0.057,0.427,0.057c0.297,0,0.532-0.043,0.704-0.133c0.17-0.088,0.324-0.242,0.461-0.461
				C376.337,776.838,376.495,776.516,376.672,776.092z"/>
		</g>
		<g>
			<g>
				<path style="fill:#F2BDBD;" d="M414.234,765.449h0.619v-0.777c0-0.814,0.1-1.457,0.307-1.938
					c0.203-0.478,0.555-0.826,1.047-1.045c0.49-0.217,1.162-0.326,2.016-0.326c1.52,0,2.273,0.367,2.273,1.113
					c0,0.238-0.08,0.445-0.24,0.615c-0.154,0.17-0.344,0.256-0.559,0.256c-0.1,0-0.277-0.018-0.527-0.059
					c-0.236-0.033-0.451-0.057-0.623-0.057c-0.467,0-0.766,0.141-0.904,0.416c-0.127,0.275-0.195,0.668-0.195,1.184v0.617h0.633
					c0.99,0,1.48,0.297,1.48,0.896c0,0.418-0.127,0.69-0.392,0.805c-0.262,0.113-0.623,0.17-1.088,0.17h-0.633v6.871
					c0,0.512-0.121,0.9-0.369,1.168c-0.242,0.273-0.555,0.406-0.943,0.406c-0.367,0-0.67-0.133-0.918-0.406
					c-0.244-0.268-0.363-0.656-0.363-1.168v-6.871h-0.715c-0.389,0-0.682-0.084-0.893-0.262c-0.209-0.17-0.315-0.398-0.315-0.678
					C412.932,765.758,413.365,765.449,414.234,765.449"/>
				<path style="fill:#F2BDBD;" d="M422.725,772.023v2.168c0,0.523-0.133,0.92-0.375,1.18c-0.246,0.266-0.559,0.395-0.938,0.395
					c-0.381,0-0.688-0.131-0.926-0.4c-0.236-0.264-0.361-0.656-0.361-1.174v-7.223c0-1.166,0.42-1.748,1.262-1.748
					c0.434,0,0.742,0.135,0.934,0.408c0.19,0.273,0.295,0.674,0.316,1.207c0.309-0.533,0.625-0.934,0.949-1.207
					c0.332-0.273,0.762-0.408,1.309-0.408c0.549,0,1.072,0.135,1.586,0.408c0.516,0.273,0.772,0.637,0.772,1.084
					c0,0.314-0.111,0.58-0.326,0.781c-0.221,0.209-0.455,0.313-0.707,0.313c-0.1,0-0.33-0.063-0.691-0.18
					c-0.365-0.113-0.689-0.174-0.963-0.174c-0.381,0-0.693,0.103-0.932,0.299c-0.242,0.205-0.432,0.496-0.564,0.887
					c-0.129,0.395-0.219,0.865-0.273,1.404C422.746,770.584,422.725,771.246,422.725,772.023"/>
				<path style="fill:#F2BDBD;" d="M434.645,771.131h-5.074c0.01,0.588,0.125,1.111,0.355,1.559
					c0.234,0.447,0.539,0.787,0.924,1.017c0.385,0.227,0.805,0.34,1.27,0.34c0.311,0,0.592-0.033,0.85-0.111
					c0.254-0.07,0.504-0.185,0.744-0.342c0.242-0.152,0.461-0.318,0.664-0.5c0.203-0.174,0.467-0.416,0.791-0.719
					c0.135-0.113,0.324-0.174,0.568-0.174c0.268,0,0.48,0.074,0.648,0.223c0.166,0.146,0.244,0.35,0.244,0.617
					c0,0.234-0.09,0.508-0.268,0.818c-0.188,0.318-0.463,0.617-0.836,0.906c-0.375,0.285-0.84,0.527-1.398,0.715
					c-0.559,0.189-1.205,0.285-1.932,0.285c-1.67,0-2.963-0.473-3.887-1.422c-0.924-0.951-1.391-2.242-1.391-3.867
					c0-0.768,0.117-1.479,0.348-2.135c0.225-0.658,0.557-1.217,0.998-1.688c0.435-0.471,0.971-0.828,1.613-1.078
					c0.637-0.25,1.346-0.375,2.127-0.375c1.012,0,1.881,0.215,2.607,0.647c0.723,0.422,1.273,0.977,1.629,1.654
					c0.361,0.68,0.541,1.367,0.541,2.074c0,0.648-0.188,1.07-0.561,1.266C435.848,771.035,435.322,771.131,434.645,771.131
					 M429.57,769.656h4.701c-0.062-0.885-0.297-1.549-0.713-1.986c-0.418-0.441-0.959-0.66-1.641-0.66
					c-0.647,0-1.178,0.221-1.592,0.67C429.912,768.125,429.658,768.783,429.57,769.656"/>
				<path style="fill:#F2BDBD;" d="M445.432,771.131h-5.072c0.006,0.588,0.125,1.111,0.354,1.559
					c0.232,0.447,0.539,0.787,0.922,1.017c0.383,0.227,0.805,0.34,1.271,0.34c0.307,0,0.592-0.033,0.844-0.111
					c0.26-0.07,0.506-0.185,0.75-0.342c0.242-0.152,0.461-0.318,0.664-0.5c0.199-0.174,0.465-0.416,0.789-0.719
					c0.135-0.113,0.326-0.174,0.568-0.174c0.268,0,0.482,0.074,0.65,0.223c0.164,0.146,0.24,0.35,0.24,0.617
					c0,0.234-0.088,0.508-0.273,0.818c-0.178,0.318-0.455,0.617-0.83,0.906c-0.371,0.285-0.84,0.527-1.397,0.715
					c-0.557,0.189-1.207,0.285-1.934,0.285c-1.668,0-2.959-0.473-3.887-1.422c-0.924-0.951-1.389-2.242-1.389-3.867
					c0-0.768,0.115-1.479,0.348-2.135c0.227-0.658,0.559-1.217,0.996-1.688c0.436-0.471,0.973-0.828,1.613-1.078
					c0.639-0.25,1.352-0.375,2.129-0.375c1.01,0,1.879,0.215,2.613,0.647c0.721,0.422,1.266,0.977,1.621,1.654
					c0.359,0.68,0.545,1.367,0.545,2.074c0,0.648-0.191,1.07-0.561,1.266C446.633,771.035,446.107,771.131,445.432,771.131
					 M440.359,769.656h4.701c-0.064-0.885-0.305-1.549-0.715-1.986c-0.422-0.441-0.963-0.66-1.643-0.66
					c-0.647,0-1.176,0.221-1.594,0.67C440.697,768.125,440.443,768.783,440.359,769.656"/>
				<path style="fill:#F2BDBD;" d="M451.111,766.68v0.31c0.486-0.602,0.994-1.043,1.525-1.324c0.518-0.285,1.117-0.428,1.781-0.428
					c0.795,0,1.535,0.209,2.207,0.617c0.672,0.414,1.199,1.016,1.59,1.807c0.389,0.795,0.586,1.73,0.586,2.815
					c0,0.795-0.113,1.531-0.336,2.201c-0.225,0.668-0.537,1.227-0.93,1.68c-0.393,0.449-0.855,0.801-1.389,1.045
					c-0.543,0.242-1.111,0.363-1.728,0.363c-0.738,0-1.363-0.148-1.865-0.447c-0.502-0.291-0.982-0.733-1.441-1.305v3.893
					c0,1.135-0.416,1.709-1.244,1.709c-0.49,0-0.809-0.146-0.971-0.439c-0.152-0.299-0.234-0.723-0.234-1.291v-11.193
					c0-0.494,0.107-0.859,0.32-1.107c0.215-0.238,0.512-0.363,0.885-0.363c0.369,0,0.666,0.125,0.897,0.373
					C450.998,765.848,451.111,766.205,451.111,766.68 M456.195,770.447c0-0.686-0.105-1.273-0.314-1.764
					c-0.209-0.492-0.498-0.867-0.865-1.127c-0.367-0.264-0.783-0.396-1.232-0.396c-0.715,0-1.318,0.283-1.809,0.844
					c-0.492,0.566-0.74,1.394-0.74,2.492c0,1.027,0.244,1.834,0.736,2.406c0.486,0.574,1.086,0.859,1.813,0.859
					c0.428,0,0.83-0.127,1.197-0.373c0.371-0.252,0.664-0.627,0.883-1.127C456.084,771.76,456.195,771.154,456.195,770.447"/>
				<path style="fill:#F2BDBD;" d="M461.412,764.014c-0.363,0-0.67-0.115-0.924-0.336c-0.26-0.223-0.387-0.531-0.387-0.935
					c0-0.369,0.131-0.67,0.396-0.91c0.262-0.234,0.566-0.355,0.914-0.355c0.34,0,0.635,0.105,0.893,0.318
					c0.26,0.219,0.391,0.535,0.391,0.947c0,0.398-0.127,0.711-0.377,0.935C462.064,763.898,461.764,764.014,461.412,764.014
					 M462.695,766.691v7.502c0,0.516-0.123,0.908-0.369,1.172c-0.25,0.27-0.561,0.4-0.941,0.4c-0.381,0-0.686-0.133-0.928-0.406
					c-0.234-0.275-0.355-0.664-0.355-1.166v-7.428c0-0.51,0.121-0.895,0.355-1.154c0.242-0.264,0.547-0.391,0.928-0.391
					c0.381,0,0.691,0.127,0.941,0.391C462.572,765.871,462.695,766.234,462.695,766.691"/>
				<path style="fill:#F2BDBD;" d="M471.055,774.582l-2.283-3.766l-1.408,1.328v2.066c0,0.498-0.133,0.881-0.396,1.148
					c-0.258,0.273-0.566,0.406-0.906,0.406c-0.398,0-0.715-0.131-0.941-0.4c-0.227-0.264-0.344-0.656-0.344-1.174v-11.063
					c0-0.574,0.115-1.012,0.332-1.314c0.223-0.305,0.545-0.451,0.953-0.451c0.399,0,0.713,0.137,0.949,0.41
					c0.234,0.272,0.353,0.674,0.353,1.203v6.293l2.916-3.063c0.361-0.377,0.633-0.641,0.826-0.779
					c0.189-0.139,0.42-0.207,0.689-0.207c0.326,0,0.594,0.104,0.816,0.309c0.211,0.205,0.32,0.465,0.32,0.773
					c0,0.379-0.353,0.889-1.055,1.522l-1.377,1.262l2.658,4.184c0.193,0.313,0.34,0.543,0.424,0.705
					c0.084,0.16,0.131,0.32,0.131,0.463c0,0.412-0.115,0.734-0.342,0.975c-0.225,0.236-0.523,0.354-0.885,0.354
					c-0.316,0-0.564-0.08-0.734-0.256C471.582,775.338,471.346,775.027,471.055,774.582"/>
				<path style="fill:#F2BDBD;" d="M476.691,775.766c-0.393,0-0.728-0.125-1.014-0.381c-0.285-0.248-0.43-0.606-0.43-1.065
					c0-0.385,0.139-0.719,0.41-0.994c0.275-0.279,0.607-0.42,1.008-0.42c0.398,0,0.736,0.141,1.023,0.412
					c0.279,0.275,0.422,0.613,0.422,1.002c0,0.453-0.143,0.809-0.422,1.061C477.402,775.641,477.07,775.766,476.691,775.766"/>
				<path style="fill:#F2BDBD;" d="M489.59,772.557c0,0.32-0.098,0.668-0.291,1.033c-0.191,0.371-0.488,0.719-0.887,1.051
					c-0.395,0.332-0.891,0.602-1.494,0.803c-0.602,0.203-1.281,0.307-2.031,0.307c-1.605,0-2.857-0.469-3.758-1.4
					c-0.895-0.935-1.346-2.189-1.346-3.76c0-1.068,0.205-2.006,0.619-2.824c0.408-0.814,1.004-1.447,1.781-1.895
					c0.779-0.447,1.717-0.67,2.795-0.67c0.674,0,1.287,0.098,1.852,0.295c0.561,0.195,1.033,0.451,1.426,0.76
					c0.387,0.314,0.685,0.642,0.889,0.992c0.207,0.352,0.309,0.68,0.309,0.986c0,0.309-0.113,0.572-0.344,0.787
					c-0.234,0.215-0.516,0.324-0.838,0.324c-0.219,0-0.398-0.057-0.541-0.166c-0.145-0.111-0.305-0.289-0.478-0.541
					c-0.318-0.478-0.647-0.842-0.996-1.08c-0.344-0.242-0.781-0.361-1.315-0.361c-0.762,0-1.383,0.297-1.853,0.896
					c-0.467,0.596-0.703,1.42-0.703,2.455c0,0.488,0.063,0.939,0.184,1.348c0.117,0.406,0.291,0.756,0.52,1.043
					c0.23,0.287,0.504,0.506,0.826,0.654c0.324,0.154,0.682,0.227,1.064,0.227c0.522,0,0.967-0.121,1.336-0.361
					c0.377-0.24,0.703-0.607,0.986-1.102c0.158-0.291,0.328-0.518,0.51-0.684c0.182-0.164,0.408-0.25,0.676-0.25
					c0.316,0,0.58,0.123,0.785,0.363C489.482,772.027,489.59,772.285,489.59,772.557"/>
				<path style="fill:#F2BDBD;" d="M500.779,770.496c0,0.77-0.121,1.484-0.355,2.139c-0.246,0.652-0.592,1.213-1.049,1.678
					c-0.455,0.469-1.002,0.828-1.633,1.08c-0.639,0.248-1.35,0.375-2.139,0.375c-0.785,0-1.492-0.127-2.121-0.383
					c-0.623-0.248-1.17-0.613-1.625-1.082c-0.461-0.477-0.809-1.033-1.053-1.676c-0.228-0.645-0.35-1.356-0.35-2.131
					c0-0.787,0.123-1.506,0.357-2.158c0.242-0.654,0.59-1.213,1.039-1.674c0.451-0.461,0.994-0.816,1.631-1.07
					c0.645-0.248,1.35-0.373,2.121-0.373c0.785,0,1.498,0.125,2.139,0.381c0.639,0.252,1.184,0.615,1.645,1.08
					c0.457,0.475,0.803,1.029,1.039,1.672C500.66,769.004,500.779,769.713,500.779,770.496 M498.176,770.496
					c0-1.059-0.234-1.881-0.697-2.469c-0.463-0.596-1.09-0.889-1.875-0.889c-0.508,0-0.955,0.133-1.342,0.395
					s-0.682,0.648-0.891,1.164c-0.209,0.514-0.315,1.113-0.315,1.799c0,0.678,0.102,1.268,0.309,1.773
					c0.209,0.51,0.502,0.897,0.887,1.166c0.385,0.266,0.834,0.404,1.351,0.404c0.785,0,1.412-0.297,1.875-0.892
					C497.941,772.357,498.176,771.537,498.176,770.496"/>
				<path style="fill:#F2BDBD;" d="M510.672,770.685v3.447c0,0.547-0.121,0.951-0.369,1.227c-0.25,0.273-0.572,0.408-0.978,0.408
					c-0.393,0-0.713-0.135-0.951-0.408c-0.246-0.275-0.371-0.68-0.371-1.227v-4.131c0-0.654-0.022-1.162-0.065-1.525
					c-0.045-0.354-0.168-0.654-0.361-0.883c-0.197-0.234-0.51-0.352-0.932-0.352c-0.85,0-1.406,0.291-1.676,0.881
					c-0.268,0.576-0.406,1.414-0.406,2.508v3.502c0,0.537-0.123,0.945-0.361,1.223c-0.25,0.273-0.568,0.412-0.965,0.412
					c-0.397,0-0.717-0.139-0.967-0.412c-0.252-0.277-0.377-0.686-0.377-1.223v-7.42c0-0.488,0.111-0.859,0.336-1.111
					c0.229-0.256,0.525-0.381,0.889-0.381c0.357,0,0.652,0.123,0.893,0.355c0.236,0.238,0.353,0.566,0.353,0.984v0.244
					c0.453-0.535,0.936-0.932,1.445-1.18c0.516-0.26,1.082-0.387,1.713-0.387c0.65,0,1.211,0.131,1.678,0.391
					c0.469,0.26,0.853,0.654,1.16,1.176c0.439-0.527,0.908-0.922,1.41-1.18c0.5-0.258,1.053-0.387,1.662-0.387
					c0.705,0,1.32,0.143,1.834,0.42c0.51,0.277,0.893,0.68,1.147,1.195c0.221,0.473,0.33,1.209,0.33,2.217v5.063
					c0,0.547-0.121,0.951-0.367,1.227c-0.246,0.273-0.574,0.408-0.979,0.408c-0.394,0-0.715-0.139-0.965-0.412
					c-0.25-0.277-0.377-0.686-0.377-1.223v-4.361c0-0.559-0.023-1.004-0.068-1.338c-0.047-0.338-0.178-0.621-0.383-0.848
					c-0.213-0.227-0.531-0.344-0.953-0.344c-0.342,0-0.666,0.107-0.975,0.309c-0.307,0.197-0.547,0.477-0.721,0.813
					C510.77,768.801,510.672,769.576,510.672,770.685"/>
			</g>
			<g>
				<path style="fill:#F2BDBD;" d="M389.967,769.867c-0.002-0.004-0.002-0.01-0.002-0.018
					C389.965,769.857,389.965,769.863,389.967,769.867z"/>
				<path style="fill:#F2BDBD;" d="M390.098,770.697c0.002,0,0.002,0,0.003,0c-0.05-0.236-0.088-0.471-0.119-0.703
					C390.012,770.229,390.051,770.463,390.098,770.697z"/>
				<path style="fill:#F2BDBD;" d="M390.956,773.104c-0.006-0.01-0.011-0.022-0.017-0.033
					C390.945,773.082,390.95,773.094,390.956,773.104z"/>
				<path style="fill:#F2BDBD;" d="M390.874,772.943c-0.022-0.045-0.044-0.09-0.065-0.135
					C390.83,772.856,390.852,772.898,390.874,772.943z"/>
				<path style="fill:#F2BDBD;" d="M390.339,771.623c0.127,0.4,0.28,0.789,0.457,1.158c-0.18-0.377-0.33-0.766-0.454-1.158
					C390.341,771.623,390.34,771.623,390.339,771.623z"/>
				<path style="fill:#F2BDBD;" d="M400.004,759.932c0.501,0,0.871,0.039,1.294,0.111l0.121-0.764c0,0-1.171-0.359-2.711-0.234
					l-0.121-0.414c0.478-0.102,0.838-0.527,0.838-1.035c0-0.582-0.474-1.053-1.057-1.053c-0.583,0-1.056,0.471-1.056,1.053
					c0,0.508,0.358,0.934,0.836,1.035l0.134,0.463c-1.634,0.225-2.935,0.861-2.935,0.861l0.23,0.705
					c0.989-0.328,1.846-0.529,2.624-0.613C398.964,759.967,399.537,759.932,400.004,759.932z"/>
				<path style="fill:#F2BDBD;" d="M390.936,763.789l0.006-0.008c0.039-0.049,0.076-0.096,0.113-0.143l-0.313-0.225l-0.488-0.358
					c-0.027,0.039-0.795,0.744-1.401,2.049c-0.025-0.041-0.056-0.082-0.09-0.119c-0.182-0.199-0.436-0.301-0.758-0.295
					c-0.004,0-0.009,0-0.015,0c-0.2,0-0.337-0.066-0.427-0.146c0.089-0.113,0.143-0.256,0.143-0.414c0-0.367-0.3-0.668-0.669-0.668
					c-0.369,0-0.669,0.301-0.669,0.668c0,0.371,0.3,0.67,0.669,0.67c0.058,0,0.113-0.01,0.167-0.021
					c0.164,0.184,0.425,0.342,0.808,0.334c0.197-0.002,0.341,0.049,0.438,0.156c0.111,0.121,0.148,0.295,0.16,0.428
					c-0.001,0.002-0.001,0.004-0.003,0.004c-0.435,1.189-0.311,2.67-0.311,2.67l1.057,0.043c0.022-0.539,0.099-1.483,0.372-2.231
					C390.25,764.734,390.91,763.828,390.936,763.789z"/>
				<path style="fill:#F2BDBD;" d="M409.203,760.815c-0.367,0-0.668,0.299-0.668,0.67c0,0.057,0.008,0.111,0.023,0.164
					c-0.184,0.166-0.344,0.428-0.338,0.811c0.004,0.197-0.047,0.34-0.154,0.438c-0.084,0.074-0.191,0.115-0.295,0.141
					c-0.787-1.104-1.756-1.775-1.756-1.775l-0.76,0.813c0.574,0.521,1.16,1.176,1.728,1.99c0.395,0.564,0.799,1.291,1.137,2.016
					l1.023-0.486c0,0-0.467-1.156-1.125-2.192c0.113-0.041,0.228-0.103,0.33-0.193c0.201-0.18,0.299-0.436,0.293-0.758
					c-0.002-0.207,0.066-0.348,0.148-0.441c0.115,0.088,0.258,0.142,0.412,0.142c0.371,0,0.67-0.299,0.67-0.668
					C409.873,761.113,409.574,760.815,409.203,760.815z"/>
				<path style="fill:#F2BDBD;" d="M406.547,770.018c-1.41,0.686-3.728,1.594-6.782,2.02c-1.198,0.166-2.359,0.227-3.428,0.227
					c-1.391,0-2.62-0.103-3.563-0.223c-1.076-0.135-1.917-0.301-2.432-0.418c0.124,0.393,0.273,0.781,0.454,1.158
					c0.003,0.01,0.008,0.021,0.013,0.027c0.021,0.045,0.043,0.09,0.065,0.135c0.021,0.043,0.043,0.086,0.065,0.127
					c0.006,0.012,0.011,0.023,0.017,0.033c0.303,0.57,0.667,1.094,1.081,1.549c1.44,1.574,2.907,1.824,2.921,1.826l0.023,0.002
					l0.022,0.008c0.013,0.006,1.314,0.426,3.291,0.426c1.945,0,3.855-0.393,5.673-1.168c1.348-0.69,2.623-1.736,3.254-2.67
					c0.488-0.723,0.842-1.492,1.051-2.293c0.111-0.426,0.199-1.107,0.147-1.826C408.021,769.225,407.395,769.604,406.547,770.018z"
					/>
				<path style="fill:#F2BDBD;" d="M391.389,764.123c-0.041,0.061-0.652,0.926-1.135,2.254c-0.362,0.994-0.346,2.443-0.346,2.459
					v0.004c0,0.34,0.019,0.676,0.057,1.01c0,0.008,0,0.014,0.002,0.018c0.004,0.043,0.011,0.084,0.015,0.127
					c0.03,0.233,0.069,0.467,0.119,0.703c0.7,0.178,4.878,1.152,9.548,0.502c2.927-0.408,5.15-1.273,6.499-1.928
					c1.121-0.543,1.842-1.035,2.119-1.238c-0.277-1.027-1.041-2.641-1.742-3.646c-2.006-2.865-4.168-3.6-5.277-3.783
					c-0.424-0.068-0.763-0.109-1.244-0.109c-0.447,0-1.002,0.037-1.743,0.115c-0.743,0.076-1.572,0.272-2.532,0.596
					c-1.348,0.451-2.567,1.158-3.527,2.047l-0.033,0.031C392.027,763.414,391.73,763.69,391.389,764.123z M403.658,763.457
					c0.961,0,1.744,0.781,1.744,1.742c0,0.963-0.783,1.744-1.744,1.744c-0.961,0-1.742-0.781-1.742-1.744
					C401.916,764.238,402.697,763.457,403.658,763.457z M395.417,763.387c1.557,0,2.817,1.262,2.817,2.818
					c0,1.555-1.26,2.814-2.817,2.814c-1.555,0-2.816-1.26-2.816-2.814C392.601,764.648,393.862,763.387,395.417,763.387z"/>
			</g>
		</g>
	</g>
	<g>
		<path style="fill:#F4D9D9;" d="M690.976,137.107c-44.749-49.73-114.936-65.632-177.414-51.47
			c-30.345,6.878-59.963,20.555-82.803,43.455c-13.95,13.987-25.132,31.671-31.611,51.035c-6.48-19.364-17.662-37.049-31.611-51.035
			c-22.84-22.9-52.458-36.577-82.803-43.455c-62.478-14.162-132.665,1.74-177.414,51.47
			C63.966,185.284,49.874,259.168,61.73,325.498c11.855,66.33,46.906,125.539,89.837,174.165s93.762,87.9,143.934,127.379
			c23.615,18.581,47.233,37.377,69.934,57.301c11.519,10.11,22.794,20.518,33.712,31.34c10.918-10.822,22.193-21.23,33.712-31.34
			c22.701-19.924,46.319-38.719,69.934-57.301c50.173-39.478,101.004-78.752,143.935-127.379
			c42.931-48.626,77.982-107.835,89.837-174.165C748.419,259.168,734.328,185.284,690.976,137.107z"/>
		<path style="fill:#E29191;" d="M651.852,172.107c-38.75-43.063-99.527-56.833-153.63-44.569
			c-26.277,5.956-51.924,17.799-71.702,37.63c-12.08,12.111-21.762,27.425-27.373,44.193c-5.611-16.768-15.294-32.082-27.374-44.193
			c-19.778-19.83-45.426-31.673-71.702-37.63c-54.102-12.264-114.88,1.507-153.63,44.569
			c-37.54,41.719-49.743,105.697-39.477,163.135c10.266,57.437,40.618,108.709,77.793,150.816s81.192,76.116,124.638,110.302
			c20.449,16.09,40.901,32.366,60.559,49.619c9.975,8.754,19.738,17.768,29.193,27.138c9.454-9.371,19.218-18.384,29.192-27.138
			c19.658-17.253,40.11-33.529,60.559-49.619c43.446-34.186,87.463-68.194,124.638-110.302
			c37.175-42.107,67.527-93.379,77.793-150.816C701.595,277.805,689.393,213.826,651.852,172.107z"/>
	</g>
	<path style="fill:#F7DFDF;" d="M645.193,726.389c0,3.836-118.494,6.946-264.665,6.946s-264.664-3.11-264.664-6.946
		c0-3.836,118.494-6.946,264.664-6.946S645.193,722.553,645.193,726.389z"/>
	<g>
		<path style="fill:#EABA86;" d="M528.231,315.563c-59.479,12.76-110.651,9.963-171.472,8.77
			c-6.192-0.121-12.568-0.763-18.029-3.684c-5.461-2.921-6.361-7.968-6.141-14.157c0.219-6.189,6.349-15.813,25.798-14.78
			c24.767,1.315,45.472,9.527,77.503,12.359c28.707,2.539,66.11-8.586,93.053,1.642c0,0,22.828,13.704,26.268,21.454
			c2.001,4.507-0.992,19.699-0.992,19.699s-9.651,1.451-13.328-6.412C537.216,332.591,528.231,315.563,528.231,315.563z"/>
		<g>
			<path style="fill:#2D5063;" d="M526.257,398.182c-16.341,0-31.873-3.14-45.911-8.783c-1.055,11.892-2.174,23.929-3.152,35.952
				c-0.602,7.401-1.121,14.931-1.603,22.512c15.826,3.7,43.686,9.959,43.686,9.959l9.595-12.606l8.075,12.606l47.201-9.954
				c-1.966-8.665-2.7-16.063-4.575-24.476l3.058-38.797C566.021,393.239,546.775,398.182,526.257,398.182z"/>
			<path style="fill:#2D5063;" d="M328.007,353.324c0.499,3.067,1.047,6.154,1.81,9.146l0.557-0.321
				c22.889-6.624,58.06-20.251,88.972-32.327c-3.801-9.656-6.056-19.977-6.502-30.72
				C382.716,316.012,349.71,335.715,328.007,353.324z"/>
			<path style="fill:#425E70;" d="M582.631,384.595l5.513-69.94c0,0,27.704-33.953,19.683-44.178
				c-10.46-13.334-37.605-15.095-47.128-17.134c-12.764,24.494-20.016,42.791-30.066,70.425
				c-9.613-25.968-12.764-45.252-14.786-70.459c-5.673,0.767-15.745,2.265-18.193,3.102c-16.639,5.693-22.019,8.237-33.605,14.604
				c-13.249,7.281-31.62,17.095-51.203,28.087c0.446,10.743,2.701,21.064,6.502,30.72c33.722-13.173,62.376-24.501,64.475-22.871
				c1.314,24.895-0.882,53.22-3.475,82.447c14.038,5.643,29.57,8.783,45.911,8.783C546.775,398.182,566.021,393.239,582.631,384.595
				z"/>
		</g>
		<path style="fill:#F4D3A8;" d="M328.255,362.823c-3.542,5.552-4.306,13.453,0.024,18.415c6.057-3.268,12.114-6.535,18.171-9.803
			c2.59-1.397,5.219-2.823,7.305-4.899c2.086-2.076,3.589-4.931,3.362-7.865c-0.517-6.695-8.663-6.327-13.673-6.718
			C337.364,351.479,331.269,358.099,328.255,362.823z"/>
		<path style="fill:#A6E4F4;" d="M570.635,309.864c-1.25-0.849-3.07-0.159-3.954,1.066c-0.884,1.226-1.077,2.803-1.237,4.306
			c0.283-1.753-1.673-3.392-3.393-2.95c-1.72,0.443-2.676,2.618-1.988,4.254s2.733,2.492,4.44,2.002
			c-1.314,0.092-2.677,0.199-3.823,0.848c-1.146,0.649-2.002,2.01-1.636,3.275c0.4,1.38,2.036,2.038,3.472,1.98
			c2.01-0.082,3.945-1.242,4.964-2.977c-0.606,1.713,0.266,3.837,1.933,4.562c1.667,0.724,3.866-0.145,4.519-1.841
			c0.653-1.696-0.463-3.862-2.24-4.245c1.335,0.756,3.234,0.239,4.002-1.089c0.768-1.327,0.269-3.231-1.05-4.011
			c-1.079-0.639-2.542-0.18-3.643-0.179C571.661,313.355,572.344,311.024,570.635,309.864z"/>
		<path style="fill:#663616;" d="M486.391,178.33c0.659,8.558,4.55,16.523,8.92,23.911c-2.431-4.11-2.171-12.316-2.349-16.977
			c-0.24-6.281,0.5-12.315,1.277-18.522c0.55-4.397-0.574-9.972-4.502-4.074C486.826,167.038,485.996,173.211,486.391,178.33z"/>
		<path style="fill:#755438;" d="M392.431,248.64c-1.679,5.958-4.768,12.162-2.769,18.02c2.232,6.54,10.032,9.911,12.304,16.437
			c1.419,4.077,0.34,8.69-1.859,12.404c-2.2,3.714-5.415,6.701-8.584,9.632c-4.548,4.205-9.096,8.411-13.644,12.616
			c-0.675,0.624-1.457,1.289-2.375,1.242c-0.962-0.049-1.689-0.859-2.281-1.619c-13.941-17.873-18.004-42.986-10.411-64.343
			c1.85-5.203,4.432-10.304,8.543-13.993C381.755,229.701,397.031,232.319,392.431,248.64z"/>
		<path style="fill:#F8FEFF;" d="M329.064,188.17c-20.102,42.589-50.369,80.337-87.569,109.217
			c-21.479,16.675-45.173,30.405-66.065,47.81s-39.347,39.463-45.558,65.936c7.792-8.201,19.551-9.381,30.587-6.892
			c11.036,2.489,20.749,8.933,29.663,15.898c8.914,6.965,17.384,14.623,27.239,20.178c18.802,10.598,42.203,12.667,62.572,5.531
			c-4.537-19.396,2.689-38.418,10.978-56.531c8.289-18.113,19.584-34.707,28.191-52.671
			C341.331,290.25,346.024,236.741,329.064,188.17z"/>
		<path style="fill:#755438;" d="M343.243,366.472c-9.928-0.161-20.296-0.432-29.029-5.154
			c-8.734-4.722-15.111-15.405-11.583-24.686c1.588-4.176,4.866-7.44,7.41-11.114c9.822-14.185,8.073-33.076,5.922-50.195
			c-1.029-8.187,19.341-25.996,27.046-23.042c7.704,2.954,12.716-10.779,16.386-3.389c7.438,14.974,4.4,66.895,4.596,83.614
			c0.089,7.59-0.657,15.402-4.079,22.178C356.49,361.461,350.833,366.595,343.243,366.472z"/>
		<g>
			<path style="fill:#EABA86;" d="M373.675,295.17c5.099,3.676,11.61,6.3,17.63,4.491c3.482-1.046,6.316-3.494,8.325-6.553
				c-3.678-5.345-15.465-10.885-20.984-17.107c-3.305-3.725-1.038-18.204-0.418-23.145l-22.658-2.769
				c3.602,7.491,1.113,22.793-4.092,30.206c2.631,0.604,5.204,1.702,7.472,3.121C364.278,286.748,368.575,291.494,373.675,295.17z"
				/>
			<g>
				<path style="fill:#A6E4F4;" d="M401.028,366.607c-2.003-5.004-2.622-8.789-2.568-11.909
					c-14.885,4.197-30.716,5.032-45.957,2.416c0.556,2.063,1.025,4.187,1.358,6.397c-2.161,0.707-4.228,1.472-6.277,2.249
					C364.136,373.647,384.205,373.88,401.028,366.607z"/>
				<path style="fill:#E6F5FA;" d="M398.461,354.698c0.053-3.082,0.731-5.542,1.451-7.799c1.683-5.273,4.273-13.745,5.964-19.015
					c4.354-13.567,1.337-23.753-6.246-34.775c-2.009,3.058-4.843,5.507-8.325,6.553c-6.02,1.809-12.531-0.815-17.63-4.491
					c-5.1-3.676-9.397-8.422-14.726-11.756c-2.268-1.419-4.841-2.517-7.472-3.121c-0.387,0.551-0.785,1.069-1.202,1.526
					c-29.449,32.395-5.139,47.926,2.229,75.295C367.745,359.73,383.576,358.896,398.461,354.698z"/>
				<g>
					<path style="fill:#F0F9FC;" d="M245.661,578.883c26.559,24.966,68.204,33.822,105.761,27.504
						c33.833-5.692,64.403-22.457,89.554-43.971c-3.918-20.007-7.127-42.097-9.331-67.899
						c-3.821-44.751-7.986-82.689-28.285-122.755c-0.943-1.862-1.692-3.556-2.332-5.155c-16.824,7.273-36.892,7.04-53.444-0.847
						c-37.682,14.296-56.97,40.254-84.063,72.134c-15.643,18.407-32.643,40.309-48.715,62.469
						C214.51,529.373,223.747,558.284,245.661,578.883z"/>
					<g>
						<path style="fill:#E6F5FA;" d="M296.539,671.204c34.756-4.554,69.394-11.782,101.786-25.176
							c19.669-8.133,38.492-18.676,55.281-31.711c-4.675-16.334-8.966-33.196-12.629-51.9
							c-25.152,21.514-55.722,38.28-89.554,43.971c-37.557,6.318-79.202-2.538-105.761-27.504
							c-21.914-20.599-31.151-49.51-30.855-78.52c-13.277,18.305-25.924,36.786-36.634,53.623
							c-17.18,27.011-38.932,53.792-62.132,77.702c15.878,15.293,35.855,26.853,56.865,33.673
							C212.479,678.207,255.285,676.609,296.539,671.204z"/>
						<path style="fill:#DCEFF4;" d="M398.325,646.027c-32.392,13.395-67.03,20.622-101.786,25.176
							c-41.254,5.405-84.06,7.003-123.634-5.843c-21.01-6.82-40.987-18.38-56.865-33.673c-8.77,9.038-17.739,17.678-26.756,25.747
							C72.448,672.5,52.35,685.982,29.777,686.918c60.608,28.362,228.827,72.062,390.135,30.368
							c48.399-12.51,57.053-27.053,57.053-27.053c-8.142-27.153-16.204-50.912-23.36-75.918
							C436.817,627.352,417.994,637.894,398.325,646.027z"/>
					</g>
				</g>
			</g>
		</g>
		<g>
			<path style="fill:#96633E;" d="M352.603,211.79c-0.223-0.396-0.449-0.793-0.678-1.19c1.496,9.621,0.083,19.709-4.408,28.359
				c-4.426,8.526-11.375,15.414-17.371,22.92c-5.995,7.506-11.272,16.301-11.311,25.908c-0.03,7.436,3.073,14.467,5.081,21.627
				c1.768,6.307,2.566,13.454-0.142,19.26c4.974-5.025,7.591-12.396,6.612-19.423c-0.795-5.706-3.723-11.013-4.039-16.765
				c-0.555-10.122,6.928-18.784,14.481-25.546c7.553-6.762,16.099-13.512,18.921-23.249
				C362.868,232.932,358.089,221.555,352.603,211.79z"/>
			<path style="fill:#875C39;" d="M323.917,309.413c-2.008-7.16-5.111-14.191-5.081-21.627c0.039-9.606,5.316-18.401,11.311-25.908
				c5.995-7.506,12.944-14.394,17.371-22.92c4.49-8.65,5.903-18.738,4.408-28.359c-3.882-6.743-8.616-13.401-15.682-16.543
				c-7.481-3.327-13.024-3.001-12.511,5.17c0.596,9.504-2.849,18.516-0.368,27.71c2.481,9.194,3.781,19.299-0.079,28.004
				c-3.383,7.629-10.213,13.066-15.459,19.556c-5.246,6.49-8.985,15.719-4.986,23.044c2.414,4.421,7.503,8.08,6.784,13.065
				c-0.554,3.836-4.494,6.272-8.27,7.148c-3.776,0.876-7.789,0.762-11.397,2.179c-7.72,3.032-11.342,12.853-8.964,20.799
				c2.378,7.946,9.541,13.802,17.405,16.439c-3.715-3.012-5.444-7.807-2.85-11.825c2.594-4.018,7.074-6.394,11.532-8.125
				c4.458-1.731,9.154-3.023,13.156-5.64c1.284-0.839,2.464-1.821,3.539-2.907C326.483,322.867,325.685,315.721,323.917,309.413z"/>
		</g>
		<path style="fill:#66656B;" d="M492.686,690.223c-2.305,9.761-32.992,14.819-39.831,17.147
			c-6.839,2.328-13.224,4.154-13.004,11.375c3.498,7.854,36.692,9.076,56.995,4.325c7.194-1.684,18.34-0.867,22.43-7.02
			c-1.246-6.013-1.245-15.436-2.491-21.449c-0.468-2.259-4.562-1.022-5.989-2.834c-1.983-2.517-5.43-3.51-8.629-3.314
			C498.968,688.649,495.659,689.026,492.686,690.223z"/>
		<path style="fill:#66656B;" d="M598.897,691.85c-4.282,6.174-8.564,12.349-12.845,18.523c-1.838,2.651-3.722,5.407-4.31,8.579
			c-0.588,3.172,0.354,7.177,3.341,8.397c5.709,2.333,32.857,3.563,45.393-0.899c3.499-10.315-8.182-19.304-10.903-27.906
			C616.772,689.69,608.179,692.146,598.897,691.85z"/>
		<path style="fill:#F4D3A8;" d="M357.487,252.071c10.578,4.872,23.076,7.97,30.329,4.872c8.133-3.474,16.164-15.992,18.169-27.124
			c3.134-17.403,4.109-36.49-5.892-50.619c-10-14.13-28.326-18.41-44.143-12.793c0,0-18.357,0.203-16.227,40.188
			C341.004,230.639,346.076,246.815,357.487,252.071z"/>
		<path style="fill:#875C39;" d="M407.322,220.185c9.382-9.378,7.941-23.952,2.787-35.482c-4.341-9.711-11.24-14.211-17.025-15.671
			c-5.002-1.262-6.188,2.143-4.623,7.179c1.867,6.009,7.919,9.187,12.256,13.622C410.108,199.438,409.764,213.285,407.322,220.185z"
			/>
		<path style="fill:#E6F5FA;" d="M344.659,237.193c0,1.345-1.09,2.435-2.435,2.435c-1.345,0-2.435-1.09-2.435-2.435
			s1.09-2.435,2.435-2.435C343.569,234.759,344.659,235.849,344.659,237.193z"/>
		<path style="fill:#96633E;" d="M355.729,207.549c1.401-3.753,4.603-6.787,8.427-7.983s8.184-0.527,11.474,1.759
			c-3.721,0.894-7.001-0.285-10.778,0.33C361.075,202.27,357.38,204.096,355.729,207.549z"/>
		<path style="fill:#96633E;" d="M406.519,207.309c0.169-3.443-1.538-6.608-4.545-7.818c-3.044-1.225-6.705-0.164-9.243,2.433
			c2.653,0.766,5.254-0.552,8.165-0.042C403.86,202.401,406.368,204.172,406.519,207.309z"/>
		<g>
			<g style="opacity:0.7;">
				<path style="fill:#BEE0EA;" d="M375.544,214.471c-0.008,0.021-0.206-0.436-0.581-0.964c-0.181-0.281-0.45-0.582-0.727-0.885
					c-0.283-0.306-0.667-0.563-1.039-0.823c-0.38-0.263-0.856-0.434-1.324-0.639c-0.48-0.196-1.029-0.322-1.597-0.442
					c-0.573-0.113-1.175-0.214-1.795-0.264c-0.616-0.07-1.251-0.074-1.846-0.071c-0.297,0.002-0.586,0.039-0.829,0.062
					c-0.216,0.031-0.117,0.011-0.281,0.045c-0.107,0.018-0.217,0.054-0.329,0.082c-0.452,0.117-0.933,0.305-1.403,0.522
					c-0.463,0.232-0.881,0.527-1.3,0.806c-0.407,0.296-0.739,0.632-1.074,0.958c-0.311,0.338-0.566,0.695-0.796,1.047
					c-0.204,0.356-0.367,0.71-0.493,1.026c-0.109,0.314-0.203,0.592-0.248,0.783c-0.053,0.198-0.081,0.304-0.081,0.304l-0.287,0.087
					c0,0-0.028-0.097-0.082-0.278c-0.052-0.181-0.119-0.452-0.165-0.803c-0.093-0.694-0.103-1.756,0.369-2.894
					c0.445-1.137,1.316-2.321,2.534-3.235c0.607-0.458,1.302-0.846,2.062-1.117c0.76-0.279,1.602-0.389,2.398-0.37
					c1.611,0.014,3.203,0.34,4.604,0.901c1.397,0.564,2.588,1.413,3.341,2.382c0.768,0.964,1.055,1.98,1.173,2.668
					c0.054,0.351,0.081,0.634,0.083,0.813c0.007,0.184,0.011,0.282,0.011,0.282L375.544,214.471z"/>
			</g>
			<path style="fill:#FFFFFF;" d="M371.7,210.501c0,0-8.921-2.365-12.042,5.043c0,0,0.525,6.042,8.022,5.433
				c0,0,5.481,0.683,7.873-3.285C375.553,217.693,376.251,211.799,371.7,210.501z"/>
			<path style="fill:#25A2AF;" d="M374.67,215.544c0,3.196-2.591,5.787-5.787,5.787s-5.787-2.591-5.787-5.787
				c0-3.196,2.591-5.787,5.787-5.787S374.67,212.348,374.67,215.544z"/>
			<path style="fill:#56341B;" d="M372.647,215.951c-0.219,1.918-1.951,3.295-3.869,3.076c-1.918-0.219-3.295-1.951-3.076-3.869
				c0.219-1.918,1.952-3.295,3.869-3.076C371.489,212.301,372.866,214.033,372.647,215.951z"/>
			<path style="fill:#FFFFFF;" d="M367.68,214.06c0,1.105-0.896,2.001-2.001,2.001c-1.105,0-2.001-0.896-2.001-2.001
				c0-1.105,0.896-2.001,2.001-2.001C366.784,212.059,367.68,212.955,367.68,214.06z"/>
			<g>
				<g>
					<path style="fill:#755438;" d="M375.693,214.462c0,0-0.22-0.258-0.621-0.658c-0.189-0.201-0.449-0.418-0.731-0.673
						c-0.296-0.242-0.641-0.491-1.015-0.75c-0.391-0.24-0.814-0.486-1.277-0.704c-0.457-0.23-0.973-0.39-1.489-0.564
						c-0.524-0.161-1.081-0.242-1.639-0.317c-0.543-0.05-1.169-0.052-1.651-0.009c-0.699,0.079-1.124,0.183-1.697,0.344
						c-0.53,0.186-1.061,0.373-1.543,0.635c-0.472,0.272-0.944,0.532-1.348,0.847c-0.411,0.305-0.776,0.63-1.113,0.942
						c-0.316,0.328-0.604,0.641-0.847,0.935c-0.226,0.304-0.438,0.57-0.586,0.808c-0.313,0.468-0.478,0.762-0.478,0.762
						s0.007-0.082,0.02-0.237c0.02-0.153,0.016-0.392,0.089-0.675c0.052-0.291,0.144-0.639,0.286-1.031
						c0.147-0.388,0.341-0.821,0.609-1.267c0.531-0.888,1.354-1.835,2.452-2.589c0.552-0.369,1.159-0.711,1.821-0.963
						c0.633-0.244,1.472-0.424,2.056-0.492c0.806-0.067,1.475-0.04,2.193,0.07c0.698,0.119,1.361,0.332,1.975,0.585
						c1.224,0.524,2.217,1.288,2.914,2.054c0.351,0.383,0.625,0.77,0.847,1.121c0.216,0.355,0.376,0.68,0.488,0.958
						c0.13,0.267,0.167,0.492,0.218,0.639C375.67,214.383,375.693,214.462,375.693,214.462z"/>
				</g>
				<g>
					<path style="fill:#755438;" d="M361.905,220.185c0,0,0.175,0.007,0.476,0.034c0.296,0.032,0.72,0.077,1.228,0.131
						c1.006,0.107,2.33,0.271,3.651,0.353c1.321,0.103,2.641,0.129,3.643,0.103c0.998-0.027,1.69-0.11,1.69-0.11
						s-0.585,0.405-1.604,0.678c-1.01,0.285-2.414,0.428-3.8,0.326c-0.692-0.059-1.381-0.151-2.013-0.298
						c-0.634-0.139-1.213-0.315-1.701-0.496c-0.491-0.178-0.882-0.356-1.149-0.497C362.057,220.272,361.905,220.185,361.905,220.185
						z"/>
				</g>
			</g>
			<path style="fill:#755438;" d="M361.739,212.699c-0.896,0.889-1.622,1.947-2.13,3.102c-1.601-0.354-2.969-1.833-3.049-3.471
				c1.567,0.333,3.168,0.293,4.724-0.086c0.155-0.038,0.324-0.077,0.468-0.008C361.894,212.306,361.852,212.587,361.739,212.699z"/>
		</g>
		<g>
			<g style="opacity:0.7;">
				<path style="fill:#BEE0EA;" d="M405.236,213.969c0,0-0.074-0.078-0.185-0.227c-0.116-0.14-0.276-0.386-0.471-0.626
					c-0.188-0.233-0.417-0.516-0.679-0.841c-0.28-0.298-0.538-0.62-0.85-0.898c-0.323-0.27-0.643-0.503-0.948-0.68
					c-0.323-0.159-0.618-0.254-0.922-0.329c-0.308-0.066-0.632-0.125-1.041-0.145c-0.162-0.028-0.491-0.011-0.571-0.024
					l-0.127,0.001l0.024,0.003c0.022-0.002,0.036-0.01-0.007-0.001c-0.05,0.003-0.117,0.02-0.187,0.035
					c-0.299,0.06-0.701,0.226-1.116,0.433c-0.41,0.217-0.844,0.474-1.244,0.772c-0.416,0.284-0.805,0.604-1.173,0.928
					c-0.367,0.325-0.731,0.65-1.025,0.991c-0.294,0.339-0.603,0.659-0.828,0.978c-0.231,0.316-0.459,0.605-0.617,0.862
					c-0.336,0.51-0.534,0.848-0.534,0.848l-0.3-0.008c0,0-0.008-0.346,0.056-0.948c0.072-0.599,0.229-1.46,0.63-2.423
					c0.406-0.956,1.035-2.013,1.918-2.973c0.878-0.954,2.001-1.85,3.371-2.299c0.335-0.105,0.717-0.18,1.073-0.193
					c0.365,0.001,0.704,0.019,1.051,0.074c0.689,0.088,1.36,0.301,1.948,0.623c0.59,0.319,1.092,0.746,1.487,1.212
					c0.382,0.478,0.669,0.978,0.881,1.459c0.206,0.484,0.348,0.942,0.436,1.356c0.086,0.413,0.143,0.776,0.173,1.079
					c0.064,0.598,0.073,0.933,0.073,0.933L405.236,213.969z"/>
			</g>
			<path style="fill:#FFFFFF;" d="M401.983,210.606c0,0-6.827-1.806-9.278,5.306c0,0,0.409,5.575,6.162,4.524
				c0,0,4.763,0.521,5.91-3.459C405.259,215.305,404.529,212.381,401.983,210.606z"/>
			<path style="fill:#25A2AF;" d="M403.709,215.078c-0.036,2.896-1.984,5.396-4.376,5.601c-2.421,0.208-4.398-2.005-4.389-4.963
				c0.009-2.977,2.023-5.524,4.472-5.67C401.835,209.902,403.746,212.163,403.709,215.078z"/>
			<path style="fill:#56341B;" d="M401.509,215.559c-0.182,1.758-1.49,3.113-2.931,3.03c-1.452-0.083-2.494-1.593-2.317-3.376
				c0.177-1.788,1.511-3.154,2.969-3.045C400.676,212.275,401.692,213.795,401.509,215.559z"/>
			<path style="fill:#FFFFFF;" d="M398.47,214.091c-0.007,1.019-0.695,1.894-1.539,1.957c-0.848,0.063-1.535-0.717-1.532-1.743
				c0.004-1.029,0.699-1.91,1.551-1.965C397.798,212.285,398.477,213.07,398.47,214.091z"/>
			<g>
				<g>
					<path style="fill:#755438;" d="M404.92,214.215c0,0-0.179-0.217-0.499-0.556c-0.15-0.169-0.357-0.353-0.578-0.567
						c-0.234-0.204-0.506-0.413-0.8-0.628c-0.309-0.198-0.639-0.401-1.002-0.57c-0.361-0.174-0.758-0.303-1.162-0.408
						c-0.405-0.108-0.833-0.145-1.256-0.145c-0.212-0.008-0.425,0.02-0.636,0.04l-0.275,0.038l-0.385,0.091
						c-0.398,0.107-0.792,0.256-1.2,0.46c-0.387,0.217-0.789,0.42-1.134,0.697c-0.348,0.268-0.687,0.541-0.986,0.832
						c-0.292,0.295-0.576,0.581-0.814,0.87c-0.241,0.286-0.455,0.564-0.637,0.819c-0.181,0.256-0.336,0.488-0.461,0.684
						c-0.249,0.403-0.391,0.633-0.391,0.633s-0.001-0.068-0.002-0.196c0.006-0.127-0.018-0.324,0.015-0.562
						c0.025-0.24,0.052-0.538,0.138-0.867c0.074-0.333,0.177-0.71,0.35-1.098c0.154-0.397,0.367-0.813,0.641-1.224
						c0.269-0.415,0.588-0.84,0.987-1.218c0.388-0.388,0.838-0.758,1.346-1.064c0.496-0.307,1.089-0.549,1.708-0.717l0.387-0.082
						c0.237-0.041,0.333-0.044,0.506-0.067c0.31-0.03,0.623-0.031,0.928-0.004c0.614,0.033,1.198,0.206,1.727,0.415
						c1.069,0.421,1.872,1.142,2.402,1.822c0.269,0.342,0.464,0.688,0.617,0.997c0.149,0.311,0.249,0.595,0.315,0.834
						c0.083,0.231,0.088,0.42,0.116,0.546C404.909,214.147,404.92,214.215,404.92,214.215z"/>
				</g>
				<g>
					<path style="fill:#755438;" d="M395.266,220.072c0,0,0.144-0.008,0.393-0.005c0.242,0.004,0.589,0.01,1.005,0.017
						c0.405-0.002,0.877-0.005,1.383-0.008c0.5-0.03,1.031-0.031,1.555-0.101c1.051-0.09,2.087-0.292,2.846-0.535
						c0.765-0.228,1.262-0.522,1.262-0.522s-0.068,0.124-0.221,0.331c-0.162,0.192-0.418,0.468-0.786,0.706
						c-0.36,0.253-0.822,0.487-1.34,0.658c-0.515,0.187-1.089,0.294-1.664,0.357c-1.156,0.114-2.311-0.055-3.127-0.322
						c-0.415-0.134-0.741-0.271-0.959-0.389C395.391,220.146,395.266,220.072,395.266,220.072z"/>
				</g>
			</g>
			<path style="fill:#755438;" d="M402.115,210.831c0.91,0.486,1.945,0.735,2.976,0.715c0.31-0.006,0.628-0.038,0.903-0.182
				c0.275-0.143,0.498-0.419,0.502-0.729c0.194,1.339-0.459,2.764-1.6,3.49C403.993,213.012,403.018,211.945,402.115,210.831z"/>
		</g>
		<path style="fill:#EABA86;" d="M388.14,217.837c0.005-0.615,0.176-1.19,0.44-1.72c-1.432,1.098-2.157,1.678-2.397,3.61
			c-0.257,2.076,0.348,4.246,1.643,5.888c0.926,1.174,2.193,2.101,2.846,3.446c0.653,1.345,0.919,3.579-0.533,3.94
			c2.107-0.329,3.042-2.979,3.841-4.932c0.08-0.195,0.144-0.405,0.193-0.616C390.145,226.261,388.109,222.067,388.14,217.837z"/>
		<g>
			<path style="fill:#E88867;" d="M392.107,237.476c-0.525,1.505-3.364,8-4.531,9.086c-1.463,1.361-4.767,1.479-6.742,1.178
				c-2.777-0.423-4.572-1.606-6.158-3.925c-1.586-2.318-2.16-5.304-1.547-8.045c1.146-0.102,3.219,0.002,4.89-0.29
				c2.999-0.524,6.244-0.415,8.412,1.583C389.292,234.691,392.602,236.055,392.107,237.476z"/>
			<g>
				<path style="fill:#FFFFFF;" d="M378.899,239.186c9.676,2.074,12.505-1.394,12.806-2.321c-0.118,0.019-0.236,0.014-0.355,0.031
					c-1.617,0.763-11.747,0.722-16.915-0.883C374.421,236.779,375.351,238.426,378.899,239.186z"/>
				<g>
					<path style="fill:#B54900;" d="M385.286,240.364c-0.171-0.191-0.39-0.361-0.579-0.544c-1.59,0.028-3.493-0.137-5.809-0.634
						c-3.547-0.76-4.477-2.407-4.464-3.173c-0.281-0.087-0.561-0.175-0.81-0.271c0,0,0.338,5.059,3.006,7.475
						c2.45,2.219,8.111,2.428,9.8,1.474c0.21-0.119,0.344-0.247,0.531-0.368C386.943,242.952,386.36,241.563,385.286,240.364z"/>
					<path style="fill:#913E00;" d="M391.569,236.716c-0.021,0.064-0.099,0.125-0.219,0.181c0.119-0.017,0.237-0.012,0.355-0.031
						c-0.229,0.704-1.942,2.866-6.997,2.954c0.189,0.183,0.408,0.353,0.579,0.544c1.073,1.199,1.657,2.589,1.675,3.96
						c2.084-1.35,2.865-2.838,3.941-4.666c0.64-1.087,1.402-2.17,2.67-3.151C392.909,236.609,392.236,236.639,391.569,236.716z"/>
				</g>
			</g>
		</g>
		<path style="fill:#EABA86;" d="M554.423,245.419c-2.271-8.263-1.745-21.967-1.745-21.967l-29.059,10.454
			c-0.26,4.746-0.591,9.546-1.931,14.091C532.599,249.726,543.907,248.804,554.423,245.419z"/>
		<path style="fill:#F4D3A8;" d="M548.109,228.86c-9.969,6.871-26.345,13.442-34.046,10.627
			c-8.635-3.157-21.069-24.611-21.778-39.298c-0.886-18.362-5.016-28.005,4.586-43.225c9.601-15.22,28.388-20.676,45.118-15.719
			c0,0,23.208,4.725,24.258,40.547C566.71,197.558,560.029,220.644,548.109,228.86z"/>
		
			<path style="fill:#663616;stroke:#663616;stroke-width:0.9676;stroke-linecap:round;stroke-linejoin:round;stroke-miterlimit:10;" d="
			M545.053,184.933c-2.264-3.496-6.195-5.857-10.345-6.213c-4.149-0.356-10.357,1.444-13.183,4.503
			c3.978,0.073,8.974-2.003,12.945-2.226C538.443,180.773,542.603,181.799,545.053,184.933z"/>
		
			<path style="fill:#663616;stroke:#663616;stroke-width:0.9676;stroke-linecap:round;stroke-linejoin:round;stroke-miterlimit:10;" d="
			M491.623,190.32c-0.123-3.351,1.7-6.403,4.844-7.531c3.182-1.142,7.938-0.122,10.536,2.445c-2.769,0.702-6.418-0.551-9.452-0.102
			C494.461,185.59,491.827,187.271,491.623,190.32z"/>
		<g>
			<path style="fill:#FFFFFF;" d="M527.286,190.021c0,0,5.959-2.932,10.099,3.496c0,0,0.276,5.051-6.122,5.168
				c0,0-4.574,1.12-6.962-2.304C524.301,196.381,523.555,191.622,527.286,190.021z"/>
			<path style="fill:#AD6327;" d="M528.53,189.25c-0.878,0.55-1.797,1.036-2.665,1.596c-0.184,0.247-0.373,0.49-0.548,0.741
				c-0.114,0.163-0.223,0.331-0.337,0.494c-0.127,0.182-0.212,0.585-0.103,0.139c-0.02,0.051-0.062,0.09-0.088,0.139
				c-0.032,0.073-0.067,0.144-0.099,0.217c-0.125,0.521-0.346,1.018-0.651,1.51c0.002,0.11-0.007,0.218,0.005,0.33
				c0.267,2.585,2.579,4.464,5.164,4.197c2.585-0.267,4.464-2.579,4.197-5.164C533.148,190.961,530.995,189.148,528.53,189.25z"/>
			<path style="fill:#56341B;" d="M526.118,194.485c0.288,1.309,1.583,2.137,2.892,1.849c1.309-0.288,2.136-1.583,1.849-2.892
				c-0.288-1.309-1.583-2.137-2.892-1.849C526.658,191.882,525.831,193.176,526.118,194.485z"/>
			<path style="fill:#FFFFFF;" d="M530.425,193.405c0.52,0.423,1.284,0.344,1.707-0.176c0.423-0.52,0.344-1.284-0.176-1.707
				c-0.52-0.423-1.284-0.344-1.707,0.176C529.826,192.218,529.905,192.982,530.425,193.405z"/>
			<g>
				<g>
					<path style="fill:#755438;" d="M523.928,194.092c0,0,0.018-0.069,0.051-0.199c0.04-0.128,0.065-0.323,0.165-0.556
						c0.17-0.477,0.46-1.149,0.986-1.858c0.517-0.712,1.286-1.438,2.256-2.005c0.492-0.268,1.026-0.513,1.6-0.672
						c0.585-0.15,1.163-0.236,1.811-0.243c0.537,0.007,1.216,0.112,1.768,0.267c0.576,0.155,1.102,0.415,1.593,0.683
						c0.966,0.57,1.735,1.292,2.253,2.003c0.529,0.705,0.828,1.376,1.001,1.847c0.102,0.229,0.131,0.43,0.173,0.556
						c0.035,0.129,0.054,0.198,0.054,0.198s-0.137-0.254-0.396-0.671c-0.243-0.427-0.681-0.979-1.252-1.566
						c-0.576-0.586-1.343-1.161-2.236-1.616c-0.451-0.218-0.935-0.397-1.436-0.532c-0.525-0.126-0.97-0.197-1.566-0.202
						c-0.484-0.002-1.034,0.06-1.53,0.18c-0.5,0.136-0.987,0.302-1.439,0.52c-0.44,0.235-0.87,0.469-1.238,0.754
						c-0.373,0.276-0.705,0.57-0.996,0.859c-0.569,0.589-0.999,1.15-1.236,1.575C524.06,193.835,523.928,194.092,523.928,194.092z"
						/>
				</g>
			</g>
		</g>
		<g>
			<path style="fill:#FFFFFF;" d="M498.342,192.614c0,0,5.991-2.521,9.136,3.648c0,0,0.342,5.134-5.037,4.913
				c0,0-4.274,1.085-5.83-2.396C495.958,197.317,495.384,193.939,498.342,192.614z"/>
			<path style="fill:#AD6327;" d="M496.621,196.956c0.38,2.475,2.348,4.381,4.421,4.269c2.098-0.113,3.524-2.246,3.16-4.777
				c-0.366-2.548-2.397-4.486-4.511-4.316C497.602,192.299,496.239,194.465,496.621,196.956z"/>
			<path style="fill:#56341B;" d="M498.834,197.045c0.323,1.302,1.448,2.181,2.522,1.967c1.082-0.216,1.706-1.46,1.385-2.781
				c-0.322-1.325-1.469-2.21-2.552-1.975C499.113,194.49,498.51,195.739,498.834,197.045z"/>
			<path style="fill:#FFFFFF;" d="M501.307,195.458c0.098,0.662,0.625,1.168,1.18,1.132c0.557-0.037,0.933-0.606,0.837-1.273
				c-0.096-0.669-0.629-1.178-1.188-1.136C501.579,194.221,501.209,194.794,501.307,195.458z"/>
			<g>
				<g>
					<path style="fill:#755438;" d="M496.128,196.28c0,0-0.009-0.062-0.026-0.18c-0.009-0.118-0.059-0.286-0.057-0.509
						c0.006-0.224-0.001-0.507,0.069-0.82c0.053-0.315,0.168-0.673,0.375-1.023c0.202-0.352,0.487-0.705,0.857-0.992
						c0.36-0.303,0.793-0.542,1.259-0.731c0.467-0.189,0.969-0.314,1.484-0.399c0.522-0.076,1.032-0.098,1.587-0.071
						c0.237,0.005,0.519,0.057,0.8,0.112c0.264,0.069,0.524,0.132,0.77,0.231c0.502,0.173,0.958,0.427,1.368,0.705
						c0.83,0.549,1.46,1.237,1.898,1.877c0.448,0.637,0.694,1.238,0.847,1.654c0.087,0.204,0.113,0.382,0.149,0.494
						c0.03,0.114,0.046,0.175,0.046,0.175s-0.134-0.212-0.368-0.583c-0.225-0.372-0.62-0.853-1.114-1.381
						c-0.504-0.522-1.148-1.066-1.914-1.504c-0.381-0.221-0.795-0.406-1.224-0.552c-0.212-0.081-0.437-0.127-0.655-0.18
						c-0.208-0.035-0.418-0.071-0.682-0.089c-0.442-0.031-0.935-0.024-1.388,0.034c-0.457,0.056-0.909,0.128-1.32,0.267
						c-0.406,0.145-0.805,0.288-1.126,0.513c-0.33,0.211-0.613,0.455-0.826,0.726c-0.211,0.27-0.384,0.547-0.489,0.818
						c-0.123,0.268-0.169,0.517-0.221,0.726C496.156,196.027,496.128,196.28,496.128,196.28z"/>
				</g>
			</g>
		</g>
		<path style="fill:#EABA86;" d="M508.77,194.258c-0.264-0.827-0.715-1.537-1.263-2.149c2.219,0.932,3.351,1.436,4.458,3.949
			c1.188,2.699,1.357,5.855,0.457,8.565c-0.643,1.936-1.808,3.67-2.044,5.733c-0.236,2.063,0.376,5.175,2.309,5.107
			c-2.724,0.362-4.985-2.852-6.786-5.178c-0.18-0.232-0.346-0.491-0.495-0.757C509.849,206.379,510.586,199.947,508.77,194.258z"/>
		<g>
			<path style="fill:#EABA86;" d="M509.638,221.191c0.307,1.02,2.281,5.755,3.305,6.604c1.326,1.1,4.657,1.192,6.718,0.933
				c2.953-0.37,4.885-1.387,6.556-3.335c1.633-1.904,2.12-4.231,1.373-6.222C526.419,219.154,509.355,220.254,509.638,221.191z"/>
			<g>
				<path style="fill:#FFFFFF;" d="M521.802,221.999c-9.375,1.883-11.59-0.573-11.759-1.213c0.101,0.008,0.203,0.001,0.305,0.008
					c1.348,0.477,10.781,0.048,15.918-1.377C526.299,219.987,525.386,221.279,521.802,221.999z"/>
				<g>
					<path style="fill:#B54900;" d="M515.562,223.109c0.173-0.15,0.39-0.285,0.579-0.43c1.515-0.031,3.365-0.219,5.661-0.68
						c3.583-0.72,4.497-2.012,4.463-2.583c0.283-0.078,0.565-0.157,0.816-0.241c0,0-0.184,3.924-2.959,5.972
						c-2.582,1.907-8.362,2.146-9.949,1.383c-0.194-0.093-0.312-0.194-0.483-0.289C513.815,225.15,514.469,224.056,515.562,223.109z
						"/>
					<path style="fill:#913E00;" d="M510.176,220.676c0.012,0.044,0.074,0.083,0.172,0.118c-0.102-0.007-0.204,0.001-0.305-0.008
						c0.129,0.486,1.439,1.987,6.098,1.894c-0.189,0.144-0.406,0.279-0.579,0.43c-1.093,0.947-1.747,2.041-1.871,3.132
						c-1.852-1.031-2.431-2.156-3.222-3.487c-0.457-0.767-1.009-1.509-1.989-2.144C509.033,220.655,509.608,220.649,510.176,220.676
						z"/>
				</g>
			</g>
		</g>
		<ellipse style="opacity:0.3;fill:#E88867;" cx="361.55" cy="228.93" rx="6.77" ry="5.941"/>
		<path style="opacity:0.3;fill:#E88867;" d="M395.995,227.57c-0.93,3.146,0.375,6.306,2.914,7.056s5.353-1.191,6.283-4.338
			c0.93-3.146-0.375-6.306-2.914-7.056C399.738,222.482,396.926,224.424,395.995,227.57z"/>
		<path style="fill:#663616;" d="M535.506,158.108c7.618-3.143,15.624-5.947,23.908-5.903c-8.143-11.545-24.07-17.469-38.228-14.218
			c-3.263,0.749-6.427,1.936-9.752,2.354c-3.326,0.418-6.986-0.057-9.451-2.23c-1.556-1.371-3.019-3.513-5.103-3.155
			c-1.298,0.223-2.164,1.384-2.821,2.482c-4.449,7.43-9.031,23.157,1.226,28.239C507.484,171.72,524.424,162.681,535.506,158.108z"
			/>
		<path style="fill:#663616;" d="M552.918,192.713c2.133,15.083,7.294,13.564,1.302,30.871
			c21.644-32.964,12.338-66.508,4.485-73.324c-13.025-11.304-33.513,0.955-23.512,2.608c5.9,0.976,11.068,6.061,13.253,9.365
			C551.464,166.798,552.196,187.607,552.918,192.713z"/>
		<path style="fill:#F4D3A8;" d="M565.756,195.295c-0.656,4.965-7.255,12.427-10.552,11.991c-3.298-0.436-5.333-8.474-4.677-13.439
			s3.862-8.637,7.16-8.201C560.985,186.081,566.413,190.329,565.756,195.295z"/>
		<g>
			<path style="fill:#D3DDEA;" d="M535.625,264.088c-8.889-0.675-14.908-2.959-21.058-8.125
				c2.114,23.988,6.555,42.701,15.848,67.805c9.929-27.302,17.137-45.5,29.617-69.554
				C553.626,260.103,545.433,264.832,535.625,264.088z"/>
			<path style="fill:#EEF6FF;" d="M554.206,245.419c-10.516,3.385-21.824,4.307-32.735,2.578c-0.147,0.501-0.25,1.013-0.425,1.507
				c-0.771,2.177-2.298,3.417-6.713,4.013c0.067,0.839,0.161,1.621,0.234,2.447c6.15,5.165,12.169,7.45,21.058,8.125
				c9.809,0.744,18.002-3.985,24.407-9.873c0.152-0.293,0.296-0.577,0.449-0.872C557.035,252.605,554.8,247.58,554.206,245.419z"/>
		</g>
		<g>
			<path style="fill:#3C3B40;" d="M581.146,448.744l-44.2,9.078l-8.075-12.606l-9.595,12.606c0,0-24.274-6.259-40.1-9.959
				c-5.208,81.911-3.693,173.159-1.105,248.262c13.761,2.102,27.761,2.774,41.37-0.153c4.177-72.924,0.135-134.886,7.58-220.304
				c3.593-0.821,2.357,0.258,5.951-0.563c15.303,70.853,48.973,151.483,56.918,223.532c11.822,1.729,22.461,1.266,34.249-0.684
				C620.211,618.307,599.284,528.709,581.146,448.744z"/>
		</g>
		<g>
			<polygon style="fill:#AA3641;" points="530.632,268.591 521.688,302.969 530.415,324.769 543.19,302.393 538.197,268.591 			"/>
			<path style="fill:#AA3641;" d="M527.139,262.825c-2.078,2.385,1.732,12.535,1.732,12.535l10.493,1.132
				c0,0,5.24-10.935,3.051-13.667C540.027,259.845,529.648,259.946,527.139,262.825z"/>
		</g>
		<g>
			<path style="fill:#264D56;" d="M527.881,331.923c12.618-19.121,30.141-34.882,37.807-38.302c2.316-0.625-1.42-7.144-3.539-11.831
				c5.626-3.782,12.213-12.035,12.213-13.091c-2.503-6.788-7.985-13.936-13.663-15.356
				C560.698,253.343,527.799,314.185,527.881,331.923z"/>
			<path style="fill:#264D56;" d="M514.333,253.517c0,0-4.645-0.668-9.914,0.656c-2.412,0.606-9.417,3.201-9.417,3.201
				s6.763,16.603,10.774,20.192c0,0-6.173,5.701-5.304,9.502c0,0,20.299,29.139,30.159,36.699
				C530.632,323.768,513.491,273.552,514.333,253.517z"/>
		</g>
		<path style="fill:#F4D3A8;" d="M513.229,270.43c-53.111,26.249-98.09,33.824-155.799,47.219
			c-5.875,1.364-12.048,2.28-17.901,0.826c-5.853-1.454-7.908-6.005-9.179-11.901c-1.27-5.896,2.219-16.445,20.829-20.114
			c23.698-4.672,45.207-1.862,76.126-6.835c27.71-4.457,56.366-21.889,84.246-18.665c0,0,24.825,7.489,29.923,13.984
			c2.965,3.777,3.767,18.835,3.767,18.835s-8.766,3.674-14.115-2.872C525.777,284.362,513.229,270.43,513.229,270.43z"/>
		<g>
			<path style="fill:#F4D3A8;" d="M584.535,436.156c0,0-10.983,8.172-17.025,18.362c2.07,5.953,6.852,12.713,11.711,15.823
				c4.13-1.517,8.76-4.35,13.746-8.958C610.624,445.066,584.535,436.156,584.535,436.156z"/>
		</g>
		<path style="fill:#425E70;" d="M592.218,260.14c8.804,2.93,24.755,7.572,44.232,79.02
			c18.354,67.327-45.627,126.507-45.627,126.507l-18.322-25.058c0,0,36.858-35.48,28.467-75.379
			C592.578,325.332,570.171,305.927,592.218,260.14z"/>
		
			<rect x="554.423" y="324.202" transform="matrix(0.999 0.0439 -0.0439 0.999 14.841 -24.5879)" style="fill:#264D56;" width="25.594" height="2.787"/>
		<circle style="fill:#264D56;" cx="534.303" cy="348.26" r="3.583"/>
		<path style="fill:#264D56;" d="M536.022,379.461c0,1.979-1.604,3.583-3.583,3.583c-1.979,0-3.583-1.604-3.583-3.583
			c0-1.979,1.604-3.583,3.583-3.583C534.418,375.878,536.022,377.482,536.022,379.461z"/>
		<circle style="fill:#264D56;" cx="534.075" cy="410.663" r="3.583"/>
		<g>
			<path style="fill:#264D56;" d="M527.881,341.93c0,0-0.093,6.46-0.232,16.149c-0.054,4.844-0.117,10.495-0.184,16.549
				c-0.062,6.054-0.113,12.512-0.076,18.969c0.005,3.228,0.009,6.457,0.014,9.635c0,3.178,0.073,6.305,0.109,9.331
				c0.06,3.026,0.118,5.95,0.174,8.724c0.05,2.774,0.177,5.393,0.252,7.814c0.07,2.421,0.227,4.634,0.306,6.6
				c0.079,1.967,0.194,3.678,0.312,5.085c0.2,2.82,0.314,4.431,0.314,4.431s-0.185-1.605-0.508-4.414
				c-0.168-1.404-0.342-3.113-0.49-5.077c-0.15-1.963-0.386-4.176-0.496-6.597c-0.127-2.42-0.31-5.042-0.419-7.817
				c-0.104-2.775-0.265-5.702-0.312-8.731c-0.058-3.029-0.154-6.159-0.176-9.34c-0.037-3.181-0.082-6.412-0.079-9.644
				c0.008-6.463,0.104-12.925,0.209-18.982c0.107-6.057,0.324-11.708,0.489-16.551c0.174-4.843,0.394-8.876,0.534-11.699
				C527.787,343.542,527.881,341.93,527.881,341.93z"/>
		</g>
		<g>
			<path style="fill:#96633E;" d="M389.076,163.382c-14.953,7.436-33.493,9.717-43.06,23.221
				c-5.266,7.434-6.603,17.494-3.461,26.045c0.181,0.494,0.381,0.981,0.591,1.463c2.385-4.86,6.79-8.643,11.661-11.361
				c0.99-2.657,2.45-5.16,4.27-7.268c5.924-6.862,14.618-10.56,22.999-14.018c5.755-2.374,11.662-4.845,16.732-8.369
				C397.207,170.166,394.269,166.335,389.076,163.382z"/>
			<path style="fill:#AA7149;" d="M346.017,186.604c9.567-13.505,28.107-15.785,43.06-23.221
				c-5.428-3.086-13.311-5.204-24.743-4.285c-31.83,2.56-46.073,34.67-40.728,53.712c9.727,34.654,32.001,19.858,32.001,19.858
				s-6.894-0.512-10.491-3.173c-3.597-2.661-4.385-7.898-3.191-12.21c0.307-1.107,0.726-2.161,1.223-3.173
				c-0.21-0.482-0.41-0.969-0.591-1.463C339.414,204.097,340.751,194.037,346.017,186.604z"/>
			<path style="fill:#AA7149;" d="M359.078,195.482c-1.82,2.108-3.28,4.611-4.27,7.268c0.826-0.461,1.665-0.892,2.51-1.292
				c6.864-3.25,14.361-4.993,21.234-8.224c6.872-3.231,19.957-8.447,22.042-15.75c0,0-0.4-1.856-1.785-4.389
				c-5.07,3.524-10.977,5.995-16.732,8.369C373.696,184.922,365.002,188.62,359.078,195.482z"/>
		</g>
	</g>
</g>
</svg>
