<?xml version="1.0" encoding="utf-8"?>
<!-- Generator: Adobe Illustrator 27.5.0, SVG Export Plug-In . SVG Version: 6.00 Build 0)  -->
<svg version="1.1" xmlns="http://www.w3.org/2000/svg" xmlns:xlink="http://www.w3.org/1999/xlink" x="0px" y="0px"
	 viewBox="0 0 500 500" style="enable-background:new 0 0 500 500;" xml:space="preserve">
<g id="BACKGROUND">
	<rect style="fill:#CFE1FF;" width="500" height="500"/>
</g>
<g id="OBJECTS">
	<g>
		<path style="fill:#B8D1F4;" d="M146.439,409.515c15.703-8.212,20.527-10.853,44.527-3.193c24,7.659,132.569-21.321,157.37,1.131
			c24.801,22.452,1.166,35.027-47.446,27.691c-48.612-7.335-68.081-7.335-107.598-1.746
			C153.774,438.987,127.61,419.362,146.439,409.515z"/>
		<path style="fill:#8FADD1;" d="M207.116,406.321c-24.117-0.053-35.994-7.299-42.514,3.193s15.602,14.386,37.259,10.693
			c21.657-3.693,27.641,3.85,41.765,2.873c14.124-0.977,40.851-3.823,47.537-2.873s25.503,14.238,38.077,4.457
			c12.575-9.78-6.021-20.548-34.215-20.637C266.831,403.94,207.116,406.321,207.116,406.321z"/>
		<g>
			<path style="fill:#FFC2C8;" d="M250.978,377.263c-0.662,6.909-1.406,14.597-1.406,14.597s0.48,1.421,1.156,3.543
				c-1.926,8.07-5.684,17.85-8.413,16.224c-0.74-0.441-1.514-1.166-2.288-2.112c-2.661-3.239-5.326-9.055-6.492-14.817
				c0.059-0.23,0.108-0.431,0.142-0.603c0.524-2.617,1.744-13.098,0.524-20.957l15.748-5.88l1.176-0.441
				c0.005,0.137,0.01,0.319,0.02,0.539c0.044,1.112,0.132,3.214,0.23,5.699C251.253,374.368,251.115,375.798,250.978,377.263z"/>
			<path style="fill:#F4A6B6;" d="M251.375,373.054c-0.122,1.313-0.26,2.744-0.397,4.209c-7.414,2.72-13.837,9.824-14.421,14.391
				c-0.627,4.954-0.627,9.702,3.469,17.86c-2.661-3.239-5.326-9.055-6.492-14.817c0.059-0.23,0.108-0.431,0.142-0.603
				c0.524-2.617,1.744-13.098,0.524-20.957l15.748-5.88c0.402,0.029,0.804,0.064,1.196,0.098
				C251.189,368.468,251.277,370.57,251.375,373.054z"/>
			<path style="fill:#FFC2C8;" d="M229.232,371.026c-2.151,7.507-1.7,15.494-0.906,21.53c-0.926,0.98-2.489,2.308-5.042,3.7
				c-3.204,1.749-10.76,5.174-17.841,6.83c-3.361,0.789-6.62,1.176-9.251,0.794c6.551-5.468,14.254-12.02,14.254-12.02
				s0.872-7.144,0.554-12.387c-0.088-1.401-0.26-2.666-0.554-3.626l18.066-5.611l1.058-0.328
				C229.453,370.281,229.335,370.653,229.232,371.026z"/>
			<path style="fill:#F4A6B6;" d="M228.326,392.556c-0.926,0.98-2.489,2.308-5.042,3.7c-3.204,1.749-10.76,5.174-17.841,6.83
				c9.138-3.675,18.997-12.387,17.581-16.116c-1.519-3.993-5.199-5.086-12.024-7.497c-0.088-1.401-0.26-2.666-0.554-3.626
				l18.066-5.611l0.72,0.789C227.081,378.533,227.532,386.519,228.326,392.556z"/>
			<path style="fill:#7474A5;" d="M228.61,409.466c-3.317,0.26-15.195,6.375-26.719,7.296c-11.529,0.916-16.944-4.067-14.499-5.723
				c0.951-0.647,4.64-3.685,8.8-7.159c8.178,1.186,22.368-5.047,27.092-7.624c2.553-1.392,4.116-2.72,5.042-3.7
				c0.49,3.704,1.107,6.674,1.333,8.35C230.271,405.448,231.932,409.201,228.61,409.466z"/>
			<path style="fill:#7474A5;" d="M251.375,373.054c-0.118-2.974-0.221-5.405-0.25-6.238l0.838-0.314
				C251.973,366.616,251.723,369.384,251.375,373.054z"/>
			<path style="fill:#7474A5;" d="M255.07,412.783c-0.083,4.366-6.198,7.335-11.436,7.423c-5.243,0.088-13.798-4.454-14.063-8.644
				c-0.245-3.925,3.102-13.499,3.964-16.866c1.504,7.448,5.522,14.984,8.781,16.929c2.729,1.627,6.488-8.154,8.413-16.224
				C252.36,400.518,255.133,409.696,255.07,412.783z"/>
			<path style="fill:#FFFFFF;" d="M277.516,353.318c-1.196,7.556-9.271,14.122-20.325,18.62c-0.906,0.363-1.828,0.715-2.773,1.058
				c-6.571,2.367-14.009,4.033-21.584,4.792c-1.098,0.113-2.195,0.206-3.298,0.279c-5.934,0.392-11.887,0.211-17.522-0.632
				c-3.719-0.554-7.296-1.397-10.633-2.558c-5.302-1.837-9.996-4.479-13.69-8.021c-1.607-1.543-3.028-3.258-4.224-5.155
				c-0.103-6.429,0.02-12.608,0.333-18.527c1.318-25.2,6.022-45.805,11.025-61.808c3.156-10.099,6.434-18.365,9.06-24.798
				c2.166-5.321,3.89-9.388,4.728-12.206l50.141-5.199c0,0,1.994,4.929,4.68,14.009c0.044,0.152,0.088,0.304,0.132,0.456
				C269.03,272.204,277.222,307.572,277.516,353.318z"/>
			<g>
				<path style="fill:#E8EFFC;" d="M201.381,374.877c-5.302-1.837-9.996-4.479-13.69-8.021c5.179-14.014,8.815-44.119,14.024-42.958
					C206.668,325.006,197.77,358.585,201.381,374.877z"/>
				<path style="fill:#E8EFFC;" d="M229.536,378.067c-5.934,0.392-11.887,0.211-17.522-0.632
					c4.312-13.671,3.979-47.539,9.163-52.204C227.797,319.283,224.558,367.522,229.536,378.067z"/>
				<path style="fill:#E8EFFC;" d="M254.418,372.996c-6.571,2.367-14.009,4.033-21.584,4.792
					c5.214-12.387,9.383-77.247,11.956-78.869C247.636,297.11,248.166,363.671,254.418,372.996z"/>
				<path style="fill:#E8EFFC;" d="M277.516,353.318c-1.196,7.556-9.271,14.122-20.325,18.62
					c5.997-14.616,10.804-104.726,5.704-114.884c-1.083-2.156-0.696-3.293,0.671-3.425
					C269.03,272.204,277.222,307.572,277.516,353.318z"/>
			</g>
			<path style="fill:#E8EFFC;" d="M263.434,253.171c-8.693,7.693-24.054,18.037-34.221,20.153
				c-11.892,2.47-17.939-8.085-25.328-16.758c2.166-5.321,3.89-9.388,4.728-12.206l50.141-5.199
				C258.754,239.162,260.749,244.091,263.434,253.171z"/>
			<path style="fill:#593D4E;" d="M265.551,167.007c-5.008,15.499-28.758,18.634-28.758,18.634h-13.597l-13.774-9.888
				c1.328-4.488-3.464-18.786-7.355-34.133c-3.979-15.704-7.022-32.501-1.602-41.017c3.028-19.629,42.615-35.23,52.861-3.793
				c8.756,26.862,6.007,37.215,3.69,44.751c-0.392,1.284-0.774,2.489-1.088,3.675C253.791,153.4,270.558,151.504,265.551,167.007z"
				/>
			<path style="fill:#4C3142;" d="M265.551,167.007c-5.008,15.499-28.758,18.634-28.758,18.634h-13.597l-13.774-9.888
				c1.328-4.488-3.464-18.786-7.355-34.133c0.98-13.818-0.725-28.733,1.401-28.65c3.224,0.118,50.984,8.727,50.597,15.861
				c-0.211,3.861,0.407,8.438,2.95,12.73c-0.392,1.284-0.774,2.489-1.088,3.675C253.791,153.4,270.558,151.504,265.551,167.007z"/>
			<path style="fill:#FFFFFF;" d="M259.666,188.795c0.25-4.709,0.181-10.148,0.221-14.876c0.015-1.896,0.049-3.675,0.132-5.253
				c0.132-2.665,0.186-4.503,0.083-4.846c-0.314-1.049-17.013-6.581-17.013-6.581s0.98,1.107-0.769,0h-13.019
				c-6.017,4.772-21.369,13.44-21.903,17.346c-0.088,0.647-0.034,1.519,0.108,2.568c0.015,0.093,0.024,0.186,0.044,0.279
				c0.323,2.161,1.014,5.013,1.73,8.198c-0.23,1.215-0.706,2.543-1.24,3.959c-2.068,5.419-5.096,12.034,0.755,17.767
				c0.603,0.593,1.298,1.176,2.102,1.744c-0.368,3.925-0.897,8.448-1.475,12.96v0.01c-0.74,5.806-1.553,11.593-2.195,16.062
				c-0.5,3.479-0.892,6.159-1.058,7.423c-0.255,1.921,1.602,3.631,4.346,5.218c4.728,2.739,12.083,5.101,15.734,7.531
				c0.005,0.005,0.015,0.01,0.02,0.015c5.801,3.802,31.879-8.06,33.398-17.13C261.185,232.106,259.141,198.566,259.666,188.795z"/>
			<path style="fill:#E8EFFC;" d="M213.067,223.639c-2.759,7.531-4.243,20.844-2.553,27.136c-2.744-1.588-4.601-3.298-4.346-5.218
				c0.167-1.264,0.559-3.945,1.058-7.423c0.642-4.469,1.455-10.256,2.195-16.062v-0.01c0.578-4.513,1.107-9.036,1.475-12.96
				c-0.804-0.568-1.499-1.151-2.102-1.744c-5.851-5.733-2.822-12.348-0.755-17.767c0.534-1.416,1.009-2.744,1.24-3.959
				c0.818,3.165-1.798,12.421-0.054,16.875c1.744,4.454,11.466,5.15,17.042,3.405C223.637,209.488,216.301,214.819,213.067,223.639z
				"/>
			<path style="fill:#E8EFFC;" d="M259.666,241.19c-1.519,9.07-27.596,20.933-33.398,17.13
				c18.238-3.778,27.165-19.948,29.037-32.731c2.21-15.136-0.583-46.691,3.513-52.282l1.068,0.613
				c-0.039,4.728,0.029,10.167-0.221,14.876C259.141,198.566,261.185,232.106,259.666,241.19z"/>
			<path style="fill:#E8EFFC;" d="M260.019,168.666c-3.807-2.886-8.957-5.209-15.851-5.723c-17.669-1.318-27.131,3.2-36.617,14.489
				c-0.02-0.093-0.029-0.186-0.044-0.279c-0.142-1.049-0.196-1.921-0.108-2.568c0.534-3.905,15.886-12.573,21.903-17.346h13.019
				c1.749,1.107,0.769,0,0.769,0s16.699,5.532,17.013,6.581C260.205,164.163,260.151,166.001,260.019,168.666z"/>
			<path style="fill:#FFC2C8;" d="M274.199,230.185c0.088,0.701-4.194,15.371-4.194,15.371s-5.326,9.432-7.09,3.837
				c-0.568-1.803-1.436-11.133-2.234-23.02c-0.779-11.588-1.49-25.607-1.779-37.436c-0.343-13.71-0.122-24.48,1.201-25.117
				C282.25,168.015,274.111,229.489,274.199,230.185z"/>
			<path style="fill:#F4A6B6;" d="M274.199,230.185c0.088,0.701-4.194,15.371-4.194,15.371s-5.326,9.432-7.09,3.837
				c-0.568-1.803-1.436-11.133-2.234-23.02c1.049-11.52,2.283-24.735,2.215-32.575c-0.064-7.002-2.293-10.275-3.993-4.861
				c-0.343-13.71-0.122-24.48,1.201-25.117C282.25,168.015,274.111,229.489,274.199,230.185z"/>
			<path style="fill:#F4A6B6;" d="M244.157,156.745c-0.176,7.335-10.045,19.124-14.856,17.38
				c-4.812-1.749-1.651-12.083-1.651-12.083s0.157-2.724-0.113-5.851c-0.176-2.112-0.549-4.41-1.289-6.169l16.287-12.064l0.661-0.49
				c-0.039,0.323-0.079,0.642-0.108,0.951c-0.313,3.038-0.24,5.346-0.029,7.384C243.437,149.434,244.265,152.212,244.157,156.745z"
				/>
			<path style="fill:#EA819A;" d="M243.06,145.803c-3.499,4.082-10.236,10.991-15.523,10.388c-0.176-2.112-0.549-4.41-1.289-6.169
				l16.287-12.064c0.167,0.132,0.353,0.284,0.554,0.461C242.776,141.457,242.849,143.765,243.06,145.803z"/>
			<path style="fill:#FFC2C8;" d="M248.259,129.849c-1.289,5.414-3.91,9.922-7.061,13.441c-2.303,2.577-4.885,4.626-7.428,6.12
				c-3.175,1.872-6.296,2.881-8.737,2.969c-7.076,0.26-16.42-8.56-18.252-14.91c-0.431-1.485-0.882-4.087-1.323-7.198
				c-0.75-5.277-1.47-12.029-1.989-17.302c-0.446-4.493-0.74-7.918-0.789-8.457c-0.005-0.049-0.005-0.073-0.005-0.073
				c0.01,0.01,0.02,0.015,0.029,0.024c16.846,14.465,32.55,11.931,39.969,7.046c-0.613,4.371,2.18,14.063,3.053,14.587
				c0.5,0.299,0.686-0.113,1.014-1.308c0.245-0.892,0.573-2.224,1.171-4.018c1.396-4.194,6.634-4.89,7.811,0.436
				C256.892,126.532,252.889,132.995,248.259,129.849z"/>
			<path style="fill:#413E5E;" d="M213.563,128.411c0,1.582-0.964,2.864-2.154,2.864c-1.19,0-2.154-1.282-2.154-2.864
				c0-1.582,0.964-2.864,2.154-2.864C212.598,125.547,213.563,126.829,213.563,128.411z"/>
			<path style="fill:#413E5E;" d="M229.301,127.422c0,1.582-0.964,2.864-2.154,2.864c-1.19,0-2.154-1.282-2.154-2.864
				c0-1.582,0.964-2.864,2.154-2.864C228.336,124.557,229.301,125.84,229.301,127.422z"/>
			
				<path style="fill:none;stroke:#413E5E;stroke-width:2.1168;stroke-linecap:round;stroke-linejoin:round;stroke-miterlimit:10;" d="
				M207.399,123.663c0,0,1.989-2.237,5.125-0.81"/>
			
				<path style="fill:none;stroke:#413E5E;stroke-width:2.1168;stroke-linecap:round;stroke-linejoin:round;stroke-miterlimit:10;" d="
				M224.552,121.579c0,0,2.307-1.907,5.188-0.02"/>
			
				<path style="fill:none;stroke:#CE5F74;stroke-width:2.1168;stroke-linecap:round;stroke-linejoin:round;stroke-miterlimit:10;" d="
				M217.289,131.275c0.349,1.863-1.63,3.144-1.223,4.25s2.969,1.106,2.969,1.106"/>
			
				<path style="fill:none;stroke:#EF5076;stroke-width:2.1168;stroke-linecap:round;stroke-linejoin:round;stroke-miterlimit:10;" d="
				M223.198,141.551c2.358,0.699,5.133-0.299,6.103-2.551"/>
			
				<path style="fill:none;stroke:#CE5F74;stroke-width:2.1168;stroke-linecap:round;stroke-linejoin:round;stroke-miterlimit:10;" d="
				M251.753,121.579c-1.485,0.935-1.485,3.43-1.048,4.016"/>
			<path style="fill:#F4A6B6;" d="M241.198,143.29c4.312-11.035,0.083-27.126-1.847-27.498c-2.43-0.47-23.461,4.204-35.882-2.822
				c-0.446-4.493-0.74-7.918-0.789-8.457l0.025-0.049c16.846,14.465,32.55,11.931,39.969,7.046
				c-0.613,4.371,2.18,14.063,3.053,14.587c0.5,0.299,0.686-0.113,1.014-1.308c0.485,3.464,1.519,5.062,1.519,5.062
				C246.97,135.264,244.349,139.771,241.198,143.29z"/>
			
				<path style="fill:none;stroke:#5E373B;stroke-width:2.1168;stroke-linecap:round;stroke-linejoin:round;stroke-miterlimit:10;" d="
				M224.915,241.352c1.845-13.535,12.866-36.106,12.866-36.106"/>
			<path style="fill:#FFC2C8;" d="M224.768,227.916c-3.234,2.867-7.546,5.777-11.892,7.918c-1.906,0.936-3.817,1.725-5.65,2.298
				c-5.973,1.877-11.108,1.46-12.411-3.582c-1.646-6.37-0.304-19.752,2.372-32.359c1.779-8.398,4.155-16.454,6.63-21.878
				c1.191-2.602,2.401-4.596,3.582-5.728c-0.088,0.647-0.034,1.519,0.108,2.568c0.309,2.19,1.029,5.155,1.774,8.477
				c-0.23,1.215-0.706,2.543-1.24,3.959c-0.412,1.073-0.857,2.19-1.264,3.342c-1.563,4.4-2.558,9.246,1.284,13.641
				c0.225,0.265,0.47,0.524,0.735,0.784c0.603,0.593,1.298,1.176,2.102,1.744c-0.363,3.895-0.892,8.384-1.465,12.867
				c0,0.029-0.005,0.064-0.01,0.093v0.01l16.307-4.459c0,0,5.532-4.799,7.308-2.819c0.874,0.975-1.776,0.844-1.776,1.805
				s0.173,1.061,2.05-0.419c1.882-1.485,1.965-2.798,2.313-0.088C235.972,227.791,230.447,228.441,224.768,227.916z"/>
			<path style="fill:none;stroke:#8B8ABA;stroke-width:1.0584;stroke-miterlimit:10;" d="M224.552,160.645
				c-1.85,9.403-3.249,19.999,8.221,18.835c11.47-1.164,14.559-20.8,14.559-20.8"/>
			<path style="fill:#8B8ABA;" d="M230.326,179.544c-1.556-0.609-1.277,6.747-0.404,5.699
				C230.795,184.195,232.127,180.248,230.326,179.544z"/>
			<path style="fill:#F4A6B6;" d="M206.776,192.931c-0.691-5.022-1.651-9.628-2.96-12.617c1.191-2.602,2.401-4.596,3.582-5.728
				c-0.088,0.647-0.034,1.519,0.108,2.568c0.309,2.19,1.029,5.155,1.774,8.477c-0.23,1.215-0.706,2.543-1.24,3.959
				C207.628,190.662,207.183,191.779,206.776,192.931z"/>
			<path style="fill:#F4A6B6;" d="M210.897,209.101c-0.363,3.895-0.892,8.384-1.465,12.867c-2.087,1.656-4.709,3.724-7.717,6.037
				c0.872-3.057,6.115-5.243,6.551-8.908c0.162-1.357,0.142-6.385-0.206-12.524c0.225,0.265,0.47,0.524,0.735,0.784
				C209.397,207.949,210.093,208.532,210.897,209.101z"/>
			<path style="fill:#FFD7DD;" d="M212.876,235.835c-1.906,0.936-3.817,1.725-5.65,2.298c-5.973,1.877-11.108,1.46-12.411-3.582
				c-1.646-6.37-0.304-19.752,2.372-32.359c0.794,0.725,1.103,3.528,0.353,7.967c-1.847,10.946-2.425,22.829,0.426,25.906
				C200.822,239.142,212.945,234.669,212.876,235.835z"/>
			<path style="fill:#FFD7DD;" d="M233.77,149.41c-3.175,1.872-6.296,2.881-8.737,2.969c-7.076,0.26-16.42-8.56-18.252-14.91
				c-0.431-1.485-0.882-4.087-1.323-7.198c0.98-0.122,2.126,1.622,2.631,4.728c0.96,5.939,6.551,11.706,11.789,14.151
				C224.313,151.218,233,148.033,233.77,149.41z"/>
			<path style="fill:none;stroke:#C8D4E8;stroke-width:2;stroke-linecap:round;stroke-miterlimit:10;" d="M198.419,373.737
				c0,0,1.771-68.791,17.393-109.065"/>
			<path style="fill:none;stroke:#C8D4E8;stroke-width:2;stroke-linecap:round;stroke-miterlimit:10;" d="M221.179,378.225
				c0.709-55.323,8.391-108.65,8.391-108.65"/>
			<path style="fill:none;stroke:#C8D4E8;stroke-width:2;stroke-linecap:round;stroke-miterlimit:10;" d="M246.317,375.444
				c0,0,3.431-77.949-3.863-110.771"/>
			<path style="fill:none;stroke:#C8D4E8;stroke-width:2;stroke-linecap:round;stroke-miterlimit:10;" d="M266.382,367.258
				c0,0,0.242-77.656-15.257-107.813"/>
			<path style="fill:#E8EFFC;" d="M197.089,286.502c-4.366,9.761-8.384,34.593-10.133,48.906c-0.764,6.267-2.063,8.286-3.156,7.766
				c1.318-25.2,6.022-45.805,11.025-61.808C197.623,279.309,199.352,281.435,197.089,286.502z"/>
			<path style="fill:#EA4766;" d="M235.208,202.192c-0.658-3.613-2.994-4.398-2.393-7.542c0.6-3.144,6.539,0.326,5.491,7.542
				c-1.485-2.652,1.135-8.59,4.279-7.106c3.144,1.484-0.087,7.306-2.445,8.733c0.262-2.358,8.383-7.43,8.82-2.929
				c0.437,4.501-4.715,3.54-7.248,3.715c-2.532,0.175-4.628,0-4.628,0L235.208,202.192z"/>
			<path style="fill:#8E2B39;" d="M237.071,206.414c-0.576-1.743-3.428-2.209-3.312-5.236c0.116-3.027,2.678-2.562,3.784,0
				c1.921-1.281,4.89-0.466,4.308,2.038c2.736,0.175,3.377,1.339,2.62,2.853C243.714,207.582,239.276,205.887,237.071,206.414z"/>
		</g>
		<g>
			<path style="fill:#FFC2C8;" d="M264.619,262.472c-1.397,5.589-3.609,9.548-2.561,14.438c1.048,4.89,7.875,13.274,8.733,7.801
				c0.857-5.473,3.989-11.76,3.857-15.02c-0.132-3.26-0.966-8.733-0.966-8.733l-3.675-1.514"/>
			<path style="fill:#413E5E;" d="M270.093,171.422c-5.823,9.197-7.919,87.208-6.987,91.167c0.931,3.959,9.741,1.63,10.576-1.63
				c0.835-3.26,3.438-55.423,3.438-55.423l-3.438-31.437L270.093,171.422z"/>
			<path style="fill:#4F4E6D;" d="M320.043,418.168c-0.441,0.686-1.029,1.294-1.735,1.828c-6.267,4.797-21.653,3.856-23.069-1.828
				c-1.225-4.939,3.092-15.68,5.787-23.221c0.755-2.112,1.382-3.974,1.725-5.385h15.371
				C318.122,389.562,324.409,411.392,320.043,418.168z"/>
			<path style="fill:#413E5E;" d="M320.043,418.168c-0.441,0.686-1.029,1.294-1.735,1.828c3.401-6.492,1.259-17.865-4.817-22.055
				c-5.85-4.028-9.55-1.122-12.465-2.994c0.755-2.112,1.382-3.974,1.725-5.385h15.371
				C318.122,389.562,324.409,411.392,320.043,418.168z"/>
			<path style="fill:#4F4E6D;" d="M295.592,412.788c-0.549,0.941-2.455,1.803-5.164,2.543c-9.393,2.577-28.439,3.758-34.133,1.999
				c-7.335-2.269-4.194-7.159,0.872-9.604c4.052-1.96,11.235-7.83,15.645-14.303c1.102-1.617,2.029-3.268,2.695-4.91l17.811,1.744
				C293.319,390.258,298.037,408.599,295.592,412.788z"/>
			<path style="fill:#413E5E;" d="M295.592,412.788c-0.549,0.941-2.455,1.803-5.164,2.543c1.71-2.533,3.567-6.566,2.543-11.275
				c-1.656-7.634-12.612-7.384-20.158-10.633c1.102-1.617,2.029-3.268,2.695-4.91l17.811,1.744
				C293.319,390.258,298.037,408.599,295.592,412.788z"/>
			<path style="fill:#413E5E;" d="M301.296,236.915c0,0-0.015,2.729-0.059,7.468c-0.02,2.386-0.049,5.282-0.083,8.599
				c-0.049,4.748-0.113,10.358-0.196,16.547c-0.299,22.216-0.823,51.939-1.71,76.522c-0.872,24.024-2.087,43.139-3.768,45.545
				c-2.764,3.954-8.888,3.954-14.112,2.911c-4.008-0.794-7.482-2.205-8.501-2.911c-2.352-1.627,0.72-3.959,1.186-6.752
				c0.093-0.549-0.015-4.919-0.221-11.775c-0.519-16.875-1.671-48.823-2.053-75.978c-0.26-18.037-0.181-33.961,0.642-41.953
				l1.779-7.541l1.014-4.307L301.296,236.915z"/>
			<path style="fill:#2E2E4C;" d="M300.958,269.529c-0.588,43.923-2.073,117.197-5.478,122.067
				c-2.764,3.954-8.888,3.954-14.112,2.911c6.473-3.748,11.608-11.201,9.682-14.028c-2.622-3.842-2.793-8.384,0.701-14.67
				c3.489-6.287,0.872-60.602,1.22-79.467C293.319,267.544,296.097,264.879,300.958,269.529z"/>
			<path style="fill:#413E5E;" d="M327.579,236.915c0,0-0.936,147.699-5.821,154.681c-1.049,1.499-2.582,2.43-4.366,2.95
				c-6.522,1.911-16.4-1.671-18.247-2.95c-2.347-1.627,0.72-3.959,1.186-6.752c0.059-0.343,0.034-2.205-0.039-5.243
				c-0.167-6.669-0.598-19.017-1.044-33.55c-0.47-15.302-0.965-33.026-1.186-49.068c-0.26-17.993-0.181-33.868,0.637-41.845
				l0.529-2.234l2.009-8.521l0.26-1.093L327.579,236.915z"/>
			<path style="fill:#2E2E4C;" d="M327.579,236.915c0,0-0.936,147.699-5.821,154.681c-1.049,1.499-2.582,2.43-4.366,2.95
				c4.19-26.861,6.277-130.328-1.872-137.492c-3.606-3.17-8.624-3.798-14.367-4.072c-0.632-0.029-1.274-0.054-1.926-0.078
				c-7.766-0.294-16.64-0.392-25.029-5.307l1.014-4.307l26.082-6.375c0,0-0.015,2.729-0.059,7.468l0.26-1.093L327.579,236.915z"/>
			<path style="fill:#8B8ABA;" d="M281.735,244.542c7.568,3.493,19.238,4.192,24.988,1.048c5.75-3.144,2.457-10.712,2.457-10.712
				l-21.438,1.397l-4.028,1.63"/>
			<path style="fill:#FFFFFF;" d="M281.01,238.487c12.834,5.764,25.713,1.048,25.713,1.048l3.225-66.386l-3.959-12.425
				l-10.817-3.918l-10.533,8.47l-2.209,10.162"/>
			<path style="fill:#8B8ABA;" d="M289.842,164.347c0.793,9.897-4.173,59.964-4.019,61.826c0.154,1.863,6.019,10.596,6.987,10.828
				c0.968,0.233,7.147-10.622,6.845-13.409c-0.301-2.786-5.528-51.445-1.802-60.876"/>
			<path style="fill:#7171A5;" d="M295.801,167.976h-4.685c-1.719,0-3.113-1.394-3.113-3.113v-0.178
				c0-1.719,1.394-3.113,3.113-3.113h4.685c1.719,0,3.113,1.394,3.113,3.113v0.178C298.913,166.582,297.52,167.976,295.801,167.976z
				"/>
			<path style="fill:#4F4E6D;" d="M284.543,213.395c-0.279,26.881,0.206,52.998,0.392,54.958
				c-11.872-3.317-18.86-5.483-18.164-11.299c0.701-5.816,4.542-37.583,6.115-46.148c1.573-8.57-3.494-34.77-2.793-39.484
				c0.367-2.479,5.223-6.39,9.746-9.545c4.087-2.842,7.904-5.072,7.904-5.072c-0.015,0.069-0.034,0.137-0.049,0.216
				c-1.573,6.904-2.421,22.133-2.852,39.175C284.7,201.811,284.606,207.623,284.543,213.395z"/>
			<path style="fill:#5E5E7F;" d="M287.742,156.806c-0.015,0.069-0.034,0.137-0.049,0.216c-1.573,6.904-2.421,22.133-2.852,39.175
				c-0.142,5.615-0.235,11.427-0.299,17.199c-7.928-12.794-5.831-29.963-6.948-31.845c-2.279-3.841,4.371-8.555,4.371-9.604
				s-2.092-2.621-3.822-3.057c-1.387-0.348,0.098-2.759,1.695-7.012C283.925,159.035,287.742,156.806,287.742,156.806z"/>
			<path style="fill:#4F4E6D;" d="M339.368,257.931c-10.319,8.599-32.947,9.898-33.3,7.57c-0.216-1.436-3.792-26.327-6.135-48.514
				c-1.455-13.793-2.43-26.543-1.823-31.943c1.592-14.087,9.589-30.507,13.431-29.733c0.578,0.118,1.215,0.323,1.911,0.603
				c3.949,1.588,9.824,5.664,17.591,10.574c0,0-6.11,29.615-3.435,40.444C330.289,217.761,340.765,256.769,339.368,257.931z"/>
			<path style="fill:#5E5E7F;" d="M307.724,168.889c0,0,3.234,6.027,3.352,6.723c0.108,0.637-9.746,26.411-11.142,41.375
				c-1.455-13.793-2.43-26.543-1.823-31.943c1.592-14.087,9.589-30.507,13.431-29.733c0.578,0.118,1.215,0.323,1.911,0.603
				c0.588,3.582,1.725,6.478,2.048,7.125C315.966,163.969,307.724,168.889,307.724,168.889z"/>
			<g>
				<path style="fill:#F4A6B6;" d="M304.735,152.689c-0.125,1.805-6.346,9.442-11.277,8.851c-4.931-0.587-5.735-5.681-5.735-5.681
					s-0.011-0.094-0.029-0.271c-0.141-1.099-0.717-5.331-1.873-8.188l18.38-12.029c0,0,0.094,3.75,0.225,8.221
					C304.515,146.601,304.624,149.944,304.735,152.689z"/>
				<path style="fill:#EA819A;" d="M304.424,143.592c-8.927,14.055-13.642,14.275-16.731,11.996
					c-0.141-1.099-0.717-5.331-1.873-8.188l18.38-12.029C304.2,135.371,304.293,139.12,304.424,143.592z"/>
				<path style="fill:#413E5E;" d="M323.218,100.325c-0.089,0.433-0.214,0.885-0.368,1.355c-2.183,6.618-8.053,14.97-10.261,20.111
					c-0.44,1.033-0.732,1.935-0.823,2.667c-0.538,4.398-19.5,4.3-19.5,4.3l-2.416-2.192l-25.074-22.724
					c-6.625-3.743-8.771-8.352-9.057-10.058c-0.036-0.212-0.045-0.379-0.026-0.496c0.156-1.044,3.144,0.115,3.144,0.115
					s-6.763-6.538-2.49-18.037c2.154,1.711,3.59,3.862,11.885,3.233c8.295-0.629,29.928-6.018,40.075,3.325
					c-1.189-2.49-1.85-6.824-1.137-7.151c0.708-0.322,8.28,6.215,8.981,15.635c3.335-1.903,5.904-2.04,5.648-1.466
					c-0.256,0.569-3.01,2.685-3.01,2.685S324.698,93.491,323.218,100.325z"/>
				<path style="fill:#2E2E4C;" d="M323.218,100.325c-0.089,0.433-0.214,0.885-0.368,1.355c-2.183,6.618-8.053,14.97-10.261,20.111
					c-1.041,0.996-1.96,1.836-2.684,2.599c-2.421,2.535-16.387,2.29-20.055,2.176l-25.074-22.724
					c-6.625-3.743-8.771-8.352-9.057-10.058c7.106,4.667,19.656,2.835,23.53,3.506c-6.293-1.279-8.857-4.398-8.857-4.398
					s11.751,1.944,20.863,2.159c9.107,0.215,17.705-0.521,21.013,5.312C316.015,98.592,320.965,98.233,323.218,100.325z"/>
				<path style="fill:#FFC2C8;" d="M311.228,128.856c-2.548,6.129-8.392,12.844-14.184,17.296c-2.255,1.742-4.508,3.14-6.55,4.022
					c-0.005,0-0.005,0-0.005,0c-1.4,0.606-2.708,0.97-3.848,1.041c-7.096,0.437-14.17-4.449-18.293-13.602
					c-1.411-3.126-2.27-8.06-2.798-13.208c-0.543-5.281-0.725-10.784-0.78-14.767c-0.045-3.478,0.005-5.795,0.005-5.795
					c3.229,2.476,27.539,4.501,41.014,1.496c-1.205,4.413,1.345,18.225,2.632,18.968c0.902,0.528,1.928-2.327,3.098-4.682
					c0.482-0.983,0.995-1.881,1.529-2.401c1.81-1.768,5.298-1.552,6.382,2.331C320.511,123.438,316.633,131.51,311.228,128.856z"/>
				
					<path style="fill:none;stroke:#CE5F74;stroke-width:2.1168;stroke-linecap:round;stroke-linejoin:round;stroke-miterlimit:10;" d="
					M316.518,120.322c-1.452-0.927-3.339,1.713-3.037,4.215c0.302,2.502,1.92,0.07,1.92,0.07"/>
				<path style="fill:#413E5E;" d="M290.375,122.81c-0.059,1.607-1.163,2.87-2.466,2.823c-1.303-0.048-2.312-1.388-2.253-2.995
					c0.059-1.606,1.162-2.87,2.466-2.823C289.425,119.862,290.434,121.203,290.375,122.81z"/>
				<path style="fill:#413E5E;" d="M273.051,123.047c-0.059,1.607-1.163,2.87-2.466,2.823c-1.303-0.048-2.312-1.388-2.253-2.995
					c0.059-1.606,1.163-2.87,2.466-2.823C272.101,120.1,273.11,121.44,273.051,123.047z"/>
				
					<path style="fill:none;stroke:#413E5E;stroke-width:2.1168;stroke-linecap:round;stroke-linejoin:round;stroke-miterlimit:10;" d="
					M269.047,116.925c0,0,2.477-2.24,6.104-0.36"/>
				
					<path style="fill:none;stroke:#413E5E;stroke-width:2.1168;stroke-linecap:round;stroke-linejoin:round;stroke-miterlimit:10;" d="
					M287.382,117.308c0,0,2.675-2,6.111,0.21"/>
				
					<path style="fill:none;stroke:#CE5F74;stroke-width:2.1168;stroke-linecap:round;stroke-linejoin:round;stroke-miterlimit:10;" d="
					M280.155,125.349c-0.313,2.202-2.484,4.22-2.074,5.75c0.41,1.53,3.569,1.179,3.569,1.179"/>
				
					<path style="fill:none;stroke:#EF5076;stroke-width:2.1168;stroke-linecap:round;stroke-linejoin:round;stroke-miterlimit:10;" d="
					M279.859,140.743c2.096,2.436,8.289,1.875,9.785-1.565"/>
				<path style="fill:#F4A6B6;" d="M311.228,128.856c-2.548,6.129-8.392,12.844-14.184,17.296
					c7.663-11.939,4.823-34.22,5.734-37.286c-4.293,1.295-25.999,1.949-38.008,0.771c-0.045-3.478,0.005-5.795,0.005-5.795
					c3.229,2.476,27.539,4.501,41.014,1.496c-1.205,4.413,1.345,18.225,2.632,18.968c0.902,0.528,1.928-2.327,3.098-4.682
					L311.228,128.856z"/>
				<path style="fill:#FFD7DD;" d="M290.489,150.174c-1.4,0.606-2.708,0.97-3.848,1.041c-7.096,0.437-14.17-4.449-18.293-13.602
					c-1.411-3.126-2.27-8.06-2.798-13.208c0.982-2.45,2.021-0.294,2.567,4.374C268.822,134.87,271.267,149.551,290.489,150.174z"/>
			</g>
			<path style="fill:#413E5E;" d="M304.424,148.471c0.293,3.768-10.966,13.068-10.966,13.068s8.661,4.248,9.709,5.995
				c1.048,1.747,3.144-4.366,5.851-8.034C311.725,155.833,309.165,152.976,304.424,148.471z"/>
			<path style="fill:#413E5E;" d="M287.382,153.911c-4.125,1.135-3.426,3.58-4.212,5.763c-0.786,2.183,0.611,10.566,0.611,10.566
				s7.478-8.758,9.677-8.702C289.108,159.85,287.382,153.911,287.382,153.911z"/>
			<path style="fill:#FFC2C8;" d="M315.501,206.349c0,0-4.018-0.436-8.085,1.401c-3.141,1.416-7.541,2.935-10.706,1.264
				c-0.941-0.49-1.774-1.264-2.43-2.401c-2.881-4.978-0.436-9.78,0-9.256c0.436,0.524,2.185,1.137,3.988,1.137
				s3.523-1.573,2.127-1.313c-1.396,0.265-4.194-1.22-3.582-1.396c0.612-0.176,3.582-2.793,5.85-3.582
				c1.323-0.456,3.058,0.064,4.812,0.867c1.259,0.583,2.528,1.308,3.66,1.931L315.501,206.349z"/>
			<path style="fill:#F4A6B6;" d="M315.501,206.349c0,0-4.018-0.436-8.085,1.401c-3.141,1.416-7.541,2.935-10.706,1.264
				c5.258,0.206,9.619-2.69,10.702-6.855c0.867-3.356,0.862-6.875,0.064-9.089c1.259,0.583,2.528,1.308,3.66,1.931L315.501,206.349z
				"/>
			<path style="fill:#413E5E;" d="M342.396,210.543c-5.414,4.89-32.834-0.872-33.182-2.097c-0.088-0.314,0.005-1.298,0.171-2.641
				c0.49-3.9,1.612-10.78,0.701-12.725c-0.818-1.754,6.115-1.004,10.79-0.314c2.303,0.338,4.057,0.661,4.057,0.661
				s-0.319-0.539-0.833-1.431c-1.7-2.96-5.513-9.824-6.855-14.112c-2.269-8.736,5.591-15.454,13.798-11.397
				c2.323,1.152,4.674,4.787,6.728,9.525c0.034,0.074,0.069,0.152,0.103,0.23c0.01,0.025,0.02,0.054,0.034,0.078
				c0.201,0.475,0.402,0.96,0.598,1.46c0.005,0.01,0.01,0.025,0.015,0.039C343.283,189.831,346.086,207.211,342.396,210.543z"/>
			
				<path style="fill:none;stroke:#413E5E;stroke-width:2.1168;stroke-linecap:round;stroke-linejoin:round;stroke-miterlimit:10;" d="
				M314.628,236.915c2.008,6.549,12.138,6.899,14.496,6.025"/>
			<path style="fill:#2E2E4C;" d="M342.396,210.543c-5.414,4.89-32.834-0.872-33.182-2.097c-0.088-0.314,0.005-1.298,0.171-2.641
				c11.412,2.572,24.902,4.111,30.11,0.779c5.013-3.205,1.431-22.055-0.975-28.763C343.283,189.831,346.086,207.211,342.396,210.543
				z"/>
			<path style="fill:#2E2E4C;" d="M329.995,198.23c-0.083,1.921-6.056-4.978-9.119-5.464c2.303,0.338,4.057,0.661,4.057,0.661
				s-0.319-0.539-0.833-1.431C329.705,193.981,330.068,196.603,329.995,198.23z"/>
			<path style="fill:#4F4E6D;" d="M304.201,372.27c-0.083,6.737-1.764,10.657-3.91,7.33c-0.167-6.669-0.598-19.017-1.044-33.55
				c-0.47-15.302-0.965-33.026-1.186-49.068c0.755-0.657,1.401,0.064,1.602,2.166C300.365,306.366,304.309,363.186,304.201,372.27z"
				/>
			<path style="fill:#4F4E6D;" d="M273.831,373.069c-0.519-16.875-1.671-48.823-2.053-75.978c1.279-0.26,2.509,2.68,2.352,7.762
				c-0.372,11.878,1.338,57.638,3.102,63.4C278.33,371.829,276.051,375.21,273.831,373.069z"/>
			
				<path style="fill:none;stroke:#413E5E;stroke-width:2.1168;stroke-linecap:round;stroke-linejoin:round;stroke-miterlimit:10;" d="
				M270.79,245.706c0,0,7.632,1.396,10.22-8.791"/>
		</g>
		<path style="fill:#EA4766;" d="M176.505,202.192c-8.034-1.747-16.328-4.1-15.163-8.641c1.164-4.541,8.616-1.311,8.616-1.311
			s-2.212-8.12,2.794-8.586C177.759,183.188,178.485,197.185,176.505,202.192z"/>
		<path style="fill:#EA4766;" d="M346.117,156.408c7.157-4.047,14.902-8.942,12.445-12.935c-2.457-3.993-8.618,1.299-8.618,1.299
			s-0.291-8.411-5.211-7.374C339.813,138.435,342.744,152.212,346.117,156.408z"/>
		<path style="fill:#FFFFFF;" d="M191.617,263.008c1.199-8.134,2.089-17.253-2.571-17.765c-4.66-0.512-4.266,7.6-4.266,7.6
			s-6.818-4.934-9.02-0.413C173.56,256.951,186.234,263.094,191.617,263.008z"/>
		<path style="fill:#FFFFFF;" d="M342.275,332.089c8.201,0.583,17.361,0.784,17.521-3.901c0.16-4.685-7.9-3.681-7.9-3.681
			s4.406-7.17-0.267-9.025C346.955,313.627,341.784,326.728,342.275,332.089z"/>
	</g>
</g>
</svg>
