<?xml version="1.0" encoding="utf-8"?>
<!-- Generator: Adobe Illustrator 27.5.0, SVG Export Plug-In . SVG Version: 6.00 Build 0)  -->
<svg version="1.1" xmlns="http://www.w3.org/2000/svg" xmlns:xlink="http://www.w3.org/1999/xlink" x="0px" y="0px"
	 viewBox="0 0 500 500" style="enable-background:new 0 0 500 500;" xml:space="preserve">
<g id="BACKGROUND">
	<rect style="fill:#FFFFFF;" width="500" height="500"/>
</g>
<g id="OBJECTS">
	<g>
		<path style="fill:#FFEEEE;" d="M416.113,235.823c-15.116,63.97-52.142,134.288-107.714,165.93
			c-1.71,0.979-3.441,1.916-5.188,2.818c-2.195,1.133-4.415,2.205-6.667,3.21c-1.386,0.623-2.787,1.221-4.199,1.793
			c-3.333,1.365-6.723,2.586-10.175,3.658c-1.108,0.35-2.22,0.68-3.344,0.994c-7.517,2.117-15.301,3.55-23.348,4.214
			c-2.401,0.201-4.786,0.33-7.146,0.392c-4.322,0.118-8.583,0.021-12.771-0.289h-0.015c-0.016-0.005-0.031-0.005-0.046-0.005
			c-0.015-0.005-0.031-0.01-0.046-0.005c-0.021-0.005-0.046-0.005-0.067-0.005c-0.453-0.031-0.902-0.067-1.355-0.108
			c-3.714-0.314-7.372-0.798-10.973-1.437c-0.191-0.031-0.381-0.062-0.572-0.098l-1.762-0.335c-3.895-0.763-7.717-1.71-11.478-2.823
			c-3.081-0.917-6.115-1.942-9.103-3.081c-0.021-0.005-0.041-0.01-0.062-0.026c-4.127-1.566-8.166-3.338-12.112-5.306
			c-1.046-0.52-2.087-1.056-3.117-1.602c-2.071-1.097-4.116-2.246-6.136-3.441c-1.087-0.649-2.169-1.309-3.241-1.989
			c-0.845-0.531-1.685-1.066-2.519-1.618c-1.422-0.932-2.828-1.891-4.225-2.875c-0.01-0.005-0.021-0.015-0.031-0.021
			c-1.144-0.809-2.277-1.633-3.405-2.473c-0.943-0.706-1.875-1.422-2.808-2.148c-1.386-1.072-2.761-2.179-4.116-3.313
			c-1.247-1.03-2.483-2.092-3.709-3.163c-0.16-0.144-0.314-0.283-0.474-0.422c-1.458-1.293-2.895-2.612-4.317-3.957
			c-1.262-1.19-2.514-2.406-3.745-3.642c-9.984-9.979-19.005-21.22-27.001-33.265c-1.025-1.54-2.03-3.091-3.014-4.657
			c-16.852-26.671-28.768-56.871-34.971-85.86c-7.202-33.636-6.713-65.639,2.679-88.606c0.85-2.092,1.777-4.106,2.782-6.043
			c19.587-37.799,50.22-40.128,80.961-36.887c0.325,0.031,0.654,0.067,0.984,0.103c0.634,0.072,1.272,0.139,1.906,0.216
			c29.675,3.436,59.138,11.19,78.54-3.647c19.175-14.662,40.823-25.836,62.451-31.256c2.777-0.695,5.559-1.298,8.33-1.798
			c0.953-0.175,1.901-0.335,2.854-0.484h0.005c32.93-5.152,64.81,4.034,86.757,35.604c1.144,1.638,2.257,3.333,3.338,5.095
			C426.499,145.511,427.184,188.967,416.113,235.823z"/>
		<path style="opacity:0.15;fill:#D15A5A;" d="M416.113,235.823c-15.116,63.97-52.142,134.288-107.714,165.93
			c-1.71,0.979-3.441,1.916-5.188,2.818c-2.195,1.133-4.415,2.205-6.667,3.21c-1.386,0.623-2.787,1.221-4.199,1.793
			c-3.333,1.365-6.723,2.586-10.175,3.658c-1.108,0.35-2.22,0.68-3.344,0.994c-7.517,2.117-15.301,3.55-23.348,4.214
			c-2.401,0.201-4.786,0.33-7.146,0.392c-4.322,0.118-8.583,0.021-12.771-0.289h-0.015c-0.016-0.005-0.031-0.005-0.046-0.005
			c-0.015-0.005-0.031-0.01-0.046-0.005c-0.021-0.005-0.046-0.005-0.067-0.005c-0.453-0.031-0.902-0.067-1.355-0.108
			c-3.714-0.314-7.372-0.798-10.973-1.437c-0.191-0.031-0.381-0.062-0.572-0.098l-1.762-0.335c-3.895-0.763-7.717-1.71-11.478-2.823
			c-3.081-0.917-6.115-1.942-9.103-3.081c-0.021-0.005-0.041-0.01-0.062-0.026c-4.127-1.566-8.166-3.338-12.112-5.306
			c-1.046-0.52-2.087-1.056-3.117-1.602c-2.071-1.097-4.116-2.246-6.136-3.441c-1.087-0.649-2.169-1.309-3.241-1.989
			c-0.845-0.531-1.685-1.066-2.519-1.618c-1.422-0.932-2.828-1.891-4.225-2.875c-0.01-0.005-0.021-0.015-0.031-0.021
			c-1.144-0.809-2.277-1.633-3.405-2.473c-0.943-0.706-1.875-1.422-2.808-2.148c-1.386-1.072-2.761-2.179-4.116-3.313
			c-1.247-1.03-2.483-2.092-3.709-3.163c-0.16-0.144-0.314-0.283-0.474-0.422c-1.458-1.293-2.895-2.612-4.317-3.957
			c-1.262-1.19-2.514-2.406-3.745-3.642c-9.984-9.979-19.005-21.22-27.001-33.265c-1.025-1.54-2.03-3.091-3.014-4.657
			c-16.852-26.671-28.768-56.871-34.971-85.86c18.876-13.59,50.874-9.016,58.602,17.913c6.265-15.162,36.49-16.264,34.965,10.546
			c10.597-20.932,84.856-27.557,86.103,9.175c6.177-19.871,76.891-30.365,83.104,8.825c0.417-10.51,11.416-18.011,20.211-6.466
			C364.157,265.224,368.562,226.199,416.113,235.823z"/>
		<g>
			<path style="fill:#591E29;" d="M248.007,220.225c-1.546,5.724-14.605,9.655-21.493,11.349c-2.519,0.623-4.214,0.943-4.214,0.943
				l-15.146,2.385l-11.88-4.415l-0.974-0.361c0,0,0.824-5.049,1.927-12.792c0.654-4.595-2.643-10.005-5.925-16.733
				c-2.251-4.606-4.492-9.825-5.461-15.832c-2.385-14.781,3.859-22.307,7.547-20.932c4.152-22.405,34.229-9.732,38.175,3.184
				c3.952,12.916-1.102,22.797,8.908,30.082c4.626,3.369,7.254,6.893,8.526,10.484C249.486,211.76,249.14,216.021,248.007,220.225z"
				/>
			<path style="fill:#491722;" d="M248.007,220.225c-1.546,5.724-14.605,9.655-21.493,11.349
				c-6.527-0.036-13.086-0.108-16.841-0.252c-4.06-0.16-9.474-0.489-14.399-0.835l-0.974-0.361c0,0,0.824-5.049,1.927-12.792
				c0.654-4.595-2.643-10.005-5.925-16.733c3.235-8.104,2.282-18.037,2.282-18.037s9.428,5.188,18.289,7.073
				c8.856,1.886,13.354-8.629,14.09-2.02c0.737,6.61,11.571,22.591,20.932,20.659c0.793-0.165,1.494-0.397,2.102-0.69
				C249.486,211.76,249.14,216.021,248.007,220.225z"/>
			<path style="fill:#F9B29B;" d="M213.258,223.167c-0.67,6.208-3.416,9.984-5.492,8.696c-2.071-1.288-3.586-15.311-4.003-17.537
				c-0.108-0.582-0.134-1.046-0.098-1.432c0.088-1.097,0.613-1.54,0.768-2.097c0.098-0.345,0.077-1.515-0.041-2.973
				c-0.067-0.788-0.165-1.659-0.294-2.535c-0.098-0.706-0.216-1.406-0.356-2.071c1.551,0.659,3.313,0.819,5.476,0.314
				c2.555-0.598,5.368-3.374,7.506-6.429c-0.361,2.839-0.134,5.415,0.01,7.862c0.005,0.119,0.016,0.227,0.026,0.335
				c0.067,0.783,0.191,1.329,0.34,1.752c0.201,0.556,0.443,0.886,0.644,1.226c0.139,0.227,0.258,0.459,0.335,0.778
				C218.358,210.235,213.933,216.958,213.258,223.167z"/>
			<path style="fill:#FFCDBB;" d="M219.945,190.859c-0.51,1.757-1.695,4.07-3.22,6.244c-0.515,0.732-1.066,1.448-1.643,2.123
				c-1.829,2.138-3.921,3.854-5.863,4.307c-2.164,0.505-3.926,0.345-5.476-0.314c-2.097-0.891-3.802-2.715-5.574-5.075
				c-1.345-1.788-2.617-4.647-3.622-7.3c-0.654-1.726-1.195-3.359-1.571-4.564c0,0,0,0,0-0.005
				c-0.376-1.195-0.587-1.963-0.587-1.963s0.896-6.734,0.448-12.916c2.761,4.776,10.855,4.286,14.966,1.901
				c2.251,6.363,9.891,8.568,9.891,8.568l0.093,0.299l1.582,4.966c0,0,0,0,0.258,0c0.252,0,0.577-2.452,0.835-3.859
				c0.258-1.406,3.338-2.143,4.688,0.86C226.498,187.129,222.578,192.451,219.945,190.859z"/>
			<path style="fill:#591E29;" d="M244.153,260.898l-13.22-17.64c0,0-0.283-1.407-0.577-3.565
				c-0.896-6.594-1.901-20.236,4.735-22.359c3.627,3.524,7.254,11.411,10.144,18.588c1.504,3.73,2.808,7.269,3.812,9.907
				C251.989,253.542,244.153,260.898,244.153,260.898z"/>
			<path style="fill:#491722;" d="M244.153,260.898l-13.22-17.64c0,0-0.283-1.407-0.577-3.565c5.384,6.306,10.309,6.28,14.879-3.771
				c1.504,3.73,2.808,7.269,3.812,9.907C251.989,253.542,244.153,260.898,244.153,260.898z"/>
			<path style="fill:#FFFFFF;" d="M243.061,403.017c0,0-0.113,0.113-0.34,0.324c-0.031,0.031-0.072,0.067-0.108,0.103
				c-0.644,0.598-1.958,1.783-3.838,3.282c0,0.005-0.005,0.005-0.005,0.01c-0.639,0.505-1.334,1.041-2.097,1.613
				c-0.252,0.191-0.51,0.381-0.778,0.572c-0.01,0.01-0.021,0.015-0.031,0.026c-0.258,0.185-0.515,0.376-0.788,0.567
				c-0.299,0.211-0.608,0.428-0.922,0.649c-0.268,0.185-0.541,0.371-0.819,0.556c-0.608,0.412-1.242,0.829-1.896,1.247
				c-0.325,0.206-0.654,0.412-0.989,0.618c-0.288,0.18-0.582,0.355-0.881,0.536c-0.232,0.139-0.474,0.283-0.716,0.422
				c-0.927,0.546-1.891,1.087-2.89,1.618c-0.299,0.155-0.603,0.314-0.907,0.469c-0.237,0.124-0.474,0.242-0.716,0.361
				c-0.18,0.093-0.366,0.185-0.546,0.273c-0.211,0.103-0.422,0.206-0.634,0.304c-0.18,0.088-0.361,0.175-0.541,0.258
				c-0.046,0.021-0.088,0.041-0.134,0.062l-1.762-0.335c-3.895-0.762-7.717-1.71-11.478-2.823c-3.081-0.917-6.115-1.942-9.103-3.081
				c-0.021-0.005-0.041-0.01-0.062-0.026c-4.127-1.566-8.166-3.338-12.112-5.306c-3.143-1.566-6.229-3.251-9.253-5.044
				c-3.4-2.025-6.728-4.189-9.984-6.481c-0.01-0.005-0.021-0.015-0.031-0.021c-2.102-1.484-4.173-3.024-6.213-4.621
				c-1.386-1.072-2.761-2.179-4.116-3.313c-1.247-1.03-2.483-2.092-3.709-3.163c-0.16-0.144-0.314-0.283-0.474-0.422
				c0.948-6.172,5.296-32.961,11.921-49.932c0.335-0.86,0.69-1.757,1.066-2.684c0.129-0.309,0.253-0.623,0.381-0.943
				c1.607-3.926,3.514-8.392,5.548-13.075c0.237-0.541,0.474-1.082,0.706-1.628c0.479-1.087,0.953-2.184,1.437-3.287
				c1.206-2.756,2.432-5.548,3.642-8.315c0.041-0.082,0.072-0.165,0.108-0.242c0.211-0.474,0.417-0.948,0.618-1.417
				c0.474-1.077,0.938-2.143,1.401-3.204c0.5-1.149,0.989-2.282,1.473-3.405c0.098-0.222,0.196-0.448,0.288-0.67
				c0.345-0.793,0.685-1.582,1.015-2.359c0.113-0.258,0.221-0.51,0.33-0.768c0.051-0.118,0.098-0.232,0.144-0.345
				c0.057-0.139,0.118-0.278,0.18-0.412c0.067-0.165,0.134-0.33,0.206-0.489c0.129-0.299,0.252-0.598,0.376-0.891
				c0.165-0.381,0.325-0.762,0.479-1.133c0.124-0.299,0.247-0.592,0.371-0.886c0.191-0.448,0.371-0.891,0.551-1.324
				c0.016-0.036,0.031-0.072,0.046-0.103c0.01-0.036,0.026-0.067,0.036-0.098c0.026-0.057,0.051-0.113,0.072-0.17
				c0.196-0.464,0.381-0.922,0.567-1.376c0.428-1.041,0.829-2.045,1.206-2.998v-0.005c0.057-0.139,0.113-0.273,0.165-0.412
				c0.376-0.958,0.726-1.87,1.046-2.73c0.067-0.186,0.134-0.366,0.201-0.546c0.041-0.108,0.082-0.216,0.118-0.325
				c0.036-0.103,0.077-0.211,0.113-0.314c0.072-0.201,0.144-0.402,0.211-0.598c0.206-0.587,0.397-1.144,0.562-1.664
				c0.242-0.742,0.443-1.406,0.592-1.994c0.258-1,0.386-1.767,0.361-2.267c-0.051-1.046-0.211-2.128-0.443-3.24
				c-0.474-2.251-1.242-4.637-2.035-7.213c-0.041-0.134-0.088-0.273-0.129-0.412c-0.85-2.731-1.705-5.677-2.262-8.872
				c-1.376-7.898,3.307-12.854,3.859-18.273c0.031-0.325,0.051-0.665,0.051-1.015c0-0.268-0.005-0.541-0.021-0.824
				c0-0.026-0.005-0.052-0.005-0.072c0-0.026-0.005-0.051-0.005-0.077c-0.005-0.129-0.016-0.252-0.031-0.381
				c-0.016-0.191-0.036-0.381-0.057-0.577c-0.01-0.077-0.015-0.149-0.026-0.227c-0.005-0.015-0.005-0.036-0.01-0.051
				c0-0.021-0.005-0.036-0.005-0.057c-0.005-0.021-0.005-0.036-0.01-0.057c-0.016-0.134-0.036-0.273-0.057-0.407
				c-0.031-0.175-0.057-0.35-0.088-0.531c-0.015-0.093-0.036-0.185-0.051-0.278c-0.021-0.098-0.036-0.196-0.057-0.294
				c-0.026-0.118-0.046-0.237-0.072-0.355c-0.015-0.062-0.026-0.124-0.041-0.185c-0.005-0.031-0.01-0.067-0.021-0.098
				c-0.041-0.191-0.082-0.376-0.129-0.567c-0.155-0.665-0.33-1.319-0.515-1.958c-0.077-0.253-0.149-0.5-0.222-0.742
				c-0.124-0.402-0.247-0.799-0.376-1.175l-0.124-0.371c-0.005-0.021-0.01-0.036-0.016-0.052c-0.046-0.129-0.088-0.257-0.134-0.381
				c-0.412-1.185-0.799-2.184-1.077-2.859c-0.026-0.062-0.046-0.119-0.072-0.175c-0.046-0.124-0.093-0.232-0.134-0.33
				c-0.026-0.062-0.052-0.118-0.072-0.17c-0.057-0.134-0.098-0.222-0.113-0.258c-0.005-0.01-0.005-0.016-0.005-0.016
				s4.003-1.788,8.531-4.075c0.649-0.324,1.309-0.665,1.968-1.01c2.375-1.231,4.755-2.555,6.666-3.782
				c0.118,1.458,0.139,2.627,0.041,2.973c-0.015,0.051-0.031,0.108-0.057,0.16c-0.016,0.036-0.031,0.072-0.046,0.103
				c-0.005,0.005-0.005,0.015-0.01,0.021c-0.005,0.01-0.005,0.015-0.01,0.026c-0.015,0.031-0.031,0.062-0.051,0.098
				c-0.046,0.088-0.098,0.18-0.149,0.273c-0.026,0.051-0.057,0.108-0.082,0.165c-0.026,0.046-0.046,0.093-0.067,0.139
				c-0.021,0.036-0.036,0.077-0.051,0.113c-0.031,0.072-0.057,0.149-0.088,0.227c-0.021,0.072-0.041,0.144-0.062,0.216
				c-0.016,0.057-0.031,0.113-0.041,0.175c-0.01,0.057-0.021,0.118-0.031,0.18s-0.015,0.129-0.021,0.201
				c-0.01,0.103-0.015,0.216-0.015,0.335c0,0.314,0.036,0.675,0.113,1.097c0.051,0.278,0.124,0.742,0.206,1.34
				c0.021,0.149,0.041,0.309,0.067,0.474c0.021,0.154,0.046,0.309,0.067,0.474c0.016,0.103,0.031,0.211,0.046,0.325
				c0.041,0.283,0.082,0.577,0.124,0.886c0.026,0.206,0.062,0.417,0.088,0.634c0.083,0.541,0.165,1.113,0.253,1.7
				c0.036,0.237,0.072,0.474,0.108,0.716c0.021,0.118,0.036,0.237,0.057,0.361c0.041,0.242,0.077,0.49,0.118,0.732
				c0,0.021,0.005,0.046,0.01,0.067c0.031,0.17,0.057,0.335,0.082,0.505c0.124,0.737,0.253,1.479,0.392,2.2
				c0.01,0.072,0.026,0.144,0.041,0.216c0.216,1.128,0.448,2.215,0.695,3.179c0.026,0.093,0.052,0.186,0.072,0.278
				c0.113,0.417,0.227,0.804,0.345,1.164c0.036,0.108,0.072,0.216,0.108,0.319c0.118,0.35,0.247,0.665,0.376,0.938
				c0.01,0.026,0.021,0.051,0.036,0.072c0.016,0.041,0.036,0.077,0.051,0.108c0.021,0.041,0.041,0.082,0.067,0.118
				c0.005,0.021,0.016,0.036,0.026,0.051c0.005,0.01,0.01,0.021,0.015,0.031c0.026,0.041,0.051,0.088,0.077,0.124
				c0.031,0.052,0.062,0.098,0.093,0.139c0.124,0.175,0.252,0.304,0.381,0.386c0.35,0.216,0.721,0.294,1.103,0.232
				c0.036-0.005,0.072-0.01,0.103-0.021c0.01-0.005,0.026-0.005,0.036-0.01c0.067-0.016,0.134-0.036,0.201-0.062
				c0.01,0,0.016-0.005,0.026-0.01c0.057-0.021,0.113-0.046,0.175-0.077c0.067-0.031,0.134-0.067,0.201-0.108
				c0.201-0.118,0.402-0.273,0.598-0.464c0.015-0.01,0.026-0.021,0.036-0.036c0.072-0.072,0.149-0.149,0.221-0.232
				c0.088-0.093,0.17-0.196,0.253-0.304c0.026-0.026,0.046-0.057,0.067-0.088c0.077-0.098,0.149-0.196,0.211-0.304
				c0.072-0.103,0.144-0.211,0.211-0.325c0.082-0.129,0.16-0.268,0.232-0.407c0.077-0.144,0.155-0.294,0.227-0.443
				c0.299-0.608,0.572-1.309,0.804-2.087c0.062-0.191,0.118-0.392,0.17-0.592c0.046-0.175,0.093-0.35,0.139-0.531
				c0.098-0.422,0.191-0.865,0.268-1.319c0.016-0.098,0.031-0.191,0.046-0.288c0.026-0.155,0.051-0.314,0.072-0.474v-0.016
				c0.036-0.242,0.067-0.484,0.093-0.731c0.675-6.208,5.1-12.931,4.822-14.111c-0.021-0.082-0.041-0.155-0.067-0.227
				c-0.021-0.067-0.052-0.134-0.077-0.196c-0.057-0.129-0.118-0.242-0.191-0.355c-0.098-0.17-0.211-0.34-0.319-0.531
				c-0.031-0.051-0.057-0.098-0.088-0.154c-0.051-0.103-0.108-0.211-0.155-0.335c-0.031-0.067-0.057-0.134-0.082-0.206
				c4.292,1.257,9.789,5.507,17.99,10.283c-0.268,0.088-0.52,0.191-0.762,0.309c0,0-0.005,0-0.005,0.005
				c-0.083,0.036-0.16,0.077-0.237,0.129c-0.041,0.016-0.077,0.041-0.118,0.067c-0.016,0.005-0.036,0.016-0.051,0.031
				c-0.083,0.046-0.16,0.098-0.237,0.155c-0.088,0.062-0.175,0.124-0.258,0.191c-0.077,0.062-0.149,0.124-0.221,0.186
				c-0.067,0.051-0.134,0.113-0.196,0.175c-0.098,0.088-0.196,0.186-0.288,0.288c-0.098,0.108-0.196,0.216-0.283,0.33
				c-0.062,0.072-0.124,0.15-0.18,0.227c-0.108,0.144-0.211,0.294-0.309,0.448c-0.077,0.118-0.154,0.242-0.227,0.371
				c-0.031,0.057-0.067,0.113-0.098,0.175c-0.041,0.072-0.077,0.144-0.113,0.216c-0.057,0.108-0.108,0.216-0.16,0.33
				c-0.016,0.031-0.031,0.062-0.046,0.098c-0.057,0.118-0.108,0.242-0.16,0.366c-0.062,0.144-0.118,0.288-0.17,0.438
				c-0.057,0.144-0.108,0.294-0.16,0.448c-0.051,0.155-0.098,0.309-0.144,0.464c-0.098,0.314-0.18,0.634-0.258,0.963
				c-0.005,0.021-0.01,0.041-0.016,0.062c-0.062,0.268-0.118,0.541-0.17,0.819c-0.031,0.149-0.062,0.299-0.082,0.448
				c-0.031,0.149-0.051,0.304-0.072,0.459c-0.046,0.288-0.087,0.582-0.124,0.881c0,0.016,0,0.031-0.005,0.051
				c-0.036,0.314-0.067,0.629-0.093,0.948c-0.015,0.17-0.031,0.345-0.041,0.52c-0.015,0.17-0.026,0.345-0.031,0.52
				c-0.005,0.067-0.01,0.129-0.01,0.196c-0.01,0.175-0.021,0.35-0.026,0.525c0,0.041-0.005,0.082-0.005,0.124
				c-0.005,0.144-0.01,0.288-0.01,0.433c-0.01,0.335-0.016,0.67-0.016,1.005v0.118c0,0.407,0.005,0.819,0.016,1.226
				c0.005,0.221,0.01,0.448,0.021,0.67c0.01,0.314,0.026,0.629,0.041,0.938c0.01,0.268,0.026,0.531,0.046,0.788
				c0.005,0.144,0.015,0.283,0.026,0.423c0.046,0.634,0.098,1.247,0.155,1.834c0.046,0.453,0.093,0.891,0.139,1.314
				c0.021,0.16,0.036,0.319,0.057,0.474c0.015,0.154,0.036,0.309,0.057,0.458c0.021,0.155,0.036,0.299,0.057,0.443
				c0.01,0.093,0.026,0.186,0.036,0.273c0.005,0.051,0.016,0.103,0.021,0.155c0.021,0.139,0.041,0.273,0.057,0.402
				c0.021,0.134,0.036,0.258,0.057,0.386c0.036,0.247,0.072,0.484,0.108,0.701c0.005,0.046,0.015,0.093,0.021,0.139
				c0.026,0.17,0.051,0.325,0.077,0.469c0.015,0.093,0.031,0.18,0.046,0.263c0.016,0.082,0.026,0.165,0.041,0.237
				c0.026,0.165,0.052,0.309,0.072,0.422c0.021,0.098,0.036,0.175,0.046,0.237c0,0.005,0,0.01,0,0.01
				c0.01,0.031,0.015,0.057,0.015,0.077c0.01,0.046,0.015,0.067,0.015,0.067s-0.572,2.787-1.128,7.486
				c-0.041,0.335-0.082,0.68-0.118,1.041c0,0.005,0,0.01-0.005,0.021c-0.103,0.933-0.206,1.927-0.299,2.983
				c-0.057,0.556-0.103,1.123-0.149,1.71c-0.021,0.258-0.041,0.525-0.062,0.793c-0.124,1.607-0.227,3.328-0.299,5.141
				c-0.108,2.571-0.16,5.332-0.124,8.228c0.01,0.603,0.021,1.211,0.036,1.824v0.046c0.01,0.484,0.026,0.979,0.046,1.473
				c0.005,0.144,0.01,0.289,0.015,0.433c0,0.098,0.005,0.196,0.01,0.294c0.021,0.458,0.041,0.922,0.062,1.391
				c0.005,0.062,0.005,0.118,0.01,0.18c0.026,0.536,0.057,1.077,0.093,1.623c0.026,0.417,0.057,0.835,0.088,1.257
				c0.098,1.381,0.221,2.782,0.371,4.194c0.036,0.34,0.072,0.68,0.113,1.02c0.196,1.746,0.433,3.514,0.716,5.296
				c0.041,0.253,0.082,0.505,0.124,0.763c0.587,3.539,1.35,7.13,2.334,10.706c2.833,10.324,4.966,26.527,6.533,42.997
				c2.02,21.2,3.096,42.837,3.529,52.961v0.005C242.989,400.853,243.061,403.017,243.061,403.017z"/>
			<path style="opacity:0.15;fill:#E27474;" d="M204.866,286.838c0.041,0.556-0.201,0.963-0.67,1.298h-0.005
				c-0.551,0.397-1.417,0.695-2.514,1.035c-0.577,0.18-1.216,0.366-1.917,0.582h-0.005c-3.483,1.077-8.325,2.864-13.148,7.656
				c-8.634,8.578-27.629,55.423-31.946,85.263c-0.16-0.144-0.314-0.283-0.474-0.422c0.948-6.172,5.296-32.961,11.921-49.932
				c0.335-0.86,0.69-1.757,1.066-2.684c0.129-0.309,0.253-0.623,0.381-0.943c1.607-3.926,3.514-8.392,5.548-13.075
				c0.237-0.541,0.474-1.082,0.706-1.628c0.479-1.087,0.953-2.184,1.437-3.287c1.206-2.756,2.432-5.548,3.642-8.315
				c0.041-0.082,0.072-0.165,0.108-0.242c0.211-0.474,0.417-0.948,0.618-1.417c0.474-1.077,0.938-2.143,1.401-3.204
				c0.5-1.149,0.989-2.282,1.473-3.405c0.098-0.222,0.196-0.448,0.288-0.67c0.345-0.793,0.685-1.582,1.015-2.359
				c0.113-0.258,0.221-0.51,0.33-0.768c0.108-0.252,0.216-0.505,0.325-0.757c0.067-0.165,0.134-0.33,0.206-0.489
				c0.129-0.299,0.252-0.598,0.376-0.891c0.165-0.381,0.325-0.762,0.479-1.133c0.124-0.299,0.247-0.592,0.371-0.886
				c0.191-0.448,0.371-0.891,0.551-1.324c0.031-0.067,0.057-0.134,0.083-0.201c0.026-0.057,0.051-0.113,0.072-0.17
				c0.196-0.464,0.381-0.922,0.567-1.376c0.428-1.041,0.829-2.045,1.206-2.998v-0.005c0.057-0.139,0.113-0.273,0.165-0.412
				c0.376-0.958,0.726-1.87,1.046-2.73c0.067-0.186,0.134-0.366,0.201-0.546c0.041-0.108,0.082-0.216,0.118-0.325
				c0.036-0.103,0.077-0.211,0.113-0.314c0.072-0.201,0.144-0.402,0.211-0.598c0.206-0.587,0.397-1.144,0.562-1.664
				c0.242-0.742,0.443-1.406,0.592-1.994c3.838,3.694,9.021,8.861,11.71,12.282c0.428,0.546,0.793,1.051,1.082,1.494
				C204.587,285.941,204.84,286.472,204.866,286.838z"/>
			<path style="opacity:0.45;fill:#E27474;" d="M196.53,285.55c-4.487,0.773-9.51,4.987-15.512,11.973
				c2.251-5.183,4.379-10.134,6.136-14.43c1.561-3.812,2.823-7.109,3.622-9.593C193.882,278.08,202.578,284.509,196.53,285.55z"/>
			<path style="opacity:0.15;fill:#E27474;" d="M222.485,416.885c0.046-0.021,0.087-0.041,0.134-0.062
				c0.397-0.185,0.788-0.371,1.175-0.562c0.18-0.087,0.366-0.18,0.546-0.273c0.242-0.118,0.479-0.237,0.716-0.361
				c0.304-0.155,0.608-0.314,0.907-0.469c1-0.531,1.963-1.072,2.89-1.618c0.242-0.139,0.484-0.283,0.716-0.422
				c0.299-0.18,0.592-0.355,0.881-0.536c0.335-0.206,0.665-0.412,0.989-0.618c0.654-0.417,1.288-0.835,1.896-1.247
				c0.278-0.186,0.551-0.371,0.819-0.556c0.314-0.222,0.623-0.438,0.922-0.649c0.273-0.191,0.531-0.381,0.788-0.567
				c0.01-0.01,0.021-0.015,0.031-0.026c0.268-0.191,0.526-0.381,0.778-0.572c0.762-0.572,1.458-1.108,2.097-1.613
				c0.005-0.005,0.005-0.005,0.005-0.01c1.88-1.499,3.194-2.684,3.838-3.282c0.036-0.036,0.077-0.072,0.108-0.103
				c0.227-0.211,0.34-0.325,0.34-0.325s-0.072-2.164-0.232-5.894c0,0,0.005,0,0-0.005c-0.433-10.123-1.51-31.761-3.529-52.961
				c-1.566-16.47-3.699-32.673-6.533-42.997c-0.984-3.575-1.746-7.166-2.334-10.706c-0.041-0.258-0.082-0.51-0.124-0.763
				c-0.283-1.783-0.52-3.55-0.716-5.296c-0.041-0.34-0.077-0.68-0.113-1.02c-0.149-1.412-0.273-2.813-0.371-4.194
				c-0.031-0.423-0.062-0.84-0.088-1.257c-0.036-0.546-0.067-1.087-0.093-1.623c-0.005-0.062-0.005-0.118-0.01-0.18
				c-0.021-0.469-0.041-0.932-0.062-1.391c-0.005-0.098-0.01-0.196-0.01-0.294c-0.005-0.144-0.01-0.289-0.015-0.433
				c-0.021-0.495-0.036-0.989-0.046-1.473v-0.046c-0.015-0.613-0.026-1.221-0.036-1.824c-0.036-2.895,0.015-5.657,0.124-8.228
				c0.072-1.813,0.175-3.534,0.299-5.141c0.021-0.268,0.041-0.536,0.062-0.793c0.046-0.587,0.093-1.154,0.149-1.71
				c0.093-1.056,0.196-2.05,0.299-2.983v-0.021c0.005,0,0.005,0,0.005,0c0.036-0.361,0.077-0.706,0.118-1.041
				c0.556-4.699,1.128-7.486,1.128-7.486s-0.005-0.021-0.016-0.067c0-0.021-0.005-0.046-0.015-0.077c0,0,0-0.005,0-0.01
				c-0.01-0.062-0.026-0.139-0.046-0.237c-0.021-0.113-0.046-0.258-0.072-0.423c-0.015-0.072-0.026-0.154-0.041-0.237
				c-0.015-0.082-0.031-0.17-0.046-0.263c-0.026-0.144-0.051-0.299-0.077-0.469c-0.005-0.046-0.016-0.093-0.021-0.139
				c-0.036-0.216-0.072-0.453-0.108-0.701c-0.021-0.129-0.036-0.252-0.057-0.386c-0.015-0.129-0.036-0.263-0.057-0.402
				c-0.005-0.051-0.015-0.103-0.021-0.155c-0.01-0.087-0.026-0.18-0.036-0.273c-0.021-0.144-0.036-0.288-0.057-0.443
				c-0.021-0.149-0.041-0.304-0.057-0.458c-0.021-0.155-0.036-0.314-0.057-0.474c-0.046-0.422-0.093-0.86-0.139-1.314
				c-0.057-0.587-0.108-1.2-0.155-1.834c-0.01-0.139-0.021-0.278-0.026-0.423c-0.021-0.258-0.036-0.52-0.046-0.788
				c-0.016-0.309-0.031-0.623-0.041-0.938c-0.01-0.222-0.016-0.448-0.021-0.67c-0.01-0.448-0.016-0.896-0.016-1.345
				c0-0.335,0.005-0.67,0.016-1.005c0-0.144,0.005-0.288,0.01-0.433c0.01-0.283,0.021-0.567,0.041-0.845
				c0.015-0.35,0.041-0.695,0.072-1.041c0.108-1.278,0.288-2.514,0.562-3.668c0.077-0.33,0.16-0.649,0.258-0.963
				c0.046-0.155,0.093-0.309,0.144-0.464c0.052-0.155,0.103-0.304,0.16-0.448c0.051-0.149,0.108-0.294,0.17-0.438
				c0.407-0.994,0.927-1.86,1.576-2.561c0.093-0.103,0.191-0.201,0.288-0.288c0.062-0.062,0.129-0.124,0.196-0.175
				c0.34-0.304,0.716-0.556,1.128-0.762c0.242-0.118,0.495-0.222,0.762-0.309c-8.202-4.776-13.699-9.026-17.99-10.283
				c0.026,0.072,0.052,0.139,0.082,0.206c0.046,0.124,0.103,0.232,0.155,0.335c0.031,0.057,0.057,0.103,0.088,0.154
				c0.108,0.191,0.222,0.361,0.319,0.531c0.072,0.113,0.134,0.227,0.191,0.355c0.026,0.062,0.057,0.129,0.077,0.196
				c0.026,0.072,0.046,0.144,0.067,0.227c0.278,1.18-4.147,7.903-4.822,14.111c-0.026,0.221-0.051,0.438-0.077,0.654
				c-0.108,0.768-0.242,1.494-0.402,2.174c-0.046,0.18-0.093,0.355-0.139,0.531c-0.052,0.201-0.108,0.402-0.17,0.592
				c-0.232,0.778-0.505,1.479-0.804,2.087c-0.072,0.149-0.149,0.299-0.227,0.443c0,0.005,0,0.01-0.005,0.015
				c-0.077,0.134-0.149,0.268-0.227,0.392c-0.067,0.113-0.139,0.221-0.211,0.324c-0.088,0.139-0.18,0.268-0.278,0.392
				c-0.082,0.108-0.17,0.211-0.253,0.304c-0.072,0.083-0.149,0.16-0.221,0.232c-0.01,0.015-0.021,0.026-0.036,0.036
				c-0.129,0.124-0.263,0.237-0.397,0.33c-0.067,0.052-0.134,0.093-0.201,0.134c-0.067,0.041-0.134,0.077-0.201,0.108
				c-0.067,0.036-0.134,0.062-0.201,0.088c-0.067,0.026-0.134,0.046-0.201,0.062c-0.046,0.015-0.098,0.026-0.149,0.031
				c-0.376,0.057-0.742-0.016-1.092-0.232c-0.129-0.082-0.258-0.211-0.381-0.386c-0.031-0.041-0.062-0.088-0.093-0.139
				c-0.026-0.036-0.051-0.082-0.077-0.124c-0.129-0.221-0.252-0.489-0.376-0.793c-0.031-0.072-0.062-0.149-0.088-0.227
				c-0.144-0.386-0.288-0.824-0.428-1.303c-0.036-0.129-0.072-0.258-0.108-0.392c-0.005-0.026-0.016-0.057-0.026-0.088
				c-0.021-0.093-0.046-0.185-0.072-0.278c-0.33-1.288-0.634-2.787-0.907-4.317c-0.021-0.124-0.041-0.247-0.067-0.371
				c-0.021-0.134-0.046-0.268-0.067-0.402c-0.062-0.335-0.113-0.675-0.17-1.01c-0.005-0.021-0.01-0.046-0.01-0.067
				c-0.051-0.314-0.098-0.623-0.149-0.932c-0.01-0.057-0.015-0.108-0.026-0.16c-0.052-0.355-0.108-0.711-0.16-1.056
				c-0.036-0.237-0.067-0.469-0.103-0.695c-0.026-0.206-0.057-0.407-0.088-0.603c-0.031-0.237-0.067-0.469-0.098-0.695
				c-0.041-0.309-0.082-0.603-0.124-0.886c-0.015-0.113-0.031-0.221-0.046-0.325c-0.021-0.165-0.046-0.319-0.067-0.474
				c-0.113-0.829-0.206-1.468-0.273-1.814c-0.077-0.422-0.113-0.783-0.113-1.097c0-0.118,0.005-0.232,0.015-0.335
				c0.005-0.072,0.01-0.139,0.021-0.201s0.021-0.124,0.031-0.18c0.01-0.062,0.026-0.118,0.041-0.175
				c0.021-0.072,0.041-0.144,0.062-0.216c0.031-0.077,0.057-0.154,0.088-0.227c0.015-0.036,0.031-0.077,0.051-0.113
				c0.021-0.046,0.041-0.093,0.067-0.139c0.026-0.057,0.057-0.113,0.082-0.165c0.051-0.093,0.103-0.186,0.149-0.273
				c0.026-0.046,0.046-0.082,0.062-0.124c0.005-0.005,0.005-0.016,0.01-0.021c0.016-0.031,0.031-0.067,0.046-0.103
				c0.026-0.051,0.041-0.108,0.057-0.16c0.098-0.345,0.077-1.515-0.041-2.973c-1.911,1.226-4.291,2.55-6.666,3.782
				c1.989,0.474,3.194,1.772,3.277,4.08c0.113,3.225,0.335,10.432,2.442,15.327c0.556,1.303,1.252,2.437,2.112,3.297
				c1.082,1.077,2.432,1.71,4.116,1.659c1.556-0.046,2.689-0.809,3.539-2.02c0.494-0.701,0.891-1.556,1.226-2.504
				c2.056-5.878,1.582-15.533,5.209-16.743c5.224-1.741,10.365-0.458,8.346,7.805c-0.804,3.292-1.437,6.208-1.762,9.067
				c-0.005,0.026-0.01,0.051-0.01,0.072c-0.489,4.291-0.289,8.454,1.041,13.575c0.175,0.665,0.263,1.463,0.278,2.37
				c0.021,1.046-0.051,2.246-0.201,3.581c-0.005,0.062-0.01,0.129-0.021,0.196c-0.026,0.206-0.046,0.412-0.077,0.623
				c-0.144,1.128-0.335,2.344-0.562,3.637c-0.139,0.804-0.299,1.638-0.464,2.504c0,0.005-0.005,0.016-0.005,0.026
				c-0.031,0.165-0.067,0.33-0.098,0.495c-0.206,1.041-0.422,2.122-0.659,3.235c-0.103,0.515-0.216,1.035-0.325,1.571v0.005
				c-0.087,0.397-0.17,0.793-0.257,1.195c-0.072,0.361-0.15,0.721-0.227,1.087c-2.643,12.447-5.986,28.165-4.997,42.461
				c1.592,22.921,3.895,77.417-10.402,105.52c3.761,1.113,7.583,2.061,11.478,2.823L222.485,416.885z"/>
			<path style="opacity:0.45;fill:#E27474;" d="M222.485,416.885c0.046-0.021,0.087-0.041,0.134-0.062
				c0.397-0.185,0.788-0.371,1.175-0.562c0.18-0.087,0.366-0.18,0.546-0.273c0.242-0.118,0.479-0.237,0.716-0.361
				c0.304-0.155,0.608-0.314,0.907-0.469c1-0.531,1.963-1.072,2.89-1.618c0.242-0.139,0.484-0.283,0.716-0.422
				c0.299-0.18,0.592-0.355,0.881-0.536c0.335-0.206,0.665-0.412,0.989-0.618c0.654-0.417,1.288-0.835,1.896-1.247
				c0.278-0.186,0.551-0.371,0.819-0.556c0.314-0.222,0.623-0.438,0.922-0.649c0.273-0.191,0.531-0.381,0.788-0.567
				c0.01-0.01,0.021-0.015,0.031-0.026c0.268-0.191,0.526-0.381,0.778-0.572c0.762-0.572,1.458-1.108,2.097-1.613
				c0.005-0.005,0.005-0.005,0.005-0.01c1.88-1.499,3.194-2.684,3.838-3.282c0.036-0.036,0.077-0.072,0.108-0.103
				c0.227-0.211,0.34-0.325,0.34-0.325s-0.072-2.164-0.232-5.894c0,0,0.005,0,0-0.005c-0.433-10.123-1.51-31.761-3.529-52.961
				c-1.566-16.47-3.699-32.673-6.533-42.997c-0.984-3.575-1.746-7.166-2.334-10.706c-0.041-0.258-0.082-0.51-0.124-0.763
				c-0.283-1.783-0.52-3.55-0.716-5.296c-0.041-0.34-0.077-0.68-0.113-1.02c-0.149-1.412-0.273-2.813-0.371-4.194
				c-0.031-0.423-0.062-0.84-0.088-1.257c-0.036-0.546-0.067-1.087-0.093-1.623c-2.045,17.001-1.231,24.054,1.427,39.612
				c3.04,17.789,0.134,77.638-9.634,100.636L222.485,416.885z"/>
			<path style="fill:#912323;" d="M213.1,257.112c-0.366-4.11-6.412-5.966-5.402-8.993c1.011-3.027,5.036,4.884,5.036,4.884
				s-2.393-6.667-0.885-7.981c1.508-1.314,2.42,7.081,2.42,7.081s0.211-5.556,2.44-7.442c2.228-1.887,0.384,7.882,0.384,7.882
				s0.797-5.153,4.977-6.274c4.18-1.121-1.751,6.199-1.751,6.199s4.823-6.284,8.38-4.591s-5.75,5.938-5.75,5.938
				s5.945-3.623,8.376-1.282c2.43,2.341-7.487,2.824-9.827,5.585L213.1,257.112z"/>
			<path style="fill:#FF5252;" d="M208.039,263.811c-0.245-6.108-9.059-9.291-7.345-13.698c1.714-4.407,7.1,7.59,7.1,7.59
				s-3.061-10.038-0.734-11.875c2.326-1.836,3.07,10.653,3.07,10.653s0.713-8.206,4.147-10.837c3.434-2.631,0,11.692,0,11.692
				s1.551-7.567,7.818-8.925c6.266-1.358-3.037,9.048-3.037,9.048s7.59-8.952,12.732-6.19c5.142,2.762-8.937,8.373-8.937,8.373
				s9.059-4.932,12.487-1.293c3.428,3.639-11.283,3.639-14.945,7.557L208.039,263.811z"/>
			<path style="fill:#D33333;" d="M210.015,265.684c-0.797-4.048-7.005-5.257-6.319-8.374c0.686-3.117,5.522,4.326,5.522,4.326
				s-3.082-6.378-1.721-7.844c1.361-1.466,3.152,6.787,3.152,6.787s-0.375-5.547,1.642-7.658c2.017-2.111,1.212,7.798,1.212,7.798
				s0.25-5.208,4.289-6.763c4.039-1.555-1.088,6.349-1.088,6.349s4.134-6.757,7.85-5.448c3.715,1.309-5.092,6.511-5.092,6.511
				s5.531-4.229,8.194-2.157c2.663,2.072-7.148,3.597-9.184,6.589L210.015,265.684z"/>
			<path style="fill:#E27474;" d="M204.842,292.837c-0.372,0.017-0.602-0.406-0.358-0.688c3.847-4.431,4.37-12.745,3.769-19.695
				c-0.506-5.856-3.517-9.655-4.774-11.005c-0.228-0.245-0.097-0.642,0.232-0.698c3.144-0.541,14.987-2.078,21.354,4.091
				c0.189,0.183,0.155,0.494-0.061,0.644c-7.479,5.222-12.641,15.023-14.133,21.97c-0.569,2.65-0.525,5.332-0.364,7.243
				c0.048,0.565-0.66,0.84-1.021,0.402C208.51,293.917,206.989,292.738,204.842,292.837z"/>
			<path style="fill:#FFCDBB;" d="M204.183,280.412c1.591,0.367,3.122-2.51,4.162-1.897c1.04,0.612,3.795,0.918,6.182-0.367
				s1.53,5.937-1.285,8.692c-2.816,2.754-10.1,1.469-11.324,0.49L204.183,280.412z"/>
			<path style="fill:#591E29;" d="M200.08,289.774c-0.938,0.031-3.101-0.866-5.796-2.318c-2.159-1.159-4.657-2.679-7.13-4.364
				c-6.12-4.168-12.091-9.325-12.411-12.534c-0.288-2.875,1.231-12.746,3.498-23.431c1.813-8.567,4.106-17.66,6.331-24.095
				c0.912-2.633,1.808-4.817,2.653-6.342c0,0,4.044,9.124,3.493,14.538c-0.551,5.42-5.234,10.376-3.859,18.273
				c0.556,3.194,1.412,6.141,2.262,8.872l-1.406,3.982c0,0,0.144,0.144,0.402,0.407c0.577,0.587,1.731,1.762,3.168,3.235
				c4.75,4.868,12.648,13.039,13.328,14.229C205.592,281.944,203.634,289.656,200.08,289.774z"/>
			<ellipse style="fill:#591E29;" cx="198.526" cy="186.455" rx="1.224" ry="1.714"/>
			<path style="fill:#591E29;" d="M210.13,184.986c0,0.947-0.548,1.714-1.224,1.714c-0.676,0-1.224-0.767-1.224-1.714
				c0-0.947,0.548-1.714,1.224-1.714C209.582,183.272,210.13,184.039,210.13,184.986z"/>
			
				<path style="fill:none;stroke:#E27474;stroke-width:0.5152;stroke-linecap:round;stroke-linejoin:round;stroke-miterlimit:10;" d="
				M203.111,186.699c-0.275,1.285-1.148,2.709-0.184,3.627c0.964,0.918,1.836,0,1.836,0"/>
			<path style="fill:#FFFFFF;" d="M207.06,194.917c3.076,0.046,5.05-2.066,5.05-2.066s0.941,3.03-1.538,3.856
				C208.092,197.534,207.06,194.917,207.06,194.917z"/>
			
				<path style="fill:none;stroke:#E27474;stroke-width:0.5152;stroke-linecap:round;stroke-linejoin:round;stroke-miterlimit:10;" d="
				M222.852,184.986c-1.041,0.673-0.979,2.745,0,2.627"/>
			<path style="fill:#F9B29B;" d="M217.786,182.163c-3.472,0.371-8.825-1.613-12.38-5.317c-2.632,0.793-7.836-0.737-9.546,1.041
				c-1.437,1.484-1.195,5.039-2.885,8.387c-0.376-1.195-0.587-1.963-0.587-1.963s0.896-6.734,0.448-12.916
				c2.761,4.776,10.855,4.286,14.966,1.901c2.251,6.363,9.891,8.568,9.891,8.568L217.786,182.163z"/>
			<path style="fill:#F7987F;" d="M216.761,205.3c-3.838,0.814-9.665,1.015-12.663-0.01c-0.098-0.706-0.216-1.406-0.356-2.071
				c1.551,0.659,3.313,0.819,5.476,0.314c2.555-0.598,5.368-3.374,7.506-6.429c-0.361,2.839-0.134,5.415,0.01,7.862
				C216.741,205.084,216.751,205.192,216.761,205.3z"/>
			<path style="fill:#FFDDD2;" d="M215.082,199.226c-1.829,2.138-3.921,3.854-5.863,4.307c-2.164,0.505-3.926,0.345-5.476-0.314
				c-2.097-0.891-3.802-2.715-5.574-5.075c-1.345-1.788-2.617-4.647-3.622-7.3c0.453-1.185,1.628-0.242,2.354,2.009
				c1.041,3.21,4.281,8.598,9.242,9.454C209.142,202.827,212.583,201.235,215.082,199.226z"/>
			<path style="fill:#F7987F;" d="M213.258,223.167c-0.67,6.208-3.416,9.984-5.492,8.696c-2.071-1.288-3.586-15.311-4.003-17.537
				c-0.108-0.582-0.134-1.046-0.098-1.432c1.025,7.408,2.679,16.383,4.771,16.774c2.36,0.443,5.008-14.724,9.309-21.39
				c0.139,0.227,0.258,0.459,0.335,0.778C218.358,210.235,213.933,216.958,213.258,223.167z"/>
			<path style="fill:#491722;" d="M190.719,231.229c-0.551,5.42-5.234,10.376-3.859,18.273c0.556,3.194,1.412,6.141,2.262,8.872
				l-1.406,3.982c0,0,0.144,0.144,0.402,0.407c-5.116,1.618-8.31,6.661-8.604,5.1c-0.366-1.958,5.389-7.223,3.797-11.999
				c-1.592-4.771,0.613-9.794,2.695-16.749c1.499-5.013,0.52-10.128-1.432-16.084c0.912-2.633,1.808-4.817,2.653-6.342
				C187.226,216.691,191.27,225.814,190.719,231.229z"/>
			<path style="opacity:0.15;fill:#E27474;" d="M203.624,255.252c0.175,1.978-8.006,4.982-14.374,3.534
				c-0.041-0.134-0.088-0.273-0.129-0.412c-0.85-2.731-1.705-5.677-2.262-8.872c-1.376-7.898,3.307-12.854,3.859-18.273
				c0.16-1.587-0.072-3.488-0.484-5.389c1.917-1.164,2.921,0.922,2.746,4.93c-0.242,5.631-2.911,11.138-2.679,18.243
				C190.533,256.112,203.372,252.439,203.624,255.252z"/>
			
				<path style="fill:none;stroke:#591E29;stroke-width:1.0304;stroke-linecap:round;stroke-linejoin:round;stroke-miterlimit:10;" d="
				M195.117,183.272c0,0,0.017-2.326,3.409-1.592"/>
			
				<path style="fill:none;stroke:#591E29;stroke-width:1.0304;stroke-linecap:round;stroke-linejoin:round;stroke-miterlimit:10;" d="
				M206.325,180.701c0,0,1.75-2.693,4.548,0"/>
			<path style="opacity:0.1;fill:#E27474;" d="M173.177,377.052c-1.52,5.327-2.967,10.597-4.137,15.44
				c-0.108,0.438-0.211,0.871-0.309,1.298c-0.01-0.005-0.021-0.015-0.031-0.021c-2.102-1.484-4.173-3.024-6.213-4.621
				c-1.386-1.072-2.761-2.179-4.116-3.313c10.139-19.974,17.583-50.05,23.472-50.761
				C186.144,334.549,179.122,356.192,173.177,377.052z"/>
			<path style="opacity:0.1;fill:#E27474;" d="M200.141,410.647c-0.021-0.005-0.041-0.01-0.062-0.026
				c-4.127-1.566-8.166-3.338-12.112-5.306c-3.143-1.566-6.229-3.251-9.253-5.044c9.165-22.318,19.567-62.461,26.151-61.26
				C211.882,340.288,201.878,382.327,200.141,410.647z"/>
			<path style="fill:#702C3A;" d="M194.284,287.456c-2.159-1.159-4.657-2.679-7.13-4.364c-6.12-4.168-12.091-9.325-12.411-12.534
				c-0.288-2.875,1.231-12.746,3.498-23.431c1.211-1.602,1.839,0.294,1.257,3.385c-0.902,4.771-2.648,18.67-2.097,20.994
				c0.551,2.323,17.774,12.333,18.088,14.538C195.608,286.884,195.211,287.353,194.284,287.456z"/>
			<path style="opacity:0.1;fill:#E27474;" d="M200.08,410.621c-4.127-1.566-8.166-3.338-12.112-5.306
				c5.322-16.306,9.33-36.13,13.951-35.537C207.503,370.493,200.347,390.333,200.08,410.621z"/>
			<path style="opacity:0.1;fill:#E27474;" d="M173.177,377.052c-0.927,4.173-2.602,9.711-4.137,15.44
				c-0.113,0.422-0.227,0.85-0.34,1.278c-2.102-1.484-4.173-3.024-6.213-4.621c3.771-9.114,6.692-19.392,10.118-19.381
				C174.305,369.772,174.156,372.657,173.177,377.052z"/>
		</g>
		<g>
			<path style="fill:#FFCDBB;" d="M313.657,183.209c-3.308,0-3.581,2.849-3.946,4.132c-0.222,0.773-0.953,1.752-2.061,2.772
				c-0.917,0.85-2.092,1.726-3.441,2.55c-0.361,0.216-0.732,0.433-1.113,0.639l-0.01,0.005c-2.54,1.386-5.559,2.509-8.614,2.875
				c-2.02,0.247-4.049,0.165-5.971-0.392c-0.67-0.196-1.303-0.433-1.896-0.711c-8.408-3.921-9.227-15.857-8.212-25.981
				c0-0.005,0-0.005,0-0.005c0.469-4.647,1.319-8.913,2.004-11.844c0.077-0.325,0.149-0.634,0.221-0.927
				c0.469-1.932,0.814-3.081,0.814-3.081c3.307,5.657,4.59,3.251,18.176,6.558c-0.824,0.273-3.946,0.093-3.854,1.103
				c0.093,1.01,8.264,3.209,17.351,1.375c-0.866,0.943-1.726,3.385-2.421,6.043c-0.922,3.56-1.54,7.516-1.432,8.83
				c0.18,2.298,2.02,0.917,3.668-1.376c1.654-2.298,5.327-4.132,6.337-1.195C320.267,177.516,316.964,183.209,313.657,183.209z"/>
			<path style="fill:#591E29;" d="M327.721,161.587c1.664,6.842-4.441,18.109-9.747,21.535c-4.972,3.199-8.315,8.171-10.324,6.991
				c1.108-1.02,1.839-1.999,2.061-2.772c0.366-1.283,0.639-4.132,3.946-4.132c3.307,0,6.61-5.693,5.6-8.629
				c-1.01-2.937-4.683-1.103-6.337,1.195c-1.649,2.293-3.488,3.673-3.668,1.376c-0.185-2.292,1.834-12.668,3.854-14.873
				c-9.088,1.834-17.259-0.366-17.351-1.375c-0.093-1.01,3.029-0.829,3.854-1.103c-13.585-3.307-14.868-0.902-18.176-6.558
				c-0.144-0.912-0.268-2.112-0.247-3.478c0.067-6.419,3.189-16.439,21.365-16.594c22.034-0.18,28.278,18.088,25.064,28.005
				C327.654,161.309,327.69,161.448,327.721,161.587z"/>
			<path style="fill:#F9B29B;" d="M304.208,192.663c-1.164,3.56-1.695,9.114-1.911,12.06c-0.01,0.144-0.021,0.278-0.031,0.407
				c-0.062,0.984-0.088,1.587-0.088,1.587s-2.751,4.312-9.181,4.59c-6.424,0.273-7.712-6.795-7.712-6.795s0.046-0.222,0.124-0.613
				c0.103-0.536,0.263-1.391,0.433-2.432c0.242-1.468,0.505-3.292,0.665-5.105c0.041-0.428,0.072-0.86,0.098-1.283
				c0.592,0.278,1.226,0.515,1.896,0.711C293.771,197.315,299.891,195.29,304.208,192.663z"/>
			<path style="fill:#FFFFFF;" d="M303.157,216.325c-0.762,2.447-2.901,4.93-4.704,6.702c-1.53,1.494-2.823,2.478-2.823,2.478
				s-0.665-2.555-1.582-5.657c-0.881-2.988-1.994-6.486-2.967-8.696c-1.051,1.087-2.916,3.668-4.642,6.182
				c-2.117,3.065-4.029,6.028-4.029,6.028l-0.67-2.54l-2.21-8.351c0,0,1.164-3.694,3.009-6.254c0.835-1.154,1.803-2.071,2.87-2.318
				c-0.077,0.391-0.124,0.613-0.124,0.613s1.288,7.068,7.712,6.795c6.43-0.278,9.181-4.59,9.181-4.59s0.561,1.195,0.979,2.942
				C303.6,211.513,303.884,213.991,303.157,216.325z"/>
			<path style="fill:#591E29;" d="M364.124,247.05c-0.634,0.727-1.551,1.747-2.689,2.973c-7.65,8.227-25.198,25.692-32.446,25.8
				c-8.325,0.118-13.956-29.994-13.956-29.994s-3.488,31.215-2.571,40.03c0.917,8.815,3.673,29.566,3.308,33.605
				c-0.165,1.788-5.25,4.255-11.066,6.249c-7.326,2.509-15.801,4.261-17.032,2.931c-0.448-0.479-0.335-4.642,0.134-11.087
				c0.165-2.262,0.376-4.801,0.623-7.563c0.232-2.581,0.495-5.358,0.783-8.274c0.041-0.428,0.088-0.855,0.129-1.288
				c0.118-1.19,0.242-2.401,0.371-3.637c0.216-2.102,0.443-4.255,0.675-6.445c0.072-0.665,0.144-1.334,0.216-2.004
				c0.118-1.113,0.242-2.231,0.366-3.354c0.046-0.438,0.093-0.881,0.144-1.324c0.211-1.927,0.428-3.864,0.644-5.816
				c0.18-1.607,0.361-3.22,0.546-4.827c0.113-1.01,0.232-2.014,0.345-3.019c0.082-0.685,0.16-1.365,0.237-2.05
				c0.139-1.19,0.273-2.375,0.412-3.555c0.206-1.746,0.412-3.483,0.613-5.193c5.317-9.711,13.724-24.652,16.532-27.336
				c-1.468-4.039-4.776-12.303-4.776-12.303l6.615-3.307c0,0-3.745-1.942-3.879-7.64c6.167-0.618,13.905,0.325,15.569,4.765
				c2.205,5.873,9.917,40.03,9.917,40.03s21.669-17.748,23.626-19.098c-0.036,0.695-0.026,1.365,0.031,2.02v0.005
				C358.035,242.383,362.027,246.612,364.124,247.05z"/>
			<path style="fill:#591E29;" d="M276.254,216.083l-6.759,8.444c0,0,3.204,20.18,4.492,34.986
				c-2.617,12.864-5.445,26.552-7.872,37.897c-0.531,2.478-1.046,4.848-1.53,7.068c-2.287,10.468-4.003,17.717-4.492,18.289
				c-1.113,1.308-9.258-3.024-15.105-7.408c0-0.005,0-0.005,0-0.005c-3.993-2.988-6.914-6.007-5.796-7.274
				c2.756-3.122,8.449-22.951,8.449-22.951s-3.447-6.43-6.29-12.869c-2.241-5.08-4.111-10.165-3.627-12.107
				c0.376-1.499,2.493-7.516,5.337-15.043c5.523-14.605,13.797-34.883,17.434-38.762c3.333-3.555,8.088-3.879,12.916-2.957
				c1.68,0.319,3.369,0.793,5.008,1.329c-3.081,4.6-5.435,5.487-5.435,5.487L276.254,216.083z"/>
			<path style="fill:#FFFFFF;" d="M298.454,223.027c-0.082,0.582-0.17,1.236-0.268,1.953c-0.026,0.186-0.052,0.376-0.077,0.572
				c-0.108,0.809-0.227,1.7-0.355,2.653c-0.036,0.283-0.072,0.577-0.113,0.871c-0.057,0.443-0.113,0.896-0.175,1.36
				c-0.026,0.18-0.046,0.361-0.072,0.546c-0.041,0.33-0.088,0.665-0.129,1.005c-0.129,1.02-0.268,2.097-0.412,3.215
				c-0.046,0.376-0.093,0.752-0.144,1.133c-0.335,2.679-0.701,5.6-1.082,8.696c-0.088,0.711-0.18,1.432-0.268,2.164
				c-0.077,0.629-0.155,1.267-0.232,1.911c-0.057,0.464-0.113,0.933-0.17,1.396c-0.242,1.978-0.484,4.008-0.732,6.074
				c-0.057,0.464-0.113,0.927-0.165,1.391c-0.051,0.412-0.098,0.824-0.149,1.242c-0.34,2.869-0.685,5.796-1.025,8.748
				c-0.077,0.685-0.155,1.365-0.237,2.05c-0.113,1.005-0.232,2.009-0.345,3.019c-0.185,1.607-0.366,3.22-0.546,4.827
				c-0.216,1.953-0.433,3.89-0.644,5.816c-0.051,0.443-0.098,0.886-0.144,1.324c-0.124,1.123-0.247,2.241-0.366,3.354
				c-0.072,0.67-0.144,1.339-0.216,2.004c-0.232,2.189-0.459,4.343-0.675,6.445c-0.129,1.236-0.253,2.447-0.371,3.637
				c-0.041,0.433-0.088,0.86-0.129,1.288c-1.494,0.18-3.972,0.35-7.13,0.103c-4.317-0.34-9.902-1.463-15.965-4.415
				c2.426-11.344,5.255-25.033,7.872-37.897c1.855-9.119,3.606-17.82,5.039-24.981c1.149-5.77,2.097-10.536,2.715-13.709l0.67,2.54
				c0,0,1.911-2.962,4.029-6.028c0.062,0.572,0.299,1.092,0.763,1.535c-0.283,4.013-4.673,22.055-8.274,35.738
				c-2.051,7.795-3.843,14.173-4.477,15.734c-1.746,4.317,0.278,8.083,2.205,12.21c0.623,1.334,1.865,1.365,3.256,0.649
				c2.926-1.504,6.507-6.321,6.383-9.371c-0.17-4.06,5.214-45.614,6.254-53.625c0.623-0.046,1.118-0.17,1.499-0.355
				c0.917,3.101,1.582,5.657,1.582,5.657S296.924,224.521,298.454,223.027z"/>
			<path style="fill:#3A101B;" d="M279.531,212.471l2.21,8.351c-1.391,7.109-4.405,22.225-7.754,38.69
				c-1.288-14.806-4.492-34.986-4.492-34.986l6.759-8.444l-3.271-5.878c0,0,2.354-0.886,5.435-5.487
				c1.422,0.469,2.808,0.984,4.121,1.499C280.695,208.777,279.531,212.471,279.531,212.471z"/>
			<path style="fill:#3A101B;" d="M305.666,219.57c0,0,3.307,8.264,4.776,12.303c-2.808,2.684-11.216,17.624-16.532,27.336
				c0.051-0.417,0.098-0.829,0.149-1.242c0.057-0.464,0.108-0.927,0.165-1.391c0.247-2.066,0.489-4.096,0.732-6.074
				c0.057-0.464,0.113-0.933,0.17-1.396c0.077-0.644,0.155-1.283,0.232-1.911c0.088-0.732,0.18-1.453,0.268-2.164
				c0.381-3.096,0.747-6.017,1.082-8.696c0.052-0.381,0.098-0.762,0.144-1.133c0.144-1.118,0.283-2.195,0.412-3.215
				c0.046-0.34,0.088-0.675,0.129-1.005c0.026-0.186,0.046-0.366,0.072-0.546c0.062-0.464,0.118-0.917,0.175-1.36
				c0.041-0.294,0.077-0.587,0.113-0.871c0.129-0.953,0.247-1.844,0.355-2.653c0.026-0.196,0.052-0.386,0.077-0.572
				c0.098-0.716,0.185-1.37,0.268-1.953c1.803-1.772,3.941-4.255,4.704-6.702c0.727-2.334,0.443-4.812,0-6.666
				c1.406-0.464,3.246-0.829,5.245-1.036c0.134,5.698,3.879,7.64,3.879,7.64L305.666,219.57z"/>
			<path style="fill:#FFCDBB;" d="M364.124,247.05c-2.097-0.438-6.09-4.667-6.579-10.705v-0.005c1.108-4.75,4.771-9.701,6.151-8.598
				c1.376,1.102,0,4.451,0,6.177c0,1.721,6.059-2.411,6.976-4.709c0.917-2.298,1.654-5.786,3.215-4.132
				C375.448,226.732,375.571,240.008,364.124,247.05z"/>
			<path style="fill:#491722;" d="M304.703,325.714l-1.494,78.859c-2.195,1.133-4.415,2.205-6.667,3.21
				c-5.729,2.571-11.638,4.734-17.717,6.445c-2.071-15.136-7.862-62.507-7.862-62.507s-12.23,35.285-22.632,67.113
				c-4.322,0.118-8.583,0.021-12.771-0.288h-0.015c-0.015-0.005-0.031-0.005-0.046-0.005c-0.016-0.005-0.031-0.01-0.046-0.005
				h-0.016c-0.015,0-0.036,0-0.051-0.005c-0.453-0.031-0.902-0.067-1.355-0.108c-3.714-0.314-7.372-0.798-10.973-1.437
				c0.031-0.134,0.067-0.273,0.103-0.417c2.426-10.087,10.844-45.496,16.141-72.409c2.205-11.19,4.23-21.473,5.688-28.799
				c5.847,4.384,13.992,8.717,15.105,7.408c0.015-0.016,0.026-0.036,0.041-0.062c0.015-0.026,0.036-0.057,0.051-0.093
				c0.088-0.18,0.196-0.489,0.33-0.917c0.046-0.155,0.098-0.33,0.155-0.52c0.088-0.299,0.18-0.639,0.283-1.02
				c0.015-0.067,0.036-0.134,0.052-0.206c0.036-0.113,0.062-0.232,0.093-0.35c0.052-0.191,0.103-0.397,0.155-0.603
				c0.314-1.231,0.675-2.736,1.077-4.467c0.093-0.397,0.186-0.804,0.283-1.221c0.258-1.113,0.531-2.313,0.814-3.586
				c0.108-0.484,0.216-0.974,0.33-1.478c0.005-0.026,0.01-0.046,0.015-0.072c0.263-1.18,0.536-2.411,0.814-3.694
				c0.191,0.113,0.386,0.227,0.582,0.33c0.428,0.242,0.871,0.474,1.324,0.695c0.17,0.082,0.34,0.165,0.51,0.242
				c0.211,0.103,0.422,0.201,0.639,0.294c0.551,0.247,1.113,0.484,1.69,0.706c0.098,0.041,0.201,0.077,0.299,0.113
				c0.283,0.108,0.567,0.216,0.85,0.314c0.031,0.01,0.057,0.021,0.082,0.031c0.381,0.134,0.763,0.263,1.149,0.386
				c0.438,0.144,0.881,0.278,1.324,0.407c0.242,0.072,0.495,0.144,0.742,0.211c0.026,0.005,0.052,0.015,0.077,0.021
				c0.484,0.134,0.969,0.258,1.458,0.371c0.17,0.041,0.335,0.082,0.505,0.118c0.319,0.077,0.639,0.149,0.963,0.216
				c0.211,0.041,0.428,0.088,0.639,0.129c0.598,0.118,1.19,0.227,1.788,0.324c0.366,0.062,0.732,0.119,1.097,0.165l0.108,0.016
				c0.01,0.005,0.021,0.005,0.036,0.005c0.263,0.036,0.525,0.072,0.788,0.103c0.464,0.057,0.922,0.108,1.381,0.15
				c0.211,0.021,0.428,0.041,0.634,0.057c0.417,0.036,0.835,0.067,1.242,0.082c0.206,0.01,0.412,0.021,0.618,0.031
				c0.036,0,0.072,0.005,0.108,0.005c0.201,0.01,0.402,0.016,0.598,0.021h0.046c0.881,0.021,1.741,0.01,2.566-0.026
				c-0.247,2.761-0.459,5.301-0.623,7.563c-0.031,0.459-0.062,0.902-0.093,1.334c-0.005,0.051-0.005,0.098-0.01,0.144
				c-0.015,0.17-0.026,0.335-0.036,0.495v0.021c-0.026,0.417-0.051,0.819-0.077,1.206c-0.005,0.093-0.01,0.185-0.015,0.273
				c-0.005,0.108-0.01,0.211-0.015,0.314c0,0.005-0.005,0.015-0.005,0.02v0.098c-0.005,0.01-0.005,0.021-0.005,0.031v0.005
				c0,0.041-0.005,0.088-0.005,0.129c-0.005,0.108-0.015,0.216-0.021,0.325c0,0.031,0,0.062-0.005,0.093
				c-0.005,0.139-0.01,0.273-0.021,0.407c-0.01,0.18-0.016,0.355-0.026,0.525c-0.015,0.366-0.031,0.716-0.041,1.051
				c-0.01,0.252-0.015,0.495-0.021,0.732c-0.062,2.246,0.016,3.622,0.263,3.884C288.902,329.974,297.377,328.223,304.703,325.714z"
				/>
			<path style="fill:#3A101B;" d="M294.049,219.849c-0.381,0.185-0.876,0.309-1.499,0.355c-0.299,0.021-0.623,0.026-0.984,0.01
				c-2.21-0.108-3.596-0.613-4.364-1.345c-0.464-0.443-0.701-0.963-0.763-1.535c1.726-2.514,3.591-5.095,4.642-6.182
				C292.055,213.363,293.168,216.861,294.049,219.849z"/>
			<path style="fill:#591E29;" d="M286.295,273.829c0.186,4.503-7.712,12.854-9.639,8.722c-1.927-4.127-3.951-7.893-2.205-12.21
				c1.746-4.312,12.302-45.171,12.751-51.472c0.768,0.732,2.154,1.236,4.364,1.345c0.361,0.015,0.685,0.01,0.984-0.01
				C291.509,228.215,286.125,269.77,286.295,273.829z"/>
			<path style="fill:#E27474;" d="M289.211,301.721c-0.288,2.916-0.551,5.693-0.783,8.274c-7.29,0.34-17.254-1.638-23.843-5.518
				c0.484-2.221,0.999-4.59,1.53-7.068C276.62,302.52,285.682,302.144,289.211,301.721z"/>
			<path style="fill:#591E29;" d="M300.564,173.878c-0.116,1.059-0.904,1.841-1.761,1.747c-0.857-0.094-1.458-1.028-1.342-2.087
				c0.116-1.059,0.904-1.841,1.761-1.747C300.079,171.885,300.679,172.819,300.564,173.878z"/>
			<path style="fill:#591E29;" d="M286.837,171.953c-0.116,1.059-0.904,1.841-1.761,1.747c-0.857-0.094-1.458-1.028-1.342-2.087
				c0.116-1.059,0.904-1.841,1.761-1.747C286.352,169.961,286.953,170.895,286.837,171.953z"/>
			
				<path style="fill:none;stroke:#591E29;stroke-width:1.0304;stroke-linecap:round;stroke-linejoin:round;stroke-miterlimit:10;" d="
				M283.755,166.561c0,0,2.54-1.194,4.07,0.459"/>
			
				<path style="fill:none;stroke:#591E29;stroke-width:1.0304;stroke-linecap:round;stroke-linejoin:round;stroke-miterlimit:10;" d="
				M301.946,168.841c0,0-2.025-1.944-4.003-0.867"/>
			
				<path style="fill:none;stroke:#E27474;stroke-width:0.5152;stroke-linecap:round;stroke-linejoin:round;stroke-miterlimit:10;" d="
				M315.401,176.783c-0.826,0.459-1.331,2.892-0.184,3.03"/>
			
				<path style="fill:none;stroke:#E27474;stroke-width:0.5152;stroke-linecap:round;stroke-linejoin:round;stroke-miterlimit:10;" d="
				M289.938,177.09c-1.836,1.347-0.918,2.51,0.734,2.724"/>
			
				<path style="fill:none;stroke:#E27474;stroke-width:1.0304;stroke-linecap:round;stroke-linejoin:round;stroke-miterlimit:10;" d="
				M291.208,184.817c1.79,1.79,5.83,1.744,7.299-1.24"/>
			<path style="fill:#F7987F;" d="M304.208,192.663c-1.164,3.56-1.695,9.114-1.911,12.06l-15.79-8.361
				c0.041-0.428,0.072-0.86,0.098-1.283c0.592,0.278,1.226,0.515,1.896,0.711C293.771,197.315,299.891,195.29,304.208,192.663z"/>
			<path style="fill:#F7987F;" d="M313.105,162.277c-0.866,0.943-1.726,3.385-2.421,6.043c-0.69-2.267-2.349-4.147-5.445-4.147
				c-4.822,0-19.278-1.88-24.621-7.851c0.469-1.932,0.814-3.081,0.814-3.081c3.307,5.657,4.59,3.251,18.176,6.558
				c-0.824,0.273-3.946,0.093-3.854,1.103C295.847,161.911,304.018,164.111,313.105,162.277z"/>
			<path style="fill:#FFDDD2;" d="M303.085,193.306c-2.54,1.386-5.559,2.509-8.614,2.875c-2.02,0.247-4.049,0.165-5.971-0.392
				c-0.67-0.196-1.303-0.433-1.896-0.711c-8.408-3.921-9.227-15.857-8.212-25.981c0-0.005,0-0.005,0-0.005
				c0.783-0.948,1.221,0.629,1.139,4.018c-0.124,5.049-1.041,14.322,6.259,19.098C292.952,196.892,302.719,193.44,303.085,193.306z"
				/>
			<path style="fill:#491722;" d="M317.974,183.121c-4.972,3.199-8.315,8.171-10.324,6.991c1.108-1.02,1.839-1.999,2.061-2.772
				c0.366-1.283,0.639-4.132,3.946-4.132c3.307,0,6.61-5.693,5.6-8.629c-1.01-2.937-4.683-1.103-6.337,1.195
				c-1.649,2.293-3.488,3.673-3.668,1.376c-0.185-2.292,1.834-12.668,3.854-14.873c-9.088,1.834-17.259-0.366-17.351-1.375
				c-0.093-1.01,3.029-0.829,3.854-1.103c-13.585-3.307-14.868-0.902-18.176-6.558c-0.144-0.912-0.268-2.112-0.247-3.478
				c8.5,3.678,18.016,0.67,27.238,3.478c10.376,3.158,11.02,9.129,11.02,9.129s3.56-3.431,8.279-0.783
				C329.385,168.428,323.28,179.695,317.974,183.121z"/>
			<path style="fill:#F7987F;" d="M302.266,205.13c-0.062,0.984-0.088,1.587-0.088,1.587s-2.751,4.312-9.181,4.59
				c-6.424,0.273-7.712-6.795-7.712-6.795s0.046-0.222,0.124-0.613c0.103-0.536,0.263-1.391,0.433-2.432
				c0.665,3.045,2.493,6.872,5.724,7.681C295.069,210.024,299.639,207.829,302.266,205.13z"/>
			<path style="fill:#491722;" d="M262.391,239.709c-0.366,2.936-9.794,35.13-14.75,45.419c0,0-3.447-6.43-6.29-12.869
				c4.554-2.741,8.212-7.511,11.03-12.782c-1.757-2.839-4.364-3.323-3.637-4.559c0.752-1.278,3.534,0.335,4.771,2.323
				c4.384-9.134,6.363-19.098,6.187-22.431c-0.371-6.976,1.834-7.589,2.689-6.61C263.251,229.179,262.762,236.767,262.391,239.709z"
				/>
			<path style="fill:none;stroke:#3A101B;stroke-width:0.5152;stroke-miterlimit:10;" d="M297.895,288.675
				c0.857,7.59,4.407,10.412,10.161,9.671"/>
			<path style="fill:none;stroke:#3A101B;stroke-width:0.5152;stroke-miterlimit:10;" d="M249.049,288.675
				c7.1,2.693,12.854-6.733,12.854-6.733"/>
			<path style="fill:#491722;" d="M361.435,250.023c-7.65,8.227-25.198,25.692-32.446,25.8
				c-8.325,0.118-13.956-29.994-13.956-29.994c0-6.059,2.756-7.068,3.215-0.185c0.458,6.888,4.374,23.327,10.561,25.615
				C334.547,273.387,357.318,248.467,361.435,250.023z"/>
			<g style="opacity:0.25;">
				<path style="fill:#E27474;" d="M287.202,218.87c-0.283,4.013-4.673,22.055-8.274,35.738c-0.057-7.223,0-14.137,0.098-20.077
					c1.149-5.77,2.097-10.536,2.715-13.709l0.67,2.54c0,0,1.911-2.962,4.029-6.028C286.501,217.906,286.738,218.427,287.202,218.87z
					"/>
				<path style="fill:#E27474;" d="M298.454,223.027c-0.082,0.582-0.17,1.236-0.268,1.953c-0.026,0.186-0.052,0.376-0.077,0.572
					c-0.108,0.809-0.227,1.7-0.355,2.653c-0.036,0.283-0.072,0.577-0.113,0.871c-0.057,0.443-0.113,0.896-0.175,1.36
					c-0.026,0.18-0.046,0.361-0.072,0.546c-0.041,0.33-0.088,0.665-0.129,1.005c-0.129,1.02-0.268,2.097-0.412,3.215
					c-0.046,0.376-0.093,0.752-0.144,1.133c-0.335,2.679-0.701,5.6-1.082,8.696c-0.088,0.711-0.18,1.432-0.268,2.164
					c-0.077,0.629-0.155,1.267-0.232,1.911c-0.057,0.464-0.113,0.933-0.17,1.396c-0.242,1.978-0.484,4.008-0.732,6.074
					c-0.057,0.464-0.113,0.927-0.165,1.391c-0.051,0.412-0.098,0.824-0.149,1.242c-0.34,2.869-0.685,5.796-1.025,8.748
					c-0.077,0.685-0.155,1.365-0.237,2.05c-0.113,1.005-0.232,2.009-0.345,3.019c-0.185,1.607-0.366,3.22-0.546,4.827
					c-0.216,1.953-0.433,3.89-0.644,5.816c-0.051,0.443-0.098,0.886-0.144,1.324c-0.124,1.123-0.247,2.241-0.366,3.354
					c-0.072,0.67-0.144,1.339-0.216,2.004c-0.232,2.189-0.459,4.343-0.675,6.445c-0.129,1.236-0.253,2.447-0.371,3.637
					c-0.041,0.433-0.088,0.86-0.129,1.288c-1.494,0.18-3.972,0.35-7.13,0.103c-0.989-5.183-1.685-11.617-2.169-18.624
					c2.926-1.504,6.507-6.321,6.383-9.371c-0.17-4.06,5.214-45.614,6.254-53.625c0.623-0.046,1.118-0.17,1.499-0.355
					c0.917,3.101,1.582,5.657,1.582,5.657S296.924,224.521,298.454,223.027z"/>
			</g>
			<path style="fill:#3D0F1B;" d="M270.964,351.72c0,0-12.23,35.285-22.632,67.113c-4.322,0.118-8.583,0.021-12.771-0.288h-0.015
				c-0.015-0.005-0.031-0.005-0.046-0.005c-0.016-0.005-0.031-0.01-0.046-0.005c-0.021-0.005-0.046-0.005-0.067-0.005
				c-0.453-0.031-0.902-0.067-1.355-0.108c1.283-3.163,3.055-7.681,4.74-11.684c0-0.005,0.005-0.005,0.005-0.01
				c1.273-3.024,2.638-6.259,4.055-9.603v-0.005c8.717-20.52,19.35-45.115,21.756-50.292
				C268.738,337.887,269.985,331.643,270.964,351.72z"/>
			<path style="fill:#3D0F1B;" d="M304.703,325.714l-1.494,78.859c-2.195,1.133-4.415,2.205-6.667,3.21
				c0.376-30.525-9.34-75.279-9.34-75.279s-0.629-0.737-2.653-13.59c-0.927-5.914-5.59-7.836-11.21-8.995
				c-1.515-0.319-3.107-0.577-4.709-0.84c-1.623-0.273-3.261-0.551-4.858-0.907c0.263-1.18,0.536-2.411,0.814-3.694
				c0.191,0.113,0.386,0.221,0.582,0.33c0.428,0.242,0.871,0.474,1.324,0.695c0.17,0.082,0.34,0.165,0.51,0.242
				c0.211,0.103,0.422,0.201,0.639,0.294c0.551,0.247,1.113,0.484,1.69,0.706c0.773,0.304,1.571,0.587,2.38,0.845
				c0.438,0.144,0.881,0.278,1.324,0.407c0.242,0.072,0.495,0.144,0.742,0.211c0.51,0.139,1.02,0.273,1.535,0.392
				c0.17,0.041,0.335,0.082,0.505,0.118c0.319,0.077,0.639,0.149,0.963,0.216c0.211,0.041,0.428,0.088,0.639,0.129
				c0.598,0.118,1.19,0.227,1.788,0.324c0.402,0.062,0.804,0.124,1.206,0.18c0.01,0.005,0.021,0.005,0.036,0.005
				c0.263,0.036,0.525,0.072,0.788,0.103c0.464,0.057,0.922,0.108,1.381,0.15c0.211,0.021,0.428,0.041,0.634,0.057
				c0.417,0.036,0.835,0.067,1.242,0.082c0.464,0.026,0.922,0.046,1.37,0.057c0.881,0.021,1.741,0.01,2.566-0.026
				c-0.247,2.761-0.459,5.301-0.623,7.563c-0.031,0.459-0.062,0.902-0.093,1.334c-0.005,0.051-0.005,0.098-0.01,0.144
				c-0.01,0.175-0.026,0.35-0.036,0.515c-0.026,0.417-0.051,0.819-0.077,1.206c-0.005,0.093-0.01,0.185-0.015,0.273
				c-0.005,0.108-0.01,0.211-0.015,0.314c0,0.005-0.005,0.015-0.005,0.02c0,0.046-0.005,0.088-0.005,0.134
				c0,0.041-0.005,0.088-0.005,0.129c-0.005,0.108-0.015,0.216-0.021,0.325c0,0.031,0,0.062-0.005,0.093
				c-0.005,0.139-0.01,0.273-0.021,0.407c-0.01,0.18-0.016,0.355-0.026,0.525c-0.015,0.366-0.031,0.716-0.041,1.051
				c-0.01,0.252-0.015,0.495-0.021,0.732c-0.062,2.246,0.016,3.622,0.263,3.884C288.902,329.974,297.377,328.223,304.703,325.714z"
				/>
			<path style="fill:none;stroke:#3A101B;stroke-width:0.5152;stroke-miterlimit:10;" d="M269.331,306.746
				c-2.286,7.392-4.122,14.962-2.041,16.258c2.081,1.295,3.673,2.079,3.673,2.079"/>
			<path style="fill:none;stroke:#3A101B;stroke-width:0.5152;stroke-miterlimit:10;" d="M273.778,308.206
				c-3.795,14.013-4.161,30.804-4.161,30.804"/>
			<path style="fill:#702C3A;" d="M291.282,309.362c-0.469,6.945-2.267,9.567-3.478,8.197c0.165-2.262,0.376-4.801,0.623-7.563
				c0.232-2.581,0.495-5.358,0.783-8.274c0.041-0.428,0.088-0.855,0.129-1.288c0.118-1.19,0.242-2.401,0.371-3.637
				c0.216-2.102,0.443-4.255,0.675-6.445c0.072-0.665,0.144-1.334,0.216-2.004c0.118-1.113,0.242-2.231,0.366-3.354
				c0.046-0.438,0.093-0.881,0.144-1.324c0.211-1.927,0.428-3.864,0.644-5.816c0.18-1.607,0.361-3.22,0.546-4.827
				c0.113-1.01,0.232-2.014,0.345-3.019c0.082-0.685,0.16-1.365,0.237-2.05c0.139-1.19,0.273-2.375,0.412-3.555
				c0.927-1.345,1.793-0.221,2.272,1.628C296.424,269.332,292.019,298.589,291.282,309.362z"/>
			<path style="fill:#702C3A;" d="M271.144,204.723c-3.029-0.34-7.712,1.257-9.819,3.73c-2.112,2.473-12.122,25.625-14.6,32.421
				c-1.303,3.58-2.864,4.74-3.663,4.235c5.523-14.605,13.797-34.883,17.434-38.762c3.333-3.555,8.088-3.879,12.916-2.957
				C274.019,204.12,273.632,205.001,271.144,204.723z"/>
		</g>
		<path style="fill:#FFFFFF;" d="M160.394,230.245c-5.417-3.594-14.679-4.389-14.504-10.719c0.175-6.33,9.262-2.38,9.262-2.38
			s-1.398-8.064,4.543-6.881C165.636,211.448,160.219,227.374,160.394,230.245z"/>
		<path style="fill:#FF5252;" d="M255.827,186.549c1.563-6.311,7.851-13.156,3.444-17.704c-4.408-4.547-8.434,4.506-8.434,4.506
			s-4.42-6.888-7.999-2C239.258,176.24,254.015,184.315,255.827,186.549z"/>
		<path style="fill:#FFFFFF;" d="M343.658,217.158c5.202-3.899,14.403-5.224,13.865-11.534c-0.538-6.31-9.383-1.845-9.383-1.845
			s0.933-8.131-4.931-6.609C337.345,198.693,343.667,214.281,343.658,217.158z"/>
		<g>
			<path style="fill:none;stroke:#FFFFFF;stroke-width:1.0304;stroke-miterlimit:10;" d="M83.82,162.26
				c10.51,2.05,20.824,1.716,30.458-0.361h0.005c0.18-0.036,0.355-0.072,0.536-0.118h0.005c2.421-0.536,4.791-1.185,7.115-1.937
				c0.108-0.031,0.216-0.062,0.319-0.103c9.49-3.096,18.104-7.857,25.29-13.575c0.005-0.005,0.005-0.005,0.005-0.005
				c0.016-0.01,0.026-0.021,0.041-0.036c1.865-1.484,3.632-3.04,5.296-4.642c0.062-0.062,0.124-0.118,0.186-0.18
				c6.909-6.713,11.973-14.332,14.487-21.973"/>
			<path style="fill:#FF5252;" d="M85.853,162.796C90.34,175.764,96.914,196.8,99.871,198.1c2.957,1.3,15.128-36.865,15.128-36.865
				S101.738,174.854,85.853,162.796z"/>
			<path style="fill:#FFFFFF;" d="M121.735,159.63c9.48,9.921,24.219,26.307,27.449,26.257c3.23-0.049-1.602-39.816-1.602-39.816
				S141.199,163.976,121.735,159.63z"/>
			<path style="fill:#FF5252;" d="M189.592,150.467c-2.761,1.643-23.523-5.116-36.702-8.985c-0.067-0.021-0.129-0.036-0.196-0.057
				c0.129-0.041,0.258-0.082,0.381-0.124c14.229-4.652,15.61-16.537,15.471-21.87c0.634,0.072,1.272,0.139,1.906,0.216
				C176.28,127.557,191.854,149.113,189.592,150.467z"/>
		</g>
		<g>
			<path style="fill:none;stroke:#FFFFFF;stroke-width:1.0304;stroke-miterlimit:10;" d="M409.39,118.067
				c-12.406,3.411-24.677,3.375-35.996,0.927h-0.005c-0.18-0.031-0.35-0.072-0.531-0.113c-2.421-0.536-4.796-1.185-7.115-1.937
				c-0.108-0.031-0.216-0.062-0.319-0.103c-9.49-3.091-18.098-7.851-25.29-13.575c-0.015-0.01-0.031-0.026-0.046-0.036
				c-1.86-1.484-3.632-3.034-5.291-4.642c-0.062-0.057-0.124-0.113-0.18-0.175c-5.09-4.941-9.18-10.376-11.983-15.95h-0.005"/>
			<path style="fill:#FFFFFF;" d="M401.826,119.9c-4.486,12.968-11.061,34.004-14.018,35.304
				c-2.957,1.3-15.128-36.865-15.128-36.865S385.942,131.959,401.826,119.9z"/>
			<path style="fill:#FF5252;" d="M365.944,116.735c-9.48,9.921-24.219,26.307-27.449,26.257c-3.23-0.049,1.602-39.816,1.602-39.816
				S346.48,121.081,365.944,116.735z"/>
			<path style="fill:#FFFFFF;" d="M334.982,98.532c-0.062,0.015-0.124,0.036-0.186,0.057c-13.178,3.864-33.95,10.633-36.707,8.985
				c-1.695-1.015,6.625-13.369,13.354-22.828c2.777-0.695,5.559-1.298,8.33-1.798c1.298,5.579,4.997,12.251,14.842,15.466
				C334.735,98.454,334.858,98.496,334.982,98.532z"/>
		</g>
	</g>
</g>
</svg>
